<svg id="Iconpack" xmlns="http://www.w3.org/2000/svg" viewBox="0 0 124.83 72.08"><defs><style>.cls-1{fill:#063;}.cls-2{fill:#7b4431;}</style></defs><g id="Flower-garden-2"><path class="cls-1" d="M101.59,47.2a12.57,12.57,0,0,1,.69-4.81,16.47,16.47,0,0,1,2.56-4.17c1-1.29,2.07-2.48,2.89-3.8a15.59,15.59,0,0,0,1.9-4.25,15.34,15.34,0,0,0,.58-4.62c0-1.58-.23-3.19-.17-4.84a14.55,14.55,0,0,1,1-4.81,35.74,35.74,0,0,1,2.06-4.38c-.56,1.51-1.18,3-1.6,4.53a14,14,0,0,0-.65,4.66c0,1.58.26,3.17.35,4.81a15.57,15.57,0,0,1-2.64,9.42,36.94,36.94,0,0,1-3.09,3.77,16.23,16.23,0,0,0-2.7,3.87A13.46,13.46,0,0,0,101.59,47.2Z"/><path class="cls-1" d="M110.06,22.55s-.14-2-3.42-3.9C106.64,18.65,106.52,24,110.06,22.55Z"/><path class="cls-1" d="M109.37,30.66s.49-2.83-3.48-6.08C105.89,24.58,103.89,32.12,109.37,30.66Z"/><path class="cls-1" d="M111,18.29s.75-1.85,4.41-3.12C115.36,15.17,113.8,20.21,111,18.29Z"/><path class="cls-1" d="M109.31,33.82s.88-2.16,5.15-3.64C114.46,30.18,112.65,36.07,109.31,33.82Z"/><path class="cls-1" d="M111.24,27.48s.36-2.5,4.66-4.74C115.9,22.74,115.55,29.49,111.24,27.48Z"/><path class="cls-1" d="M91,53.17a16.86,16.86,0,0,1-.9-5A13.44,13.44,0,0,1,91,43.12c1.16-3.23,3.08-6.06,3.81-9.26a20.56,20.56,0,0,0,0-9.77c-.38-1.61-1-3.19-1.48-4.8a26.14,26.14,0,0,1-1.15-4.93c.77,3.29,2.4,6.24,3.37,9.53a19.64,19.64,0,0,1,.26,10.21c-.82,3.42-2.8,6.26-4.07,9.3A15.66,15.66,0,0,0,91,53.17Z"/><path class="cls-1" d="M92.88,19s-.94-2.61-6-4.5C86.89,14.49,88.76,21.6,92.88,19Z"/><path class="cls-1" d="M95,29.84s-.43-3.83-6.9-7.37C88.14,22.47,88.36,32.81,95,29.84Z"/><path class="cls-1" d="M92.45,13.2s.29-2.58,4.64-5C97.09,8.24,97,15.19,92.45,13.2Z"/><path class="cls-1" d="M96.16,34s.34-3,5.43-5.79C101.59,28.24,101.42,36.36,96.16,34Z"/><path class="cls-1" d="M96.31,25.29s-.47-3.37,4.37-7.15C100.68,18.14,102.76,27.13,96.31,25.29Z"/><path class="cls-1" d="M87.29,48.58a14.76,14.76,0,0,0-.76-5.18,17.21,17.21,0,0,0-2.61-4.49,38.15,38.15,0,0,1-3.06-4.4,17.18,17.18,0,0,1-1.81-5.12A18,18,0,0,1,79,24c.26-1.78.65-3.5.86-5.23.47-3.45-.61-6.91-1.6-10.29a39.36,39.36,0,0,1,1.82,5,16,16,0,0,1,.55,5.35c-.11,1.8-.5,3.55-.69,5.27A17,17,0,0,0,80,29.21a16.55,16.55,0,0,0,1.66,4.86,47.6,47.6,0,0,0,2.85,4.4A17.61,17.61,0,0,1,87,43.26,13.66,13.66,0,0,1,87.29,48.58Z"/><path class="cls-1" d="M80.42,20.82s.36-2.2,4.19-4.15C84.61,16.67,84.19,22.63,80.42,20.82Z"/><path class="cls-1" d="M80.36,29.85s-.25-3.17,4.48-6.56C84.84,23.29,86.28,31.75,80.36,29.85Z"/><path class="cls-1" d="M79.87,16.05S79.23,14,75.3,12.37C75.3,12.37,76.51,18,79.87,16.05Z"/><path class="cls-1" d="M80.1,33.36s-.75-2.44-5.34-4.31C74.76,29.05,76.17,35.68,80.1,33.36Z"/><path class="cls-1" d="M78.61,26.23s-.15-2.79-4.69-5.5C73.92,20.73,73.63,28.24,78.61,26.23Z"/><path class="cls-1" d="M23.92,53.31A17.73,17.73,0,0,0,24.26,47a18.91,18.91,0,0,0-2.12-5.87,37.91,37.91,0,0,1-2.67-5.85,19.74,19.74,0,0,1-.91-6.43,21.79,21.79,0,0,1,1.22-6.37c.69-2,1.5-4,2.13-6,1.32-4,.83-8.32.36-12.52a47.74,47.74,0,0,1,1,6.32,19.55,19.55,0,0,1-.6,6.41c-.53,2.09-1.38,4.06-2,6.06a21.4,21.4,0,0,0-1.08,6.12A18.69,18.69,0,0,0,20.34,35a48.55,48.55,0,0,0,2.49,5.79A19.09,19.09,0,0,1,24.75,47,16.7,16.7,0,0,1,23.92,53.31Z"/><path class="cls-1" d="M22.06,19.14s.94-2.61,6-4.5C28.06,14.64,26.18,21.75,22.06,19.14Z"/><path class="cls-1" d="M19.9,30s.43-3.83,6.9-7.37C26.8,22.62,26.59,33,19.9,30Z"/><path class="cls-1" d="M22.49,13.34s-.29-2.57-4.64-4.95C17.85,8.39,18,15.34,22.49,13.34Z"/><path class="cls-1" d="M18.78,34.18s-.34-3-5.42-5.8C13.36,28.38,13.52,36.51,18.78,34.18Z"/><path class="cls-1" d="M18.63,25.44s.47-3.38-4.36-7.16C14.27,18.28,12.18,27.28,18.63,25.44Z"/><path class="cls-1" d="M27.65,48.73A13.72,13.72,0,0,1,28,43.4a17.16,17.16,0,0,1,2.45-4.78,50.72,50.72,0,0,0,2.85-4.41,16.93,16.93,0,0,0,1.79-10c-.19-1.73-.58-3.47-.68-5.27a15.85,15.85,0,0,1,.54-5.36,41.41,41.41,0,0,1,1.82-5c-1,3.38-2.07,6.84-1.6,10.29.21,1.72.6,3.44.86,5.22a17.66,17.66,0,0,1-.09,5.43,17.34,17.34,0,0,1-1.81,5.13A38.64,38.64,0,0,1,31,39.06a17,17,0,0,0-2.6,4.49A14.77,14.77,0,0,0,27.65,48.73Z"/><path class="cls-1" d="M34.52,19s-.36-2.21-4.19-4.15C30.33,14.82,30.75,20.77,34.52,19Z"/><path class="cls-1" d="M34.59,30s.25-3.17-4.48-6.56C30.11,23.44,28.66,31.9,34.59,30Z"/><path class="cls-1" d="M34.85,33.5s.75-2.43,5.33-4.3C40.18,29.2,38.78,35.82,34.85,33.5Z"/><path class="cls-1" d="M36.33,26.38s.15-2.79,4.69-5.5C41,20.88,41.32,28.39,36.33,26.38Z"/><path class="cls-1" d="M57.33,51a14.33,14.33,0,0,0-1.09-4.6,16.75,16.75,0,0,0-2.6-3.91,35.7,35.7,0,0,1-3-3.82,16.13,16.13,0,0,1-2.47-9.4c.09-1.63.29-3.2.34-4.77a14.93,14.93,0,0,0-.62-4.64c-.39-1.54-1-3-1.51-4.54a38.48,38.48,0,0,1,2,4.39,15.25,15.25,0,0,1,.92,4.79c.06,1.63-.14,3.23-.16,4.8A16.25,16.25,0,0,0,49.67,34a15.88,15.88,0,0,0,1.8,4.27,44.14,44.14,0,0,0,2.77,3.84,16.8,16.8,0,0,1,2.45,4.2A13,13,0,0,1,57.33,51Z"/><path class="cls-1" d="M49.26,26.39s.13-2,3.26-3.9C52.52,22.49,52.63,27.86,49.26,26.39Z"/><path class="cls-1" d="M49.92,34.51s-.47-2.84,3.31-6.08C53.23,28.43,55.14,36,49.92,34.51Z"/><path class="cls-1" d="M48.41,22.13s-.71-1.84-4.2-3.11C44.21,19,45.69,24.06,48.41,22.13Z"/><path class="cls-1" d="M48.14,31.33s-.35-2.5-4.45-4.74C43.69,26.59,44,33.34,48.14,31.33Z"/><path class="cls-1" d="M67.4,57a18.92,18.92,0,0,0,.31-6.27,19.17,19.17,0,0,0-2-5.89A38.54,38.54,0,0,1,63.13,39a20.27,20.27,0,0,1-.86-6.42,23.19,23.19,0,0,1,1.16-6.36c.66-2,1.44-4,2-6,1.25-4,.79-8.31.35-12.5a49.36,49.36,0,0,1,1,6.3,20.33,20.33,0,0,1-.56,6.4c-.5,2.09-1.31,4.07-1.91,6.07a22,22,0,0,0-1,6.12A19.27,19.27,0,0,0,64,38.72a46.4,46.4,0,0,0,2.38,5.81,20,20,0,0,1,1.82,6.16A17.68,17.68,0,0,1,67.4,57Z"/><path class="cls-1" d="M65.63,22.84s.89-2.61,5.71-4.5C71.34,18.34,69.55,25.45,65.63,22.84Z"/><path class="cls-1" d="M63.57,33.69s.41-3.83,6.57-7.37C70.14,26.32,69.94,36.66,63.57,33.69Z"/><path class="cls-1" d="M66,18s-.28-2.58-4.42-4.95C61.62,13.09,61.75,20,66,18Z"/><path class="cls-1" d="M62.36,29.14s.45-3.38-4.16-7.16C58.2,22,56.21,31,62.36,29.14Z"/><polygon class="cls-2" points="17.54 66.69 110.95 66.69 117.48 38.32 11.01 38.32 17.54 66.69"/></g></svg>