<svg id="Iconpack" xmlns="http://www.w3.org/2000/svg" viewBox="0 0 202.84 188.54"><defs><style>.cls-1{fill:#2d231f;}.cls-2{fill:#6e6f70;}.cls-3{fill:#8c5848;}.cls-4{fill:#774030;}.cls-12,.cls-5{fill:#8baabe;}.cls-5,.cls-6{stroke:#d0d2d3;stroke-miterlimit:10;stroke-width:1.75px;}.cls-6{fill:none;}.cls-7{fill:#808284;}.cls-8{fill:#240f0a;}.cls-9{fill:#f5a67e;}.cls-10{fill:#e1bfa9;}.cls-11{fill:#edc8b1;}.cls-12{opacity:0.4;}</style></defs><g id="Beige-building-right"><polygon class="cls-1" points="101.41 4.72 10.73 103.24 101.41 103.24 101.41 103.25 192.11 103.25 108.75 12.68 101.41 4.72"/><path class="cls-2" d="M186.57,116.83,193.94,104h-7.87l.11,12.75C186.19,116.93,186.45,117,186.57,116.83Z"/><path class="cls-2" d="M16.28,116.82,8.91,103.94h7.87l-.12,12.75C16.66,116.93,16.39,117,16.28,116.82Z"/><rect class="cls-3" x="15.56" y="100.92" width="85.87" height="83.84"/><path class="cls-4" d="M58.93,121H62a16.42,16.42,0,0,1,16.42,16.42v42.95a0,0,0,0,1,0,0H42.51a0,0,0,0,1,0,0V137.44A16.42,16.42,0,0,1,58.93,121Z"/><path class="cls-5" d="M58.89,122.43h2.8a15,15,0,0,1,15,15v39.87a0,0,0,0,1,0,0H43.92a0,0,0,0,1,0,0V137.41A15,15,0,0,1,58.89,122.43Z"/><line class="cls-6" x1="44.03" y1="138.32" x2="76.66" y2="138.32"/><path class="cls-7" d="M4.56,97.32h96.92a0,0,0,0,1,0,0v7.33a0,0,0,0,1,0,0H11.25A6.69,6.69,0,0,1,4.56,98v-.64a0,0,0,0,1,0,0Z"/><rect class="cls-4" x="15.56" y="104.67" width="85.8" height="1.54"/><rect class="cls-3" x="101.41" y="100.92" width="85.87" height="83.84" transform="translate(288.7 285.67) rotate(-180)"/><path class="cls-7" d="M107.45,97.33h90.83a0,0,0,0,1,0,0v7.33a0,0,0,0,1,0,0H100.76a0,0,0,0,1,0,0V104A6.69,6.69,0,0,1,107.45,97.33Z" transform="translate(299.04 201.98) rotate(-180)"/><rect class="cls-4" x="99.7" y="104.68" width="87.59" height="1.54"/><polyline class="cls-3" points="126.95 42.5 126.95 32.03 151.88 32.03 151.88 53.05 151.87 68.33"/><rect class="cls-7" x="124.04" y="26.11" width="31" height="8.53"/><rect class="cls-4" x="126.95" y="34.64" width="24.93" height="1.68"/><path class="cls-4" d="M141.93,121H145a16.42,16.42,0,0,1,16.42,16.42v42.95a0,0,0,0,1,0,0H125.51a0,0,0,0,1,0,0V137.44A16.42,16.42,0,0,1,141.93,121Z"/><path class="cls-5" d="M141.89,122.43h2.8a15,15,0,0,1,15,15v39.87a0,0,0,0,1,0,0H126.91a0,0,0,0,1,0,0V137.41A15,15,0,0,1,141.89,122.43Z"/><line class="cls-6" x1="127.03" y1="138.32" x2="159.66" y2="138.32"/></g><path class="cls-8" d="M143.79,154a6.75,6.75,0,0,0-6.32,5.09c-1.63,5.8-.08,14.28-.08,14.28l.84,2,10.72.31S155.89,154.79,143.79,154Z"/><polygon class="cls-9" points="136.93 176.32 138.57 168.44 149.81 168.68 151.98 176.32 136.93 176.32"/><polygon class="cls-10" points="142.05 168.6 142.15 165.06 146.27 165.15 146.33 168.69 144.24 173.29 142.05 168.6"/><path class="cls-11" d="M140.08,159.55a19.53,19.53,0,0,0,1,4.72,6.41,6.41,0,0,0,2.32,2.79c.91.71,2.29-.92,2.87-1.54a8.32,8.32,0,0,0,2.16-5,5.58,5.58,0,0,0,0-1.58,3.86,3.86,0,0,0-2.45-2.7c-1.52-.64-3.79-1.07-5.06.28A3.86,3.86,0,0,0,140.08,159.55Z"/><path class="cls-8" d="M144.68,156.75s-4,3.11-5.38,9.9c-.52,2.48.58-12.22,1.59-11.85S144.39,154.34,144.68,156.75Z"/><path class="cls-8" d="M148.84,161.79s-3.9-4-5.91-5.69c-1.49-1.23,3.34-.5,3.34-.5l3,2.56Z"/><rect class="cls-12" x="128.41" y="140.38" width="29.75" height="35.95"/></svg>