<svg id="Iconpack" xmlns="http://www.w3.org/2000/svg" viewBox="0 0 104.62 104.62"><defs><style>.cls-1{fill:#5c4536;}.cls-2{fill:#a79e8b;}.cls-3{fill:#bcc58a;}.cls-4{fill:#1d1d1b;}.cls-5{fill:#4d3a2c;}</style></defs><g id="Swing"><polygon class="cls-1" points="64.43 82.54 68.11 84.9 70.58 82.75 67.19 79.84 64.43 82.54"/><polygon class="cls-1" points="36.56 84.41 37.54 88.66 40.82 88.86 40.43 84.41 36.56 84.41"/><path class="cls-2" d="M43.63,58.64v2.71L33.2,71.58l3.43,15.19h4.48L40.77,73.4l6.86-2.71S58,67.72,58,67.37s-1.41-7.9-1.41-7.9Z"/><path class="cls-2" d="M51.46,59.2l-1.57,5.32,2,10.84L66.11,84.2l3.21-3.13-11-10,4.39-8.88s-4.21-5.12-4.46-5.37a16.74,16.74,0,0,0-2.06-1.1Z"/><path class="cls-1" d="M44.87,43.11l-5.81,6L31.2,47.89l-1.35-3.48L28,42.8,26.68,44,27,47.78s2.2,1.48,2.71,2c.36.36,9.14,5.63,9.14,5.63L49.49,44.88Z"/><path class="cls-1" d="M63.24,44.48l7.44,6.41,6.81-3.24,1.11-3.83,1.86-1.88,1.48,1.15v4.06s-2.2,1.78-2.69,2.35-8.32,6.75-8.32,6.75L59.53,47.16Z"/><path class="cls-3" d="M62.79,50.49c.36,4.29.45,11.73.45,11.73H42.54s1.44-13,1.55-14.08A13,13,0,0,1,42.54,45l3.92-4.54,5-1.75,5.46-.36,4.71,3,3.58,4.28L63.57,51Z"/><path class="cls-4" d="M36.75,88.39,33.38,94c-.84,1.4-.41,2.83.15,2.69s9.73-4.61,9.73-4.61L41.32,88s-1.39.78-1.73.32a4.18,4.18,0,0,1-.48-1.53Z"/><path class="cls-4" d="M66.6,85.18l.71,6.5c.18,1.63,1.38,2.51,1.75,2.06s5-9.56,5-9.56l-4-2.09s-.64,1.46-1.19,1.3a4.11,4.11,0,0,1-1.3-.93Z"/><path class="cls-5" d="M50.46,32.78c0,1.66.09,3.35,0,5-.07.85-1.1,1.4-1.69,1.93l2.85,2.23,4.47-1.29,2.1-1.29a13.69,13.69,0,0,1-1.43-1.17c-.83-1-.35-3.33-.35-4.57"/><path class="cls-1" d="M56.53,37.2a7.87,7.87,0,0,0,4.19-4.87,20.88,20.88,0,0,0,.55-8.83c.36-2.45-3.58-3.65-5.54-3.3-5.07.91-7.69,1.25-8.17,4.89-.34,2.52-1.56,4.73-1.26,7.38.41,3.57,3.93,5.48,7.26,5.38A7.88,7.88,0,0,0,56.53,37.2Z"/><path class="cls-4" d="M60.1,33.77S73,30.56,64.7,24c-2.76-2.2-4.69-6.08-7.22-7.7-5.06-3.24-10-2.64-11,2.13-1.58,7.15,1.5,3.27.28,9.53C56.3,17.8,60.1,33.77,60.1,33.77Z"/></g></svg>