<svg id="Iconpack" xmlns="http://www.w3.org/2000/svg" viewBox="0 0 41.48 72.45"><defs><style>.cls-1{fill:#063;}.cls-2{fill:#7b4431;}.cls-3{fill:#f6ab7d;}.cls-4{fill:#e0936d;}</style></defs><g id="Flowerpot-2"><path class="cls-1" d="M16.41,67.08a36.35,36.35,0,0,1-.94-7.36,28.14,28.14,0,0,1,.91-7.42c1.22-4.84,3.37-9.35,4.07-14.18a43.06,43.06,0,0,0-.06-14.59c-.4-2.42-1-4.82-1.56-7.23A53.21,53.21,0,0,1,17.62,9c.78,4.89,2.53,9.52,3.53,14.41a42.08,42.08,0,0,1,.28,14.89c-.81,5-3,9.52-4.31,14.22A27.57,27.57,0,0,0,16,59.72,40.38,40.38,0,0,0,16.41,67.08Z"/><path class="cls-1" d="M20.35,34.09s.35-4.23-4-8.89C16.35,25.2,14.66,36.47,20.35,34.09Z"/><path class="cls-1" d="M22.07,39.08s.38-4.71,6-9C28.07,30,27.89,42.72,22.07,39.08Z"/><path class="cls-1" d="M22.47,27s-.38-3.77,3.45-8C25.92,19,27.57,29.05,22.47,27Z"/><polygon class="cls-2" points="31.98 69.14 39.12 43.33 2.37 42.5 7.76 69.14 31.98 69.14"/><path class="cls-3" d="M18.45,17.71s5.49-3.1-.61-10.79S12.12,12.44,18.45,17.71Z"/><path class="cls-4" d="M14.37,4.67s-.46,4.38,4.08,13A12,12,0,0,1,14.37,4.67Z"/></g></svg>