<svg id="Iconpack" xmlns="http://www.w3.org/2000/svg" viewBox="0 0 39.4 61.28"><defs><style>.cls-1{fill:#774030;}.cls-2,.cls-8{fill:#8baabe;}.cls-2,.cls-3{stroke:#d0d2d3;stroke-miterlimit:10;stroke-width:1.75px;}.cls-3{fill:none;}.cls-4{fill:#240f0a;}.cls-5{fill:#f5a67e;}.cls-6{fill:#e1bfa9;}.cls-7{fill:#edc8b1;}.cls-8{opacity:0.4;}</style></defs><g id="Beige-building-right"><path class="cls-1" d="M18,1H21A16.42,16.42,0,0,1,37.45,17.38V60.32a0,0,0,0,1,0,0H1.54a0,0,0,0,1,0,0V17.38A16.42,16.42,0,0,1,18,1Z"/><path class="cls-2" d="M17.92,2.37h2.8a15,15,0,0,1,15,15V57.21a0,0,0,0,1,0,0H2.95a0,0,0,0,1,0,0V17.34a15,15,0,0,1,15-15Z"/><line class="cls-3" x1="3.07" y1="18.25" x2="35.69" y2="18.25"/></g><path class="cls-4" d="M19.82,34a6.74,6.74,0,0,0-6.31,5.09c-1.63,5.8-.08,14.29-.08,14.29l.84,2L25,55.66S31.92,34.72,19.82,34Z"/><polygon class="cls-5" points="12.96 56.26 14.6 48.38 25.85 48.61 28.02 56.26 12.96 56.26"/><polygon class="cls-6" points="18.09 48.53 18.18 45 22.31 45.08 22.36 48.62 20.28 53.22 18.09 48.53"/><path class="cls-7" d="M16.12,39.48a19.53,19.53,0,0,0,1,4.72A6.17,6.17,0,0,0,19.48,47c.91.71,2.28-.92,2.86-1.53a8.38,8.38,0,0,0,2.17-5,5.58,5.58,0,0,0,0-1.58,3.88,3.88,0,0,0-2.45-2.7c-1.51-.64-3.79-1.07-5.05.28A3.82,3.82,0,0,0,16.12,39.48Z"/><path class="cls-4" d="M20.71,36.68s-4,3.11-5.38,9.9c-.51,2.48.58-12.22,1.6-11.85S20.42,34.27,20.71,36.68Z"/><path class="cls-4" d="M24.87,41.72S21,37.71,19,36c-1.48-1.24,3.35-.51,3.35-.51l3,2.56Z"/><rect class="cls-8" x="4.45" y="20.31" width="29.75" height="35.95"/></svg>