<svg id="Iconpack" xmlns="http://www.w3.org/2000/svg" viewBox="0 0 40.54 63.04"><defs><style>.cls-1{fill:#774030;}.cls-2{fill:#8baabe;}.cls-2,.cls-3{stroke:#d0d2d3;stroke-miterlimit:10;stroke-width:1.75px;}.cls-3{fill:none;}</style></defs><path class="cls-1" d="M18.74,2.26H21.8A16.42,16.42,0,0,1,38.22,18.69V61.63a0,0,0,0,1,0,0H2.31a0,0,0,0,1,0,0V18.69A16.42,16.42,0,0,1,18.74,2.26Z"/><path class="cls-2" d="M18.7,3.68h2.8a15,15,0,0,1,15,15V58.52a0,0,0,0,1,0,0H3.72a0,0,0,0,1,0,0V18.65A15,15,0,0,1,18.7,3.68Z"/><line class="cls-3" x1="3.84" y1="19.56" x2="36.47" y2="19.56"/></svg>