<svg width="490" height="550" viewBox="0 0 490 550" fill="none" xmlns="http://www.w3.org/2000/svg">
<path d="M258.846 0H208.417C128.097 0 63.001 42.2297 63.001 145.276V471.253H404.241V145.296C404.241 42.2297 339.146 0 258.846 0Z" fill="#979081"/>
<path d="M26.0059 472.965L26.0059 541.225H438.432V472.965H26.0059Z" fill="#BFB197"/>
<path d="M389.097 375.668H77.3691V466.515H389.097V375.668Z" fill="#3F3228"/>
<path d="M386.53 151.584H74.8027V375.668H386.53V151.584Z" fill="#83939E"/>
<path d="M218.486 274.753C215.441 277.937 202.864 266.295 200.157 264.922C181.053 255.29 184.237 214.672 198.764 203.846C212.078 193.896 231.064 203.548 246.248 208.782C253.731 211.369 264.557 212.503 266.706 220.404C270.348 233.797 269.154 248.265 254.467 248.265C234.725 248.185 218.526 274.713 218.486 274.753Z" fill="#272726"/>
<path d="M258.945 294.114C262.348 294.87 267.702 293.557 269.692 296.482C275.662 305.398 277.015 326.214 277.831 335.687C278.727 346.235 279.642 354.394 280.538 364.941L314.369 397.997L338.807 415.092C338.807 415.092 318.25 418.793 313.334 407.549C312.558 405.798 266.826 373.718 266.826 373.718L258.428 320.383L258.945 294.114Z" fill="#7B6A58"/>
<path d="M239.303 292.801C236.616 290.154 241.572 279.666 238.945 277.975C238.945 277.975 214.248 262.054 218.148 267.049C221.333 271.029 220.815 279.189 220.139 283.846C219.78 286.333 219.263 290.075 217.173 291.806C215.999 292.801 207.999 293.796 208.039 293.179L206.526 311.946L232.796 319.906L253.234 293.199C249.671 293.199 243.025 294.592 239.741 293.199C239.575 293.091 239.427 292.956 239.303 292.801V292.801Z" fill="#6F6050"/>
<path d="M254.507 354.695C254.01 367.213 259.104 376.327 261.214 388.526C264.296 406.541 266.389 424.711 267.483 442.955C237.962 446.132 208.186 446.132 178.665 442.955C178.665 442.955 182.108 414.338 194.427 389.939C206.745 365.541 203.282 354.556 203.282 354.556V319.232L199.999 293.201H212.079C218.013 296.254 224.59 297.847 231.263 297.847C237.936 297.847 244.514 296.254 250.448 293.201H260.239C262.109 301.301 263.562 314.037 264.597 322.336C265.97 333.202 258.885 337.222 255.841 346.774C253.89 352.824 254.746 348.426 254.507 354.695Z" fill="#FFE09A"/>
<path d="M254.308 235.705C254.984 252.124 254.467 282.174 243.601 282.532C232.735 282.89 220.655 277.139 220.655 277.139C220.655 277.139 202.745 257.954 212.695 235.705C222.646 213.456 253.651 220.063 254.308 235.705Z" fill="#7B6A58"/>
<path d="M101.31 416.886H362.549L393.654 449.921H70.4834L101.31 416.886Z" fill="#3C3C3B"/>
<path d="M115.798 416.886L98.0068 437.682H365.495L348.977 416.886H115.798Z" fill="#F0F0F0"/>
<path d="M393.674 449.939H70.4834V461.024H393.674V449.939Z" fill="#272726"/>
<path d="M108.714 437.679L118.246 424.743H121.411L112.833 437.679H108.714Z" fill="#272726"/>
<path d="M114.803 437.679L124.335 424.743H127.519L118.942 437.679H114.803Z" fill="#272726"/>
<path d="M128.713 437.679L138.245 424.743H141.43L132.852 437.679H128.713Z" fill="#272726"/>
<path d="M134.823 437.679L144.356 424.743H147.52L138.943 437.679H134.823Z" fill="#272726"/>
<path d="M141.172 437.679L150.704 424.743H153.889L145.311 437.679H141.172Z" fill="#272726"/>
<path d="M156.316 437.679L165.531 424.743H168.695L160.456 437.679H156.316Z" fill="#272726"/>
<path d="M162.426 437.679L170.963 424.743H174.804L166.545 437.679H162.426Z" fill="#272726"/>
<path d="M200.158 294.435C196.735 295.191 197.034 294.116 193.989 296.425C185.491 303.072 186.665 326.157 185.85 335.629C184.954 346.177 184.039 354.336 183.143 364.884L168.496 409.76L148.734 429.661C148.734 429.661 166.944 430.915 171.78 421.8C172.675 420.109 196.795 371.491 196.795 371.491L202.984 333.341L203.283 319.251L200.158 294.435Z" fill="#7B6A58"/>
<path d="M176.496 437.679L183.083 424.743H186.765L180.635 437.679H176.496Z" fill="#272726"/>
<path d="M183.322 437.679L189.909 424.743H193.591L187.462 437.679H183.322Z" fill="#272726"/>
<path d="M189.671 437.679L196.258 424.743H199.94L193.81 437.679H189.671Z" fill="#272726"/>
<path d="M204.795 437.679L209.113 424.743H213.054L208.914 437.679H204.795Z" fill="#272726"/>
<path d="M210.885 437.679L215.223 424.743H219.104L215.024 437.679H210.885Z" fill="#272726"/>
<path d="M225.253 437.679L226.805 424.743H230.646L229.372 437.679H225.253Z" fill="#272726"/>
<path d="M231.343 437.679L232.915 424.743H236.736L235.482 437.679H231.343Z" fill="#272726"/>
<path d="M237.691 437.679L239.264 424.743H243.104L241.831 437.679H237.691Z" fill="#272726"/>
<path d="M360.917 437.679L351.385 424.743H348.221L356.778 437.679H360.917Z" fill="#272726"/>
<path d="M354.807 437.679L345.294 424.743H342.11L350.688 437.679H354.807Z" fill="#272726"/>
<path d="M340.917 437.679L331.384 424.743H328.2L336.777 437.679H340.917Z" fill="#272726"/>
<path d="M334.807 437.679L325.275 424.743H322.091L330.668 437.679H334.807Z" fill="#272726"/>
<path d="M328.459 437.679L318.926 424.743H315.742L324.319 437.679H328.459Z" fill="#272726"/>
<path d="M313.315 437.679L304.101 424.743H300.937L309.175 437.679H313.315Z" fill="#272726"/>
<path d="M307.205 437.679L298.647 424.743H294.826L303.085 437.679H307.205Z" fill="#272726"/>
<path d="M293.116 437.679L286.528 424.743H282.847L288.996 437.679H293.116Z" fill="#272726"/>
<path d="M286.309 437.679L279.722 424.743H276.04L282.169 437.679H286.309Z" fill="#272726"/>
<path d="M279.941 437.679L273.354 424.743H269.672L275.821 437.679H279.941Z" fill="#272726"/>
<path d="M264.835 437.679L260.497 424.743H256.557L260.716 437.679H264.835Z" fill="#272726"/>
<path d="M258.745 437.679L254.407 424.743H250.526L254.606 437.679H258.745Z" fill="#272726"/>
<path d="M218.487 274.751C218.487 274.751 209.651 248.402 223.085 241.576C234.408 235.824 243.105 230.252 243.105 230.252C243.105 230.252 246.667 246.173 256.558 247.506C266.448 248.84 253.314 218.451 253.314 218.451L223.085 215.625L202.447 224.58L199.96 241.576L198.766 252.74L218.487 274.751Z" fill="#272726"/>
<path d="M218.487 274.753C218.487 274.753 188.317 225.498 249.851 209.697L234.308 204.423C234.308 204.423 184.277 215.01 218.487 274.753Z" fill="#FFE09A"/>
<path d="M3 227.328V541.244L77.3696 466.516L73.7078 159.585L3 227.328Z" fill="#9DB5C6" stroke="#DADADA" stroke-width="5" stroke-miterlimit="10"/>
<path d="M77.3691 152.601C77.3691 53.3551 136.773 12.6777 210.028 12.6777H256.019C329.274 12.6777 388.679 53.3551 388.679 152.601" fill="#9DB5C6"/>
<path d="M77.3691 152.601C77.3691 53.3551 136.773 12.6777 210.028 12.6777H256.019C329.274 12.6777 388.679 53.3551 388.679 152.601" stroke="#DADADA" stroke-width="5" stroke-miterlimit="10"/>
<path d="M233.015 12.6777V153.198" stroke="#DADADA" stroke-width="5" stroke-miterlimit="10"/>
<path d="M77.7881 152.6H389.098" stroke="#DADADA" stroke-width="5" stroke-miterlimit="10"/>
<path d="M388.679 152.6V466.516H77.3691V152.6" stroke="#DADADA" stroke-width="5" stroke-miterlimit="10"/>
<path d="M487.228 192.163V506.079L388.679 466.516V152.6L487.228 192.163Z" fill="#9DB5C6" stroke="#DADADA" stroke-width="5" stroke-miterlimit="10"/>
<path d="M141.789 377.877C142.414 373.768 142.534 369.598 142.147 365.459C141.619 361.364 140.576 357.352 139.043 353.519C137.415 349.645 136.084 345.653 135.063 341.578C134.144 337.424 133.73 333.174 133.829 328.921C133.979 324.685 134.572 320.476 135.6 316.364C136.595 312.284 137.769 308.284 138.665 304.264C140.535 296.304 139.879 287.806 139.361 279.487C140.038 283.607 140.595 287.746 140.874 291.945C141.138 296.164 140.905 300.399 140.177 304.562C139.481 308.722 138.187 312.742 137.351 316.782C136.416 320.783 135.902 324.872 135.819 328.981C135.672 333.079 136.006 337.18 136.814 341.2C137.786 345.241 138.975 349.227 140.376 353.14C141.779 357.13 142.662 361.284 143.003 365.499C143.168 369.661 142.759 373.826 141.789 377.877V377.877Z" fill="#006633"/>
<path d="M139.162 309.617C139.162 309.617 140.495 304.403 147.64 300.622C147.64 300.662 144.973 314.871 139.162 309.617Z" fill="#006633"/>
<path d="M136.098 331.307C136.098 331.307 136.715 323.645 145.869 316.601C145.869 316.601 145.57 337.238 136.098 331.307Z" fill="#006633"/>
<path d="M139.799 298.076C139.799 298.076 139.401 292.942 133.251 288.126C133.212 288.186 133.411 302.076 139.799 298.076Z" fill="#006633"/>
<path d="M134.525 339.67C134.525 339.67 134.027 333.7 126.843 328.107C126.843 328.107 127.082 344.327 134.525 339.67Z" fill="#006633"/>
<path d="M134.307 322.216C134.307 322.216 134.963 315.49 128.137 307.947C128.137 307.947 125.172 325.898 134.307 322.216Z" fill="#006633"/>
<path d="M118.366 386.773L106.624 344.305L167.103 342.932L158.227 386.773H118.366Z" fill="#703623"/>
<path d="M25.9854 541.245V550.001H438.411V541.245H25.9854Z" fill="#888171"/>
<path d="M293.055 217.1C296.891 217.1 300 213.99 300 210.154C300 206.319 296.891 203.209 293.055 203.209C289.219 203.209 286.109 206.319 286.109 210.154C286.109 213.99 289.219 217.1 293.055 217.1Z" fill="#12100B"/>
<path d="M296.937 210.352L298.787 173.157L324.559 174.431L324.42 177.356L301.554 176.202L299.842 210.491L296.937 210.352Z" fill="#12100B"/>
<path d="M315.781 218.234C319.617 218.234 322.727 215.124 322.727 211.288C322.727 207.452 319.617 204.343 315.781 204.343C311.945 204.343 308.836 207.452 308.836 211.288C308.836 215.124 311.945 218.234 315.781 218.234Z" fill="#12100B"/>
<path d="M319.922 211.486L321.713 175.744L324.618 175.903L322.847 211.645L319.922 211.486Z" fill="#12100B"/>
<path d="M299.842 181.016L299.696 183.938L322.693 185.082L322.839 182.161L299.842 181.016Z" fill="#12100B"/>
<path d="M348.877 357.858C352.713 357.858 355.822 354.748 355.822 350.912C355.822 347.076 352.713 343.967 348.877 343.967C345.041 343.967 341.932 347.076 341.932 350.912C341.932 354.748 345.041 357.858 348.877 357.858Z" fill="#12100B"/>
<path d="M353.335 353.995C353.069 353.815 352.871 353.55 352.773 353.243C352.676 352.936 352.685 352.605 352.798 352.304L364.858 318.612C364.922 318.431 365.022 318.264 365.151 318.122C365.281 317.98 365.437 317.865 365.611 317.783C365.785 317.702 365.973 317.656 366.165 317.648C366.357 317.64 366.548 317.67 366.729 317.736C366.91 317.801 367.076 317.9 367.218 318.029C367.36 318.159 367.475 318.315 367.557 318.489C367.638 318.663 367.684 318.851 367.693 319.043C367.701 319.235 367.671 319.426 367.604 319.607L355.544 353.398C355.48 353.579 355.38 353.746 355.251 353.888C355.122 354.03 354.966 354.145 354.792 354.227C354.618 354.308 354.429 354.354 354.237 354.362C354.046 354.37 353.854 354.34 353.674 354.274C353.544 354.204 353.429 354.11 353.335 353.995Z" fill="#12100B"/>
<path d="M360.2 248.801C364.036 248.801 367.146 245.691 367.146 241.856C367.146 238.02 364.036 234.91 360.2 234.91C356.364 234.91 353.255 238.02 353.255 241.856C353.255 245.691 356.364 248.801 360.2 248.801Z" fill="#12100B"/>
<path d="M366.251 241.616H365.992C365.623 241.721 365.227 241.675 364.891 241.488C364.556 241.302 364.307 240.99 364.201 240.621L354.251 206.213C354.196 206.028 354.178 205.835 354.199 205.644C354.219 205.453 354.277 205.268 354.37 205.099C354.463 204.931 354.588 204.782 354.738 204.663C354.888 204.543 355.061 204.454 355.246 204.402C355.62 204.297 356.021 204.346 356.36 204.536C356.7 204.726 356.95 205.042 357.057 205.417L367.007 239.805C367.126 240.147 367.114 240.521 366.975 240.855C366.835 241.189 366.577 241.46 366.251 241.616V241.616Z" fill="#12100B"/>
<path d="M321.752 303.031C325.588 303.031 328.697 299.922 328.697 296.086C328.697 292.25 325.588 289.141 321.752 289.141C317.916 289.141 314.807 292.25 314.807 296.086C314.807 299.922 317.916 303.031 321.752 303.031Z" fill="#12100B"/>
<path d="M327.206 296.246C326.876 296.245 326.557 296.132 326.301 295.926C326.044 295.72 325.865 295.433 325.793 295.111L316.399 255.887L331.106 268.862C331.25 268.993 331.366 269.15 331.449 269.326C331.532 269.502 331.579 269.692 331.589 269.886C331.598 270.08 331.569 270.274 331.503 270.457C331.437 270.64 331.336 270.808 331.206 270.952C331.075 271.095 330.917 271.212 330.742 271.295C330.566 271.378 330.376 271.425 330.181 271.434C329.987 271.443 329.793 271.414 329.611 271.349C329.428 271.283 329.26 271.182 329.116 271.051L321.315 264.185L328.579 294.494C328.668 294.874 328.603 295.274 328.398 295.607C328.193 295.939 327.864 296.176 327.484 296.266L327.206 296.246Z" fill="#12100B"/>
<path d="M176 516.332V490.738H184.965C188.07 490.738 190.426 491.336 192.031 492.531C193.637 493.715 194.439 495.455 194.439 497.752C194.439 499.006 194.117 500.113 193.473 501.074C192.828 502.023 191.932 502.721 190.783 503.166C192.096 503.494 193.127 504.156 193.877 505.152C194.639 506.148 195.02 507.367 195.02 508.809C195.02 511.27 194.234 513.133 192.664 514.398C191.094 515.664 188.855 516.309 185.949 516.332H176ZM181.273 505.188V512.096H185.791C187.033 512.096 188 511.803 188.691 511.217C189.395 510.619 189.746 509.799 189.746 508.756C189.746 506.412 188.533 505.223 186.107 505.188H181.273ZM181.273 501.461H185.176C187.836 501.414 189.166 500.354 189.166 498.279C189.166 497.119 188.826 496.287 188.146 495.783C187.479 495.268 186.418 495.01 184.965 495.01H181.273V501.461Z" fill="white"/>
<path d="M197.867 506.646C197.867 504.76 198.23 503.078 198.957 501.602C199.684 500.125 200.727 498.982 202.086 498.174C203.457 497.365 205.045 496.961 206.85 496.961C209.416 496.961 211.508 497.746 213.125 499.316C214.754 500.887 215.662 503.02 215.85 505.715L215.885 507.016C215.885 509.934 215.07 512.277 213.441 514.047C211.812 515.805 209.627 516.684 206.885 516.684C204.143 516.684 201.951 515.805 200.311 514.047C198.682 512.289 197.867 509.898 197.867 506.875V506.646ZM202.947 507.016C202.947 508.82 203.287 510.203 203.967 511.164C204.646 512.113 205.619 512.588 206.885 512.588C208.115 512.588 209.076 512.119 209.768 511.182C210.459 510.232 210.805 508.721 210.805 506.646C210.805 504.877 210.459 503.506 209.768 502.533C209.076 501.561 208.104 501.074 206.85 501.074C205.607 501.074 204.646 501.561 203.967 502.533C203.287 503.494 202.947 504.988 202.947 507.016Z" fill="white"/>
<path d="M230.404 514.398C229.15 515.922 227.416 516.684 225.201 516.684C223.162 516.684 221.604 516.098 220.525 514.926C219.459 513.754 218.914 512.037 218.891 509.775V497.312H223.971V509.6C223.971 511.58 224.873 512.57 226.678 512.57C228.4 512.57 229.584 511.973 230.229 510.777V497.312H235.326V516.332H230.545L230.404 514.398Z" fill="white"/>
<path d="M255.699 509.424L258.195 497.312H263.1L258.248 516.332H253.994L250.391 504.361L246.787 516.332H242.551L237.699 497.312H242.604L245.082 509.406L248.562 497.312H252.236L255.699 509.424Z" fill="white"/>
<path d="M274.385 516.684C271.596 516.684 269.322 515.828 267.564 514.117C265.818 512.406 264.945 510.127 264.945 507.279V506.787C264.945 504.877 265.314 503.172 266.053 501.672C266.791 500.16 267.834 499 269.182 498.191C270.541 497.371 272.088 496.961 273.822 496.961C276.424 496.961 278.469 497.781 279.957 499.422C281.457 501.062 282.207 503.389 282.207 506.4V508.475H270.096C270.26 509.717 270.752 510.713 271.572 511.463C272.404 512.213 273.453 512.588 274.719 512.588C276.676 512.588 278.205 511.879 279.307 510.461L281.803 513.256C281.041 514.334 280.01 515.178 278.709 515.787C277.408 516.385 275.967 516.684 274.385 516.684ZM273.805 501.074C272.797 501.074 271.977 501.414 271.344 502.094C270.723 502.773 270.324 503.746 270.148 505.012H277.215V504.607C277.191 503.482 276.887 502.615 276.301 502.006C275.715 501.385 274.883 501.074 273.805 501.074Z" fill="white"/>
<path d="M295.795 502.076C295.104 501.982 294.494 501.936 293.967 501.936C292.045 501.936 290.785 502.586 290.188 503.887V516.332H285.107V497.312H289.906L290.047 499.58C291.066 497.834 292.479 496.961 294.283 496.961C294.846 496.961 295.373 497.037 295.865 497.189L295.795 502.076Z" fill="white"/>
<path d="M308.557 511.076C308.557 510.455 308.246 509.969 307.625 509.617C307.016 509.254 306.031 508.932 304.672 508.65C300.148 507.701 297.887 505.779 297.887 502.885C297.887 501.197 298.584 499.791 299.979 498.666C301.385 497.529 303.219 496.961 305.48 496.961C307.895 496.961 309.822 497.529 311.264 498.666C312.717 499.803 313.443 501.279 313.443 503.096H308.363C308.363 502.369 308.129 501.771 307.66 501.303C307.191 500.822 306.459 500.582 305.463 500.582C304.607 500.582 303.945 500.775 303.477 501.162C303.008 501.549 302.773 502.041 302.773 502.639C302.773 503.201 303.037 503.658 303.564 504.01C304.104 504.35 305.006 504.648 306.271 504.906C307.537 505.152 308.604 505.434 309.471 505.75C312.154 506.734 313.496 508.439 313.496 510.865C313.496 512.6 312.752 514.006 311.264 515.084C309.775 516.15 307.854 516.684 305.498 516.684C303.904 516.684 302.486 516.402 301.244 515.84C300.014 515.266 299.047 514.486 298.344 513.502C297.641 512.506 297.289 511.434 297.289 510.285H302.105C302.152 511.188 302.486 511.879 303.107 512.359C303.729 512.84 304.561 513.08 305.604 513.08C306.576 513.08 307.309 512.898 307.801 512.535C308.305 512.16 308.557 511.674 308.557 511.076Z" fill="white"/>
</svg>
