<svg id="Iconpack" xmlns="http://www.w3.org/2000/svg" viewBox="0 0 31.97 41.28"><defs><style>.cls-1{fill:#ae5a37;}.cls-2{fill:#b3c18a;}.cls-3{fill:#e1bfa9;}.cls-4{fill:#edc8b1;}</style></defs><g id="back-lady"><path class="cls-1" d="M16.52,2.08S10,.69,6.94,5.44C4.72,8.9,5.37,20.14,9.42,21.64c2.45.91,5.64.12,8.21.3,2,.13,4.74,1.22,6.56-.46s1.93-6,2.23-8.57C27.39,4.62,23.63.27,16.52,2.08Z"/><polygon class="cls-2" points="5.13 38.62 7.78 23.1 23.89 24.17 27.64 38.79 5.13 38.62"/><rect class="cls-3" x="13.36" y="18.15" width="5.57" height="5.92" transform="translate(-6 35.82) rotate(-86.19)"/><path class="cls-4" d="M10.77,10.15A27.87,27.87,0,0,0,12,16.94a10.93,10.93,0,0,0,3.12,4.82c1.25,1.08,3.33-1.15,4.21-2,2.09-2,2.94-4.94,3.45-7.73a7.75,7.75,0,0,0,.16-2.25,5.5,5.5,0,0,0-3.34-4c-2.13-1-5.37-1.78-7.27.06A5.5,5.5,0,0,0,10.77,10.15Z"/><path class="cls-1" d="M17.61,5.07s-5.18,9.4-8.25,11.3S7.88,3.92,9.31,4.51,17.35,1.61,17.61,5.07Z"/><path class="cls-1" d="M24.24,14S14.16,6.25,16.5,4.79s6.7,1.78,6.7,1.78L25.49,14Z"/></g></svg>