<svg id="Iconpack" xmlns="http://www.w3.org/2000/svg" viewBox="0 0 135.78 135.78"><defs><style>.cls-1{fill:#c59e6d;}.cls-2{fill:#f4d794;}.cls-3{fill:#b89467;}.cls-4{fill:#ffe09a;}.cls-5{fill:#ededed;}.cls-6{fill:#679090;}.cls-7{fill:#5e8383;}.cls-8{fill:#12100b;}.cls-9{fill:#3c3c3b;}</style></defs><g id="Singing-lady"><polygon class="cls-1" points="48.13 61.74 47.54 74.53 49.25 75.75 52.05 61.14 49.25 60.38 48.13 61.74"/><path class="cls-2" d="M56.55,43.18H55.27s-1.17,1.63-4.84,2.44a1.81,1.81,0,0,0-1.66,2.25l.44,2s.32,6.49-.51,9.13-1.16,3.45-1.16,3.45,2.67-2,4.5.51,3.62-11.06,3.62-11.06Z"/><path class="cls-3" d="M62.3,39.86v8L54.42,50s2.22-11.95.92-13.42S62.3,39.86,62.3,39.86Z"/><path class="cls-4" d="M55.27,43.18l1.28,4.57s5.75-3.38,5.75-4.28c0,0,.93,1.35,5.36.35a1.09,1.09,0,0,1,1.21.65c.44.85,4.87,7.64,5.69,9.69,0,0,2.33,5.15,2.55,6.07,0,0-2.67-1.52-4.78.4,0,0-5.07-6.69-5.2-7.81,0,0,.14,7.71-.94,11.26,0,0-8.53,2.74-15,0-1.91-.81-.83-4.07-.53-5.43a14,14,0,0,0,.57-3.18c0-1.31-1-2.3-1.25-3.56a3.82,3.82,0,0,1,1.43-4C54.88,45.21,55.27,43.18,55.27,43.18Z"/><path class="cls-1" d="M67.07,28.17c.21,4.58.05,12.95-3.29,13a19.7,19.7,0,0,1-7.07-1.5s-5.53-5.35-2.46-11.55S66.87,23.83,67.07,28.17Z"/><path class="cls-5" d="M63.5,27.36s-1.84,9.91-10.18,15.8-8-7.78-8-7.78S46,24,57.66,21.58A14.07,14.07,0,0,1,70.4,25.11c3.13,3,5,7.36,4.15,11.52C73.61,41,68.06,41.05,66,39.28,66,39.28,69.22,29.49,63.5,27.36Z"/><path class="cls-1" d="M58,91c.23-2.06.79,5.34-1,14.3-.69,3.58-1.24,15.52-1.24,15.52H52l-1.13-10C49.69,100.69,49.25,91,49.25,91Z"/><path class="cls-1" d="M64.25,92.77l4.84,28h4.16c0-6.1.52-12.2,0-18.29-.06-.86-1.82-10.8-2-10.77Z"/><path class="cls-6" d="M50.67,63.71s-5,20.91-4,34.71c0,0,2.52,1.42,9.9,0s6.78,1.69,15.22.68C73,99,77.1,97.94,77.1,97.94c-.83-5.75-3.16-11.07-4.12-16.81-.73-4.36-1.43-8.93-3.81-12.84a43.36,43.36,0,0,0-3-4.21S56,66.62,50.67,63.71Z"/><path class="cls-1" d="M77.11,60.23l-7.4,9H66.1l-1.85,1.49s-2.39-.16-2.44-1.07,2.44-2.43,2.44-2.43l4.62-.61,3.46-6S74.44,57.64,77.11,60.23Z"/><path class="cls-7" d="M55.74,119.94l1.57,5.17-6.28.07-5.36,0c-1.53,0-2.67.27-2.53-1.5,2.65-1.21,6.13-2.5,8.77-3.74C51.91,120,54.1,121.16,55.74,119.94Z"/><path class="cls-7" d="M68.94,120.51l-1.75,7a.46.46,0,0,0,0,.38l1.9,3A.59.59,0,0,0,70,131l4.54-3.26a.5.5,0,0,0,.2-.5l-1.33-6.68a.56.56,0,0,0-.66-.39,7.41,7.41,0,0,1-3.11,0A.56.56,0,0,0,68.94,120.51Z"/><rect class="cls-8" x="82.88" y="49.59" width="1.41" height="75.29"/><path class="cls-8" d="M77,124.54a21.85,21.85,0,0,0,13,0l-6.35-4.3Z"/><path class="cls-8" d="M83.37,125.89a22.7,22.7,0,0,1-6.51-1l-.74-.22,7.47-4.84,7.19,4.87-.75.19A25.31,25.31,0,0,1,83.37,125.89Zm-5.57-1.47a21.13,21.13,0,0,0,11.29,0l-5.51-3.73Z"/><line class="cls-8" x1="86.88" y1="54.14" x2="80.94" y2="46.56"/><rect class="cls-8" x="82.85" y="45.54" width="2.12" height="9.62" transform="translate(-13.2 62.44) rotate(-38.06)"/><circle class="cls-9" cx="80.24" cy="45.54" r="2.2"/><circle class="cls-8" cx="88.6" cy="25.63" r="1.26"/><polygon class="cls-8" points="89.29 25.5 88.07 18.86 92.67 18.01 92.77 18.54 88.68 19.29 89.81 25.41 89.29 25.5"/><circle class="cls-8" cx="92.66" cy="24.89" r="1.26"/><polygon class="cls-8" points="93.4 24.75 92.22 18.36 92.74 18.27 93.92 24.65 93.4 24.75"/><rect class="cls-8" x="88.6" y="19.82" width="4.18" height="0.53" transform="translate(-2.14 16.73) rotate(-10.42)"/><circle class="cls-8" cx="80.64" cy="26.26" r="1.26"/><path class="cls-8" d="M81.63,26.27a.27.27,0,0,1-.26-.2L79.69,19.8a.26.26,0,0,1,.51-.14l1.68,6.27a.27.27,0,0,1-.18.33Z"/><circle class="cls-8" cx="80.7" cy="37.11" r="1.26"/><path class="cls-8" d="M81.67,37.67h-.08a.25.25,0,0,1-.17-.33l2.16-7,1.1,3.38a.28.28,0,0,1-.17.34.27.27,0,0,1-.33-.18l-.59-1.79-1.67,5.41A.26.26,0,0,1,81.67,37.67Z"/><circle class="cls-8" cx="90.42" cy="11.86" r="1.26"/><path class="cls-8" d="M91.41,11.89a.27.27,0,0,1-.26-.21l-1.7-7.12,2.67,2.35a.26.26,0,0,1,0,.37.27.27,0,0,1-.37,0L90.35,6.06l1.32,5.5a.27.27,0,0,1-.2.32Z"/></g></svg>