<svg width="1440" height="328" viewBox="0 0 1440 328" fill="none" xmlns="http://www.w3.org/2000/svg">
<path d="M1132.32 191.843C1126.55 187.767 1120.5 184.059 1115.09 179.585C1110.61 175.846 1107.57 175.478 1104.5 180.964C1102.94 183.247 1101.17 185.38 1099.22 187.338C1067.47 222.304 1036.06 257.516 1007.11 294.75C1001.18 302.319 995.105 309.827 988.503 316.876L978.279 328C974.625 328 974.625 324.935 974.196 322.698C973.828 319.648 973.725 316.572 973.888 313.505C973.888 269.805 973.888 226.104 973.888 182.404C973.888 175.754 974.932 168.767 971.432 162.485C963.971 159.818 956.08 160.922 948.681 161.32C927.772 162.454 906.893 161.32 885.984 161.964C884.341 162.199 882.671 161.796 881.317 160.838C879.963 159.88 879.029 158.44 878.707 156.815C877.337 154.088 876.813 151.015 877.203 147.989C879.391 143.109 880.044 137.68 879.076 132.422C878.462 127.457 876.527 123.657 870.632 123.504C867.939 123.236 865.245 124.008 863.104 125.661C860.963 127.314 859.537 129.722 859.118 132.391C858.908 133.398 858.825 134.428 858.873 135.455C858.626 139.65 858.626 143.856 858.873 148.051C859.008 147.591 859.172 147.141 859.364 146.702C857.829 141.86 862.158 140.573 864.676 137.938C870.479 141.401 865.72 144.373 864.277 147.53C862.833 150.686 862.803 154.639 860.746 157.735C858.136 161.841 853.96 161.78 849.877 161.81C835.354 161.81 820.831 162.086 806.339 161.81C803.708 161.432 801.027 161.968 798.746 163.33C796.464 164.692 794.722 166.795 793.812 169.288C788.193 181.791 780.978 193.498 775.144 205.878C773.701 209.403 770.753 209.464 767.56 209.433C754.358 209.433 741.155 209.433 727.983 209.433C712.355 208.882 696.758 210.751 681.129 210.199C678.128 210.583 675.079 210.215 672.256 209.127C668.695 206.399 668.387 202.17 667.466 198.278C667.197 196.392 666.43 194.612 665.242 193.12C664.055 191.628 662.491 190.478 660.712 189.79C657.641 187.583 658.409 184.611 659.238 181.669C660.129 179.06 660.857 176.399 661.418 173.701C661.786 170.636 661.418 168.154 658.347 166.989C657.305 166.586 656.165 166.498 655.073 166.738C653.981 166.978 652.984 167.535 652.207 168.338C649.474 170.973 650.948 173.793 652.207 176.551C653.588 180.565 656.045 184.427 653.742 188.809C649.781 190.862 645.114 192.211 645.145 198.003C643.886 201.833 645.483 207.809 639.802 208.453C632.434 209.249 624.451 212.222 617.849 205.388L599.274 169.135C596.787 163.588 593.993 158.164 591.137 152.831C588.282 147.499 587.207 147.652 584.352 153.015C579.255 162.638 575.601 172.935 570.965 182.802C560.833 204.254 551.13 226.104 541.06 247.679C540.469 249.503 539.38 251.126 537.916 252.366C536.451 253.606 534.669 254.413 532.77 254.696C507.777 254.972 482.784 255.033 457.822 254.696C452.971 254.145 451.282 250.406 449.624 246.606C435.316 214.98 420.763 183.63 406.148 152.372C405.545 150.417 404.259 148.742 402.525 147.652C393.13 169.809 382.629 191.199 373.449 213.172L353.645 256.075C349.316 255.401 350.359 251.846 349.899 249.119C348.302 239.159 349.377 229.169 349.715 219.148C350.344 216.185 349.817 213.094 348.241 210.506C345.754 208.33 342.745 209.556 339.982 209.249C319.687 208.636 299.453 210.169 279.188 210.169C275.596 210.169 271.912 210.414 270.223 206.246C269.363 201.128 265.894 197.053 264.451 192.149C266.631 189.422 269.21 187.001 268.719 182.956C268.227 178.911 266.846 175.478 261.841 175.785C256.836 176.091 254.196 178.022 254.319 183.293C254.757 186.539 255.56 189.726 256.713 192.793C256.763 196.643 256.172 200.475 254.963 204.132C253.674 208.82 250.972 210.261 245.752 209.74C234.576 208.82 223.308 209.495 211.978 209.433C202.982 209.433 202.982 209.433 202.399 200.056C202.655 185.556 202.02 171.054 200.495 156.631C196.442 152.341 191.284 154.885 186.617 154.456C175.687 154.088 164.756 155.406 153.887 153.659C152.658 153.112 151.588 152.263 150.777 151.191C149.966 150.119 149.441 148.859 149.251 147.53C148.88 145.72 148.116 144.014 147.012 142.532C145.909 141.049 144.493 139.826 142.864 138.949C142.147 137.755 141.769 136.388 141.769 134.996C141.769 133.603 142.147 132.237 142.864 131.043C143.218 130.363 143.516 129.656 143.755 128.928C144.277 126.262 145.444 123.289 142.527 121.359C141.764 120.867 140.867 120.624 139.96 120.662C139.052 120.701 138.179 121.019 137.461 121.573C135.004 123.626 136.632 126.201 137.246 128.591C138.167 132.023 139.794 135.455 137.43 138.949C135.514 139.639 133.846 140.881 132.638 142.517C131.43 144.154 130.736 146.112 130.644 148.143C130.685 149.536 130.357 150.915 129.694 152.141C129.031 153.368 128.057 154.399 126.868 155.13C97.2389 155.13 67.5792 157.765 37.9809 154.885C35.744 154.299 33.3712 154.527 31.2875 155.528C22.6291 155.528 13.94 155.528 5.25085 155.681C1.25938 155.681 -0.0301702 154.578 0.000533375 150.533C0.000533375 102.175 0.000533375 53.8163 0.000533375 5.45797C0.000533375 1.6273 0.952346 -0.39529 5.12804 0.06439C6.91789 0.156462 8.71131 0.156462 10.5012 0.06439H1429.07C1441.35 0.06439 1439.82 -1.52917 1439.82 11.158C1439.82 46.7985 1439.82 82.439 1440 118.08C1440 124.699 1438.68 127.059 1431.5 127.273C1382.19 128.284 1332.88 130.093 1283.57 128.346C1276.96 128.101 1274.78 129.541 1274.85 136.497C1275 152.494 1274.14 168.552 1273.68 184.549C1273.19 185.744 1272.42 187.032 1271.16 187.062C1262.29 187.338 1253.35 189.299 1244.63 185.928C1243.09 184.235 1242.15 182.08 1241.96 179.799C1241.07 173.272 1237.45 170.943 1230.94 171.31C1222.77 171.74 1222.77 171.31 1219.39 183.569C1217.77 187.154 1214.64 187.552 1211.17 187.522C1206.65 187.522 1202.11 187.522 1197.56 187.522C1192.5 187.522 1189.92 189.452 1191.21 194.907C1191.95 197.575 1191.95 200.392 1191.21 203.059C1191.21 207.932 1191.21 212.804 1191.21 217.677C1191.55 221.048 1193.48 225.461 1190.16 227.453C1186.85 229.445 1183.75 225.583 1180.8 223.806C1164.28 213.325 1148.56 202.232 1132.32 191.843Z" fill="#242422"/>
</svg>
