<svg id="Iconpack" xmlns="http://www.w3.org/2000/svg" viewBox="0 0 74.7 63.48"><defs><style>.cls-1{fill:#dadada;}.cls-2{fill:#edc9b1;}.cls-3{fill:#a7c7ea;}.cls-4{fill:#90abc8;}.cls-5{fill:#839cb6;}</style></defs><g id="Baby"><circle class="cls-1" cx="29.95" cy="20.93" r="1.55"/><path class="cls-1" d="M31.17,20.93a.33.33,0,0,1-.32-.25l-2.07-7.74a.32.32,0,0,1,.23-.4.33.33,0,0,1,.4.23l2.07,7.75a.32.32,0,0,1-.23.4Z"/><circle class="cls-1" cx="31.02" cy="34.31" r="1.55"/><path class="cls-1" d="M32.22,35h-.1a.33.33,0,0,1-.21-.41l2.67-8.65,1.36,4.18a.33.33,0,0,1-.21.41.32.32,0,0,1-.42-.21l-.71-2.21-2.07,6.67A.32.32,0,0,1,32.22,35Z"/><circle class="cls-1" cx="41.02" cy="12.14" r="1.55"/><path class="cls-1" d="M42.25,12.17a.33.33,0,0,1-.32-.25l-2.11-8.8L43.12,6a.33.33,0,0,1,0,.46.32.32,0,0,1-.46,0L40.94,5l1.63,6.79a.32.32,0,0,1-.25.39Z"/><path class="cls-2" d="M30.31,55.32s-3.15,3.88-9.17-.94-3.53-11-.42-12.91S31.27,39.05,34.08,46c1.21.3,1.42,2.47,1.84,4.16S30.31,55.32,30.31,55.32Z"/><path class="cls-3" d="M59.29,51.06c.4,3.34-5,6.43-11.45,7.89,4.37-8.4-3-14.8-4.64-16.11.72-.09,1.48-.18,2.3-.26C53.81,41.75,58.66,45.77,59.29,51.06Z"/><path class="cls-4" d="M38.22,42.22a.29.29,0,0,1,0,.09h-.07Z"/><path class="cls-3" d="M33.76,47.93s-1-4.53,2.77-4.48c2.39,0,2,1.7,2,1.7l-3.44,1.93Z"/><path class="cls-4" d="M48.17,59.14l-.22,0a34,34,0,0,1-11.71.61,36.92,36.92,0,0,1-13.31-4.2s11.93-6.09,13.4-12.3a57.57,57.57,0,0,0,6.81-.7l.26,0C45.13,43.92,52.67,50.5,48.17,59.14Z"/><path class="cls-5" d="M47.09,48a9.51,9.51,0,0,1,2.18,3.2,8.65,8.65,0,0,1,.54,2,6,6,0,0,1,0,1.12,5.11,5.11,0,0,1-.15,1.15l-.12.59-.18.57a5.27,5.27,0,0,1-1.18,2.14,5.25,5.25,0,0,1-1,.67,3.31,3.31,0,0,1-1.07.4,6.8,6.8,0,0,1-1.1.17,5.15,5.15,0,0,1-2.27-.55l-.14-.43a9,9,0,0,1,1-1.87,13.54,13.54,0,0,1,.84-1.3,1.61,1.61,0,0,1,.41-.45,1.7,1.7,0,0,1,.44-.35,2.17,2.17,0,0,0,.5-.33l.24-.2.17-.25a2.52,2.52,0,0,0,.31-.56,3,3,0,0,0,.22-.64,5.33,5.33,0,0,0,.25-1.48,11.75,11.75,0,0,0-.35-3.38Z"/><path class="cls-5" d="M42.25,43.63a4.43,4.43,0,0,1,1.48,2.43,6.62,6.62,0,0,1,.09,2.73,6.4,6.4,0,0,1-.39,1.29,8.08,8.08,0,0,1-.7,1.12A24.34,24.34,0,0,1,41,53.06a17.35,17.35,0,0,1-1.84,1.62c-.65.49-1.34.88-2,1.31s-1.39.72-2.1,1-1.44.56-2.16.81l-.23-.39c.54-.55,1.06-1.08,1.59-1.59l1.48-1.62a23.19,23.19,0,0,0,2.41-3.39A7.58,7.58,0,0,0,38.83,49a4.61,4.61,0,0,1,.31-.86,4.32,4.32,0,0,1,.41-.8c.62-1,1.32-2,2.27-3.61Z"/></g></svg>