<svg id="Iconpack" xmlns="http://www.w3.org/2000/svg" viewBox="0 0 99.87 130.23"><defs><style>.cls-1,.cls-2{fill:none;stroke-miterlimit:10;}.cls-1{stroke:#d1c4ac;stroke-width:1.5px;}.cls-2{stroke:#a79e8b;stroke-width:3px;}.cls-3{fill:#063;}.cls-4{fill:#7b4431;}</style></defs><g id="Gardenfence"><line class="cls-1" x1="9.18" y1="47.01" x2="66.17" y2="122.37"/><line class="cls-1" x1="9.18" y1="22.01" x2="88.31" y2="123.26"/><polyline class="cls-1" points="20.66 9.16 92.41 100.64 66.17 125.78"/><polyline class="cls-1" points="9.18 49.93 43.22 9.16 92.41 74.29 46.52 123.26 9.18 72.54 63.1 9.16 92.41 47.72 27.85 125.78"/><polyline class="cls-1" points="27.2 123.26 9.18 98.36 80.32 9.16 92.41 22.01 9.18 123.26"/><line class="cls-1" x1="27.85" y1="9.16" x2="9.18" y2="28.74"/><rect class="cls-2" x="9.18" y="9.16" width="83.23" height="114.1"/></g><g id="Flowerpot-4"><path class="cls-3" d="M66,117.34a26.88,26.88,0,0,1-.72-7.17,28.33,28.33,0,0,1,1.53-7.07,67.94,67.94,0,0,0,2-6.82,30.19,30.19,0,0,0,.59-7,34.68,34.68,0,0,0-.89-7c-.52-2.32-1.23-4.62-1.63-7A30.68,30.68,0,0,1,66.51,68c.15-2.41.46-4.79.83-7.15-.33,4.76-.71,9.59.34,14.22.52,2.32,1.19,4.61,1.76,7a34.9,34.9,0,0,1,1,7.2,30.88,30.88,0,0,1-.7,7.24,51.28,51.28,0,0,1-2.22,6.89,27.8,27.8,0,0,0-1.76,6.86A28.91,28.91,0,0,0,66,117.34Z"/><path class="cls-3" d="M67.51,78.19s-.76-3-4.86-5.16C62.65,73,64.17,81.18,67.51,78.19Z"/><path class="cls-3" d="M69.27,90.62s-.35-4.39-5.6-8.44C63.67,82.18,63.84,94,69.27,90.62Z"/><path class="cls-3" d="M67.16,71.55s.24-3,3.77-5.68C70.93,65.87,70.81,73.84,67.16,71.55Z"/><path class="cls-3" d="M70.18,95.42s.27-3.46,4.4-6.64C74.58,88.78,74.45,98.09,70.18,95.42Z"/><path class="cls-3" d="M70.3,85.41s-.38-3.87,3.54-8.2C73.84,77.21,75.54,87.51,70.3,85.41Z"/><polygon class="cls-4" points="57.79 122.45 51.05 98.08 85.75 97.29 80.66 122.45 57.79 122.45"/></g><g id="Flowerpot-3"><path class="cls-3" d="M28.48,118.34a26.48,26.48,0,0,1-.72-7.17,28.32,28.32,0,0,1,1.52-7.07,65.5,65.5,0,0,0,2.06-6.82,29.65,29.65,0,0,0,.58-7,33.32,33.32,0,0,0-.89-7c-.52-2.32-1.22-4.62-1.63-7A31.23,31.23,0,0,1,29,69c.15-2.41.46-4.79.84-7.15-.33,4.76-.72,9.59.34,14.22.51,2.32,1.18,4.61,1.76,7a34.22,34.22,0,0,1,1,7.2,30.87,30.87,0,0,1-.69,7.24A51.28,51.28,0,0,1,30,104.35a28.27,28.27,0,0,0-1.77,6.86A29.41,29.41,0,0,0,28.48,118.34Z"/><path class="cls-3" d="M30,79.19s-.76-3-4.87-5.16C25.12,74,26.65,82.18,30,79.19Z"/><path class="cls-3" d="M31.75,91.62s-.35-4.39-5.61-8.44C26.14,83.18,26.32,95,31.75,91.62Z"/><path class="cls-3" d="M29.64,72.55s.23-3,3.77-5.68C33.41,66.87,33.29,74.84,29.64,72.55Z"/><path class="cls-3" d="M32.65,96.42s.28-3.46,4.41-6.64C37.06,89.78,36.92,99.09,32.65,96.42Z"/><path class="cls-3" d="M32.77,86.41s-.38-3.87,3.55-8.2C36.32,78.21,38,88.51,32.77,86.41Z"/><polygon class="cls-4" points="20.27 123.45 13.53 99.08 48.23 98.29 43.13 123.45 20.27 123.45"/></g></svg>