<svg id="Iconpack" xmlns="http://www.w3.org/2000/svg" viewBox="0 0 104.62 104.62"><defs><style>.cls-1{fill:#f8ba94;}.cls-2{fill:#6e6158;}.cls-3{fill:#679090;}.cls-4{fill:#54463c;}.cls-5{fill:#e9af8c;}.cls-6{fill:#fbe5b1;}</style></defs><g id="Boy_on_edge" data-name="Boy on edge"><polygon class="cls-1" points="49.08 84.55 50.14 89.19 53.71 89.4 53.28 84.55 49.08 84.55"/><polygon class="cls-1" points="34.95 84.55 36.02 89.19 39.59 89.4 39.16 84.55 34.95 84.55"/><path class="cls-2" d="M42.66,56.46v3L31.29,70.56,35,87.13h4.88l-.38-14.58,7.49-3S58.34,66.36,58.34,66s-1.55-8.61-1.55-8.61Z"/><path class="cls-2" d="M56.75,56.46l-5.27,3-6.68,10,4.32,17.71H54L53,71l10.2-3.58s.62-7.2.62-7.58a18.19,18.19,0,0,0-.77-2.43Z"/><path class="cls-1" d="M45,45.54,38.3,51.77l1.21,8.58,3.77,1.54L45,64l-1.32,1.37-4.12-.43s-1.58-2.42-2.11-3c-.39-.4-6-10.06-6-10.06L43.1,40.47Z"/><path class="cls-1" d="M61.53,44.8l7.79,7.34L66.57,59.9l-4,1.63-1.83,2.23,1.42,1.47,4.4-.46s1.68-2.59,2.25-3.19c.41-.43,6.38-9.77,6.38-9.77L64,40.47Z"/><path class="cls-3" d="M63.54,47.58c.4,4.67.5,12.78.5,12.78H41.47S43,46.23,43.16,45a14,14,0,0,1-1.69-3.42l4.27-5,5.42-.9,6-.39,5.13,2.27,3.9,4.67L64.4,48.15Z"/><path class="cls-4" d="M35.15,88.9,31.48,95c-.91,1.53-.45,3.09.16,2.94s10.61-5,10.61-5l-2.11-4.47s-1.51.85-1.89.35a4.55,4.55,0,0,1-.52-1.67Z"/><path class="cls-5" d="M56.69,30.13v1.81c0,.83-.43,2.13.09,2.86a2.76,2.76,0,0,0,.55.53l1.29,1.05c-.78.35-1.48,1.15-2.27,1.42l-4.88,1.41c-.21.06-1.36-1.06-1.53-1.2l-1.58-1.23c.46-.43.93-.83,1.4-1.24a1.79,1.79,0,0,0,.41-.46,5.45,5.45,0,0,0,.06-2c0-.52,0-1,0-1.55Z"/><path class="cls-4" d="M48.75,88.26l-4.4,5.61c-1.1,1.4-.83,3-.21,2.93S55.3,93.14,55.3,93.14l-1.54-4.7s-1.61.66-1.92.11a4.63,4.63,0,0,1-.31-1.72Z"/><path class="cls-1" d="M56.71,33.07s6.7-1.53,5.17-14.92c.4-2.68-3.89-4-6-3.6-5.52,1-8.37,1.36-8.9,5.33-.29,2.13-4.6,10.79,3.32,13.61A14.28,14.28,0,0,0,56.71,33.07Z"/><path class="cls-6" d="M45.51,22.44c.28,0,2-.52,2.29-1.13s.53-1.08.79-1.61a.26.26,0,0,1,.15-.14l2.36-1c.17-.07.29,0,.41.08l2.13.93,1.41.62a1.81,1.81,0,0,0,.57.06c.9.07,1.79.12,2.69.17l.81.06a.25.25,0,0,1,.21.1q.78,1,1.59,1.92a.46.46,0,0,1,.11.32c0,.94.26-.42.25.52,0,.36-.36,3-.34,3.38.07,0,.1,0,.14-.09l.42-.5a.18.18,0,0,1,.27,0c.2.14.42.28.63.4a2.55,2.55,0,0,1,.3.26c-.11-.45.32-3.21.33-3.67s0-.79,0-1.19.06-1,.08-1.54,0-.76.06-1.14,0-.58,0-.88a.2.2,0,0,0,0-.15c-.24-.44-.49-.88-.73-1.33s-.45-.86-.69-1.29-.5-.94-.76-1.4c-.05-.1-.11-.11-.18,0a4.45,4.45,0,0,1-.49.48.17.17,0,0,1-.25,0L59.21,14c-.22-.15-.44-.3-.65-.46s-.16-.07-.23,0A3.68,3.68,0,0,0,58,14c-.07.12-.17.15-.27.08l-1.18-.8c-.56-.38-1.13-.76-1.71-1.13-.39-.25-.79-.51-1.17-.78-.13-.09-.21-.06-.3.07-.2.3-.42.59-.62.9a.15.15,0,0,1-.22,0l-1.13-.55L51,11.62s-.08,0-.12,0,0,.07,0,.12c.14.43.19.88.31,1.31,0,.13,0,.2-.16.15a12.12,12.12,0,0,0-1.22-.32l-1.54-.38-.08,0c-.06,0-.14,0-.18,0s0,.13,0,.19c.23.56.47,1.13.7,1.7.07.15,0,.28-.1.4-.5,1-1,2-1.52,2.93-.23.45-.45.9-.67,1.35S45.7,22.09,45.51,22.44Z"/></g></svg>