<svg id="Iconpack" xmlns="http://www.w3.org/2000/svg" viewBox="0 0 40.38 40.57"><defs><style>.cls-1{fill:#87756a;}.cls-2{fill:#9a8479;}.cls-3{fill:#608a8a;}.cls-4{fill:#d0d2d3;}</style></defs><g id="back-guy"><polygon class="cls-1" points="15.48 23.7 14.18 17.88 20.43 17.88 21.73 23.7 15.48 23.7"/><path class="cls-2" d="M10.88,9.74a29,29,0,0,0,1.72,7,11.6,11.6,0,0,0,3.63,4.81c1.39,1,3.42-1.44,4.29-2.37,2.07-2.24,2.75-5.35,3.1-8.29a8.12,8.12,0,0,0,0-2.36c-.35-1.88-2.09-3.27-3.8-3.94-2.32-.9-5.77-1.47-7.65.58A5.64,5.64,0,0,0,10.88,9.74Z"/><polygon class="cls-3" points="5.84 39.31 4.56 22.87 30.22 22.87 36.42 39.19 5.84 39.31"/><path class="cls-4" d="M11.68,13.92A20,20,0,0,1,9.87,5c.22-4.93,10.56-3.5,10.56-3.5s7,2.78,2.91,11.32l-.75-5.19-9.92.68Z"/></g></svg>