<svg id="Iconpack" xmlns="http://www.w3.org/2000/svg" viewBox="0 0 41.48 72.45"><defs><style>.cls-1{fill:#063;}.cls-2{fill:#7b4431;}</style></defs><g id="Flowerpot-4"><path class="cls-1" d="M18.34,63.25a26.85,26.85,0,0,1-.72-7.16A28.51,28.51,0,0,1,19.15,49a66.4,66.4,0,0,0,2.05-6.82,30.14,30.14,0,0,0,.59-7,33.91,33.91,0,0,0-.9-7c-.51-2.32-1.22-4.62-1.62-7a30.77,30.77,0,0,1-.42-7.23c.15-2.4.46-4.78.83-7.15C19.35,11.53,19,16.36,20,21c.52,2.31,1.19,4.61,1.76,7a34.22,34.22,0,0,1,1,7.2,30.87,30.87,0,0,1-.69,7.24,50.68,50.68,0,0,1-2.22,6.88,28,28,0,0,0-1.76,6.87A28.81,28.81,0,0,0,18.34,63.25Z"/><path class="cls-1" d="M19.85,24.11s-.76-3-4.86-5.16C15,19,16.51,27.1,19.85,24.11Z"/><path class="cls-1" d="M21.61,36.54s-.35-4.4-5.6-8.44C16,28.1,16.18,39.94,21.61,36.54Z"/><path class="cls-1" d="M19.5,17.47s.24-3,3.77-5.68C23.27,11.79,23.15,19.76,19.5,17.47Z"/><path class="cls-1" d="M22.52,41.33s.27-3.45,4.4-6.63C26.92,34.7,26.79,44,22.52,41.33Z"/><path class="cls-1" d="M22.64,31.32s-.38-3.86,3.54-8.19C26.18,23.13,27.88,33.43,22.64,31.32Z"/><polygon class="cls-2" points="10.13 68.36 3.39 44 38.09 43.21 32.99 68.36 10.13 68.36"/></g></svg>