<svg id="Iconpack" xmlns="http://www.w3.org/2000/svg" viewBox="0 0 74.7 63.48"><defs><style>.cls-1{fill:#fbe5b1;}.cls-2{fill:#d4ab8e;}.cls-3{fill:#a69a84;}.cls-4{fill:#bfb197;}.cls-5{fill:#888171;}</style></defs><g id="Chimnay-bold-girl"><path class="cls-1" d="M53.78,20.94c0-12.13-3.3-23.14-16.43-17.61,0,0-10.4-2.27-14.91,8.27a27,27,0,0,0-1.7,9.34Z"/><path class="cls-2" d="M45.23,20.94a32,32,0,0,0,1.09-5.34,10.14,10.14,0,0,0,.07-3C46,10.17,43.85,8.36,41.7,7.46c-2.91-1.22-7.26-2-9.68.53a7.28,7.28,0,0,0-1.76,5.81,48.31,48.31,0,0,0,1.35,7.14Z"/><path class="cls-1" d="M30.2,20.88c3.9-4.2,8.86-14.26,8.86-14.26C38.5,2,29.91,7.09,28,6.39c-1.46-.53-3.06,10.32-1.83,14.55Z"/><path class="cls-1" d="M48.43,18.06S34.54,8.41,37.57,6.32s9,2,9,2L50.1,18.1Z"/><rect class="cls-3" x="13.37" y="31.41" width="48.76" height="30.2"/><rect class="cls-4" x="7.2" y="20.44" width="60.64" height="22.06"/><rect class="cls-5" x="36.11" y="19.76" width="3.29" height="48.76" transform="translate(81.9 6.39) rotate(90)"/></g></svg>