<svg id="Iconpack" xmlns="http://www.w3.org/2000/svg" viewBox="0 0 74.7 63.48"><defs><style>.cls-1{fill:#679090;}.cls-2{fill:#4f6261;}</style></defs><g id="Bird-2"><ellipse class="cls-1" cx="54.65" cy="23.29" rx="10.06" ry="8.26" transform="translate(9.99 62.46) rotate(-64.34)"/><path class="cls-2" d="M68.5,24.39c-3.31-4.79-5.86-5.18-5.86-5.18l-3.55,3s5.68-.36,9.15,2.45A.18.18,0,0,0,68.5,24.39Z"/><polygon class="cls-1" points="57.12 13.74 42.38 9.05 55.55 15.89 45.36 12.24 54.52 17 47.28 14.49 52.68 17.29 48.67 16.38 53.82 19.05 56.58 18.3 58.91 14.67 57.12 13.74"/><path class="cls-1" d="M53.83,19.35a.4.4,0,0,1-.15,0l-5.15-2.68a.31.31,0,0,1-.14-.37.28.28,0,0,1,.34-.18l1.75.4-3.33-1.74a.29.29,0,0,1,.23-.54l3.37,1.17L45.22,12.5a.28.28,0,0,1-.13-.38.3.3,0,0,1,.37-.16l6,2.17L42.24,9.32a.3.3,0,0,1-.14-.38.3.3,0,0,1,.37-.17l14.74,4.69,0,0,1.79.93a.32.32,0,0,1,.15.19.29.29,0,0,1,0,.24l-2.33,3.62a.34.34,0,0,1-.18.13l-2.75.75Zm-3-2.17,3,1.55L56.39,18l2.09-3.25L57,14,45.6,10.39l10.09,5.24a.28.28,0,0,1,.13.38.28.28,0,0,1-.37.16l-6-2.16,5.25,2.72a.31.31,0,0,1,.14.39.31.31,0,0,1-.37.16l-3.38-1.17,1.77.92a.29.29,0,0,1,.14.36.31.31,0,0,1-.35.19Z"/><polygon class="cls-1" points="49.31 18.91 5.64 40.33 32.72 36.33 51.43 25.79 49.31 18.91"/><path class="cls-1" d="M5.65,40.63a.3.3,0,0,1-.14-.57L49.18,18.65a.31.31,0,0,1,.25,0,.3.3,0,0,1,.17.18l2.12,6.88a.29.29,0,0,1-.14.34L32.87,36.59l-.1,0-27.09,4Zm43.48-21.3L7.48,39.76l25.15-3.71L51.08,25.64Z"/><path class="cls-2" d="M51.62,52.56l-5.45.16a.74.74,0,0,1-.54-.23l-4-4.25a.72.72,0,0,1-.17-.66l1.7-7a.71.71,0,1,1,1.39.33l-1.62,6.65,3.51,3.73,5.13-.14a.71.71,0,0,1,0,1.42Z"/><path class="cls-2" d="M46.17,52.72a.75.75,0,0,1-.67-.41.72.72,0,0,1,.35-1l4.41-2.06a.71.71,0,0,1,.6,1.29l-4.41,2.06A1,1,0,0,1,46.17,52.72Z"/><path class="cls-2" d="M54.88,51.5l-5.45.16a.74.74,0,0,1-.54-.23l-4-4.25a.72.72,0,0,1-.17-.66l1.71-7a.71.71,0,0,1,.85-.53.72.72,0,0,1,.53.86l-1.61,6.65,3.5,3.73,5.13-.14a.71.71,0,1,1,0,1.42Z"/><path class="cls-2" d="M49.43,51.66a.73.73,0,0,1-.66-.41.71.71,0,0,1,.34-1l4.41-2.06a.71.71,0,0,1,.95.34.72.72,0,0,1-.35,1l-4.41,2.06A.89.89,0,0,1,49.43,51.66Z"/><ellipse class="cls-1" cx="45.61" cy="32.71" rx="18.8" ry="10.24" transform="translate(-7.18 13.64) rotate(-15.79)"/></g></svg>