<svg id="Iconpack" xmlns="http://www.w3.org/2000/svg" viewBox="0 0 74.7 63.48"><defs><style>.cls-1{fill:#679090;}.cls-2{fill:#4f6261;}.cls-3{fill:none;stroke:#35322f;stroke-miterlimit:10;}.cls-4{fill:#ffe09a;}.cls-5{fill:#12100b;}</style></defs><g id="Boombox"><path class="cls-1" d="M67.59,54.81H17.36V54.4c0-11-.5-20,10.53-20H57.05c11,0,10.54,8.94,10.54,20Z"/><path class="cls-2" d="M54.1,34.42l-.57-5c0-2.42-1.4-4.2-3.82-4.2H35.43a3.92,3.92,0,0,0-4,4.2l-.57,5h2.58V31.33a4.38,4.38,0,0,1,4.39-4.39h9.49a4.39,4.39,0,0,1,4.39,4.39v3.09Z"/><circle class="cls-2" cx="27.45" cy="44.89" r="8.23"/><circle class="cls-2" cx="57.3" cy="44.89" r="8.23"/><line class="cls-3" x1="36.11" y1="40.47" x2="48.64" y2="40.47"/><rect class="cls-4" x="36.11" y="36.53" width="12.52" height="1.83"/><circle class="cls-4" cx="46.24" cy="43.57" r="0.86"/><circle class="cls-4" cx="42.38" cy="43.57" r="0.86"/><circle class="cls-4" cx="38.52" cy="43.57" r="0.86"/><path class="cls-2" d="M37.12,49.07a8.32,8.32,0,0,1-3.44,4.06H50.91s-2.86-1.4-3.64-3.82a3.32,3.32,0,0,0-3.19-2.25H40.13A3.24,3.24,0,0,0,37.12,49.07Z"/><circle class="cls-5" cx="8.58" cy="22.34" r="1.91"/><path class="cls-5" d="M10.07,22.46a.43.43,0,0,1-.37-.33l-1.81-9.7A.41.41,0,0,1,8.21,12a.4.4,0,0,1,.47.32L10.5,22a.41.41,0,0,1-.33.47Z"/><circle class="cls-5" cx="18.79" cy="28.94" r="1.91"/><path class="cls-5" d="M20.27,29.81a.25.25,0,0,1-.12,0,.39.39,0,0,1-.26-.5l3.36-10.63,1.63,5.16a.39.39,0,0,1-.26.5.41.41,0,0,1-.51-.26l-.86-2.73-2.6,8.2A.4.4,0,0,1,20.27,29.81Z"/><circle class="cls-5" cx="13.65" cy="43.1" r="1.91"/><path class="cls-5" d="M15.14,42.91a.4.4,0,0,1-.43-.24L10.49,32.36l4.56,2.91a.4.4,0,0,1-.43.68L12.2,34.4l3.26,8a.42.42,0,0,1-.22.53Z"/></g></svg>