<svg id="Iconpack" xmlns="http://www.w3.org/2000/svg" viewBox="0 0 74.7 63.48"><defs><style>.cls-1{fill:#7b4431;}.cls-2{fill:#633123;}</style></defs><g id="Bird-1"><ellipse class="cls-1" cx="18.06" cy="25.62" rx="9.05" ry="11.03" transform="translate(-9.31 10.35) rotate(-25.66)"/><path class="cls-2" d="M2.87,26.82c3.63-5.25,6.42-5.67,6.42-5.67l3.9,3.26S7,24,3.16,27.09A.2.2,0,0,1,2.87,26.82Z"/><polygon class="cls-1" points="15.35 15.16 31.5 10.02 17.07 17.51 28.24 13.51 18.19 18.72 26.13 15.97 20.21 19.04 24.61 18.04 18.96 20.98 15.94 20.15 13.38 16.18 15.35 15.16"/><path class="cls-1" d="M18.88,21.29l-3-.83a.3.3,0,0,1-.19-.14l-2.56-4a.32.32,0,0,1,.12-.46l2-1,.06,0L31.41,9.71a.31.31,0,0,1,.4.18.34.34,0,0,1-.15.42L21.51,15.58l6.62-2.38a.33.33,0,0,1,.26.6L22.32,17,26,15.66a.34.34,0,0,1,.41.18.33.33,0,0,1-.15.42l-3.66,1.9,1.92-.44a.33.33,0,0,1,.38.21.32.32,0,0,1-.16.4l-5.65,2.93a.29.29,0,0,1-.16,0Zm1.41-1.93a.32.32,0,0,1-.38-.2.34.34,0,0,1,.15-.41l1.94-1L18.3,19a.33.33,0,0,1-.41-.18.34.34,0,0,1,.15-.42l5.76-3-6.62,2.37a.33.33,0,0,1-.41-.18.32.32,0,0,1,.15-.42L28,11.48l-12.51,4-1.62.84,2.3,3.57,2.78.76,3.28-1.71Z"/><polygon class="cls-1" points="23.9 20.82 71.78 44.3 42.09 39.91 21.58 28.36 23.9 20.82"/><path class="cls-1" d="M71.73,44.62,42,40.24l-.11,0L21.42,28.64a.34.34,0,0,1-.15-.38l2.32-7.53a.32.32,0,0,1,.46-.2L71.92,44a.34.34,0,0,1,.17.39.32.32,0,0,1-.32.22ZM22,28.2,42.2,39.6l27.55,4.07L24.1,21.28Z"/><path class="cls-2" d="M21.38,57.71l6,.16a.77.77,0,0,0,.59-.24L32.31,53a.8.8,0,0,0,.19-.72l-1.86-7.69a.78.78,0,1,0-1.52.37l1.77,7.28L27,56.3l-5.62-.15a.78.78,0,0,0,0,1.56Z"/><path class="cls-2" d="M27.35,57.87a.78.78,0,0,0,.35-1.48l-4.83-2.26a.77.77,0,0,0-1,.37.79.79,0,0,0,.38,1L27,57.8A.7.7,0,0,0,27.35,57.87Z"/><path class="cls-2" d="M17.8,56.55l6,.16a.76.76,0,0,0,.59-.24l4.38-4.67a.77.77,0,0,0,.19-.71L27.06,43.4a.78.78,0,1,0-1.52.36l1.77,7.29-3.84,4.09L17.85,55a.78.78,0,1,0-.05,1.56Z"/><path class="cls-2" d="M23.77,56.71a.78.78,0,0,0,.36-1.48L19.29,53a.76.76,0,0,0-1,.37.77.77,0,0,0,.37,1l4.83,2.26A.7.7,0,0,0,23.77,56.71Z"/><ellipse class="cls-1" cx="27.96" cy="35.95" rx="11.22" ry="20.6" transform="matrix(0.27, -0.96, 0.96, 0.27, -14.24, 53.07)"/></g></svg>