<svg id="Iconpack" xmlns="http://www.w3.org/2000/svg" viewBox="0 0 202.84 196.23"><defs><style>.cls-1{fill:#6e6f70;}.cls-2{fill:#8c5848;}.cls-3{fill:#774030;}.cls-4{fill:#8baabe;}.cls-4,.cls-5{stroke:#d0d2d3;stroke-miterlimit:10;stroke-width:0.61px;}.cls-5{fill:none;}.cls-6{fill:#2d231f;}.cls-7{fill:#546451;}.cls-8{fill:#4a5847;}.cls-9{fill:#5f6f5a;}.cls-10{fill:#808284;}.cls-11{fill:#48321b;}.cls-12{fill:#0a0404;}</style></defs><g id="Brown-building-left"><path class="cls-1" d="M16,73.68,8.41,62.79h8.11L16.4,73.57A.21.21,0,0,1,16,73.68Z"/><rect class="cls-2" x="97.56" y="59.6" width="82.41" height="133.68" transform="translate(277.54 252.87) rotate(-180)"/><path class="cls-3" d="M132.4,94.32c0-10-5-14-11.45-14h-4c-6.41,0-11.6,4.06-11.64,13.94h0v.11h0v31.49H132.4V94.32h0Z"/><rect class="cls-4" x="106.19" y="115.33" width="25.22" height="8.41"/><rect class="cls-4" x="106.19" y="94.59" width="25.01" height="29.14"/><path class="cls-4" d="M106.19,94.69h0c0-9.19,4.81-13,10.73-13h3.73c5.92,0,10.73,3.76,10.73,13h0"/><line class="cls-5" x1="118.79" y1="81.74" x2="118.79" y2="123.74"/><line class="cls-5" x1="106.23" y1="94.69" x2="131.41" y2="94.69"/><polyline class="cls-5" points="131.38 94.69 131.38 123.73 106.19 123.73 106.19 94.69"/><path class="cls-3" d="M165,94.32c0-10-5-14-11.44-14h-4c-6.4,0-11.6,4.06-11.63,13.94h0v.11h0v31.49H165V94.32h0Z"/><rect class="cls-4" x="138.96" y="115.33" width="25.22" height="8.41"/><rect class="cls-4" x="138.96" y="94.59" width="25.01" height="29.14"/><path class="cls-4" d="M139,94.69h0c0-9.19,4.8-13,10.73-13h3.72c5.93,0,10.73,3.76,10.73,13h0"/><line class="cls-5" x1="151.55" y1="81.74" x2="151.55" y2="123.74"/><line class="cls-5" x1="138.99" y1="94.69" x2="164.18" y2="94.69"/><polyline class="cls-5" points="164.14 94.69 164.14 123.73 138.96 123.73 138.96 94.69"/><path class="cls-1" d="M180.22,72.79l7.6-10.88h-8.11l.12,10.77A.21.21,0,0,0,180.22,72.79Z"/><polygon class="cls-6" points="133.47 6.54 97.56 6.54 97.56 61.91 188.26 61.91 133.47 6.54"/><path class="cls-7" d="M158,56.67c-5.36-.24-17-17.78-17-17.78h24.45l25.1,17.79H158"/><path class="cls-8" d="M199,40.67l-8.27,15.42-33.37.59s-2.55-.29-2.72-1.57,4.09,6.56,15.35-14.44Z"/><path class="cls-9" d="M198.55,41.26l-8.26,15.42H157.78c2.51.12,6.48-3.74,12.73-15.41Z"/><path class="cls-10" d="M104.23,56.51h85.89a0,0,0,0,1,0,0V63.8a0,0,0,0,1,0,0H97.56a0,0,0,0,1,0,0v-.62A6.66,6.66,0,0,1,104.23,56.51Z" transform="translate(287.67 120.31) rotate(180)"/><rect class="cls-3" x="97.56" y="63.84" width="82.41" height="1.94"/><polygon class="cls-6" points="61.66 6.54 97.56 6.54 97.56 61.91 6.87 61.91 61.66 6.54"/><rect class="cls-2" x="15.55" y="59.6" width="82.41" height="133.68"/><path class="cls-3" d="M63.12,94.32c0-10,5-14,11.45-14h4c6.41,0,11.6,4.06,11.64,13.94h0v.11h0v31.49H63.12V94.32h0Z"/><rect class="cls-4" x="64.11" y="115.33" width="25.22" height="8.41" transform="translate(153.44 239.06) rotate(-180)"/><rect class="cls-4" x="64.32" y="94.59" width="25.01" height="29.14" transform="translate(153.65 218.33) rotate(-180)"/><path class="cls-4" d="M89.33,94.69h0c0-9.19-4.81-13-10.73-13H74.87c-5.92,0-10.73,3.76-10.73,13h0"/><line class="cls-5" x1="76.74" y1="81.74" x2="76.74" y2="123.74"/><line class="cls-5" x1="89.29" y1="94.69" x2="64.11" y2="94.69"/><polyline class="cls-5" points="64.14 94.69 64.14 123.73 89.33 123.73 89.33 94.69"/><path class="cls-3" d="M30.49,94.32c0-10,5-14,11.44-14h4c6.4,0,11.6,4.06,11.64,13.94h0v.11h0v31.49H30.49V94.32h0Z"/><rect class="cls-4" x="31.34" y="115.33" width="25.22" height="8.41" transform="translate(87.91 239.06) rotate(-180)"/><rect class="cls-4" x="31.55" y="94.59" width="25.01" height="29.14" transform="translate(88.11 218.33) rotate(-180)"/><path class="cls-4" d="M56.56,94.69h0c0-9.19-4.8-13-10.73-13H42.11c-5.93,0-10.73,3.76-10.73,13h0"/><line class="cls-5" x1="43.97" y1="81.74" x2="43.97" y2="123.74"/><line class="cls-5" x1="56.53" y1="94.69" x2="31.34" y2="94.69"/><polyline class="cls-5" points="31.38 94.69 31.38 123.73 56.56 123.73 56.56 94.69"/><path class="cls-3" d="M132.4,158.51c0-10-5-14-11.45-14h-4c-6.41,0-11.6,4.05-11.64,13.94h0v.1h0V190H132.4v-31.5h0Z"/><rect class="cls-4" x="106.19" y="179.52" width="25.22" height="8.41"/><rect class="cls-4" x="106.19" y="158.78" width="25.01" height="29.14"/><path class="cls-4" d="M106.19,158.88h0c0-9.19,4.81-12.95,10.73-12.95h3.73c5.92,0,10.73,3.76,10.73,12.95h0"/><line class="cls-5" x1="118.79" y1="145.93" x2="118.79" y2="187.93"/><line class="cls-5" x1="106.23" y1="158.88" x2="131.41" y2="158.88"/><polyline class="cls-5" points="131.38 158.88 131.38 187.93 106.19 187.93 106.19 158.88"/><path class="cls-3" d="M165,158.51c0-10-5-14-11.44-14h-4c-6.4,0-11.6,4.05-11.63,13.94h0v.1h0V190H165v-31.5h0Z"/><rect class="cls-4" x="138.96" y="179.52" width="25.22" height="8.41"/><rect class="cls-4" x="138.96" y="158.78" width="25.01" height="29.14"/><path class="cls-4" d="M139,158.88h0c0-9.19,4.8-12.95,10.73-12.95h3.72c5.93,0,10.73,3.76,10.73,12.95h0"/><line class="cls-5" x1="151.55" y1="145.93" x2="151.55" y2="187.93"/><line class="cls-5" x1="138.99" y1="158.88" x2="164.18" y2="158.88"/><polyline class="cls-5" points="164.14 158.88 164.14 187.93 138.96 187.93 138.96 158.88"/><path class="cls-3" d="M63.12,158.51c0-10,5-14,11.45-14h4c6.41,0,11.6,4.05,11.64,13.94h0v.1h0V190H63.12v-31.5h0Z"/><rect class="cls-4" x="64.11" y="179.52" width="25.22" height="8.41" transform="translate(153.44 367.45) rotate(-180)"/><rect class="cls-4" x="64.32" y="158.78" width="25.01" height="29.14" transform="translate(153.65 346.71) rotate(-180)"/><path class="cls-4" d="M89.33,158.88h0c0-9.19-4.81-12.95-10.73-12.95H74.87c-5.92,0-10.73,3.76-10.73,12.95h0"/><line class="cls-5" x1="76.74" y1="145.93" x2="76.74" y2="187.93"/><line class="cls-5" x1="89.29" y1="158.88" x2="64.11" y2="158.88"/><polyline class="cls-5" points="64.14 158.88 64.14 187.93 89.33 187.93 89.33 158.88"/><path class="cls-3" d="M30.49,158.51c0-10,5-14,11.44-14h4c6.4,0,11.6,4.05,11.64,13.94h0v.1h0V190H30.49v-31.5h0Z"/><rect class="cls-4" x="31.34" y="179.52" width="25.22" height="8.41" transform="translate(87.91 367.45) rotate(-180)"/><rect class="cls-4" x="31.55" y="158.78" width="25.01" height="29.14" transform="translate(88.11 346.71) rotate(-180)"/><path class="cls-4" d="M56.56,158.88h0c0-9.19-4.8-12.95-10.73-12.95H42.11c-5.93,0-10.73,3.76-10.73,12.95h0"/><line class="cls-5" x1="43.97" y1="145.93" x2="43.97" y2="187.93"/><line class="cls-5" x1="56.53" y1="158.88" x2="31.34" y2="158.88"/><polyline class="cls-5" points="31.38 158.88 31.38 187.93 56.56 187.93 56.56 158.88"/><path class="cls-10" d="M5.41,56.51H98a0,0,0,0,1,0,0V63.8a0,0,0,0,1,0,0H12.07a6.66,6.66,0,0,1-6.66-6.66v-.62a0,0,0,0,1,0,0Z"/><rect class="cls-3" x="15.55" y="63.84" width="82.41" height="1.94" transform="translate(113.51 129.63) rotate(-180)"/></g><path class="cls-11" d="M41.48,19.91a10.25,10.25,0,0,0,.31-1.71,4,4,0,0,0,0-1.14A2.78,2.78,0,0,0,40,15.16c-1.11-.43-2.75-.71-3.65.28a2.75,2.75,0,0,0-.61,2.21,19.6,19.6,0,0,0,.44,2.26Z"/><path class="cls-12" d="M36.11,19.66a9.82,9.82,0,0,1-.87-4.32c.11-2.37,4.46-1.69,4.46-1.69s3.92,1.35,2,5.46l-.36-2.5-4.72.33Z"/><polyline class="cls-2" points="46.09 29.23 46.09 23.11 31.49 23.11 31.49 35.41 31.5 44.36"/><rect class="cls-10" x="29.65" y="19.64" width="18.15" height="4.99"/><rect class="cls-3" x="31.49" y="24.63" width="14.6" height="0.98"/></svg>