<svg id="Iconpack" xmlns="http://www.w3.org/2000/svg" viewBox="0 0 104.62 104.62"><defs><style>.cls-1{fill:#f1d0ba;}.cls-2{fill:#bcc58a;}.cls-3{fill:#f6ab7d;}.cls-4{fill:#703623;}.cls-5{fill:#e3c5af;}.cls-6{fill:#b25c35;}</style></defs><g id="Girl_on_edge" data-name="Girl on edge"><polygon class="cls-1" points="51.33 84.07 49.67 88.4 46.27 87.3 48.43 82.94 51.33 84.07"/><polygon class="cls-1" points="71.17 75.74 73.5 79.88 71 82.44 68.06 78.57 71.17 75.74"/><path class="cls-2" d="M43.78,61.46l5.27,3L61.18,73,51.41,85.67H46.53L53,74.57l-15.63-2.2s-.62-7.2-.62-7.58a18.19,18.19,0,0,1,.77-2.43Z"/><path class="cls-1" d="M39.91,50.54l-6.64,6.23,1.2,8.58,3.77,1.54L40,69l-1.33,1.37-4.12-.43s-1.57-2.42-2.11-3c-.38-.4-6-10.06-6-10.06l11.64-11.4Z"/><path class="cls-1" d="M55.83,42.32l10.71,4,6.14-5.49,0-4.34L74,33.91l1.9.75,1.24,4.25s-1.76,2.53-2.1,3.29c-.24.54-6.63,9.61-6.63,9.61l-14.5-6.2Z"/><path class="cls-3" d="M57.7,55c.4,4.67,1.3,10.36,1.3,10.36H36.44l2.81-10s-.38-7.13-.32-7.74a31.14,31.14,0,0,1-2.49-4.22l4.26-2.53,5.43-1.1,5.95-.39,5.13,2.47,3.9,2.24L58.56,46.7Z"/><path class="cls-2" d="M41.23,65.36l7.32-3,15.92.59,8.37,14.77L69.23,81l-9.53-11-7.52,2.85S39.72,75.5,39.46,75.22s-2.12-2.85-2.12-2.85Z"/><path class="cls-4" d="M74,79.08l6.82,2.06c1.71.51,2.41,2,1.86,2.28S71.4,86.84,71.4,86.84L70,82.11s1.69-.39,1.63-1a4.8,4.8,0,0,0-.74-1.58Z"/><path class="cls-4" d="M51.82,88l2.83,6.54c.71,1.64.05,3.12-.54,2.89s-9.86-6.38-9.86-6.38l2.69-4.15s1.38,1,1.82.6a4.63,4.63,0,0,0,.73-1.59Z"/><path class="cls-5" d="M46.11,35.52a5,5,0,0,1,.45,3c-.22,1.11-1.21,1.67-2,2.39l3.11,2.43L52.52,42a10.65,10.65,0,0,0,2.15-1.41,6.46,6.46,0,0,0-1.21-1.12,2.24,2.24,0,0,1-.58-.65c-.36-.73,0-2.48,0-3.31V33.31"/><path class="cls-1" d="M44.91,36.27c-2.06-3.72-3.22-9.8-3-11.39.53-4,3.38-4.34,8.91-5.33,2.14-.38,6.44.92,6,3.6-.27,1.79.3,4,.13,5.86a13.64,13.64,0,0,1-1.76,6c-1,1.55-2.73,3.24-4.64,3.43s-4.12-1.17-5.67-2.17"/><path class="cls-6" d="M55.66,18.77a4.69,4.69,0,0,1,3,4.77,10.54,10.54,0,0,1-1.8,6.37,3.83,3.83,0,0,1-.88.87c-.06-.51-.09-1-.17-1.53A9.81,9.81,0,0,0,52.59,23c-.35-.3-.74-.53-1.1-.81s-.58-.2-.8.17c-.85,1.39-1.73,2.76-2.55,4.16a32.72,32.72,0,0,0-3,6.6,9.32,9.32,0,0,0-.43,3.72,1.65,1.65,0,0,1-.19-.1,16.22,16.22,0,0,1-4.68-6A10,10,0,0,1,39.76,23a10.45,10.45,0,0,1,3.87-5.1,6.81,6.81,0,0,1,6.09-1.09l.21,0a7.82,7.82,0,0,1-.17-.84,2.69,2.69,0,0,1,2.16-3,4.37,4.37,0,0,1,4.58,1.71,2.75,2.75,0,0,1-.5,3.73Z"/></g></svg>