<svg id="Iconpack" xmlns="http://www.w3.org/2000/svg" viewBox="0 0 313.21 313.21"><defs><style>.cls-1{fill:#979081;}.cls-2{fill:#bfb197;}.cls-3{fill:#3f3228;}.cls-4{fill:#83939e;}.cls-5{fill:#272726;}.cls-6{fill:#7b6a58;}.cls-7{fill:#6f6050;}.cls-8{fill:#ffe09a;}.cls-9{fill:#3c3c3b;}.cls-10{fill:#f0f0f0;}.cls-11{fill:#9db5c6;}.cls-11,.cls-12{stroke:#dadada;stroke-miterlimit:10;stroke-width:5px;}.cls-12{fill:none;}.cls-13{fill:#063;}.cls-14{fill:#703623;}.cls-15{fill:#888171;}.cls-16{fill:#12100b;}</style></defs><g id="Button-window-1"><path class="cls-1" d="M172.82,18.42H147.48c-40.36,0-73.07,21.22-73.07,73h0v163.8H245.88V91.43h0C245.88,39.64,213.17,18.42,172.82,18.42Z"/><rect class="cls-2" x="142.29" y="169.62" width="34.3" height="207.24" transform="translate(-113.8 432.67) rotate(-90)"/><rect class="cls-3" x="81.63" y="207.19" width="156.64" height="45.65"/><rect class="cls-4" x="80.34" y="94.59" width="156.64" height="112.6"/><path class="cls-5" d="M152.54,156.48c-1.53,1.6-7.85-4.25-9.21-4.94-9.6-4.84-8-25.25-.7-30.69,6.69-5,16.23-.15,23.86,2.48,3.76,1.3,9.2,1.87,10.28,5.84,1.83,6.73,1.23,14-6.15,14C160.7,143.13,152.56,156.46,152.54,156.48Z"/><path class="cls-6" d="M172.87,166.21c1.71.38,4.4-.28,5.4,1.19,3,4.48,3.68,14.94,4.09,19.7.45,5.3.91,9.4,1.36,14.7l17,16.61L213,227s-10.33,1.86-12.8-3.79c-.39-.88-23.37-17-23.37-17l-4.22-26.8Z"/><path class="cls-7" d="M163,165.55c-1.35-1.33,1.14-6.6-.18-7.45,0,0-12.41-8-10.45-5.49,1.6,2,1.34,6.1,1,8.44-.18,1.25-.44,3.13-1.49,4-.59.5-4.61,1-4.59.69l-.76,9.43,13.2,4L170,165.75c-1.79,0-5.13.7-6.78,0A.93.93,0,0,1,163,165.55Z"/><path class="cls-8" d="M170.64,196.65c-.25,6.29,2.31,10.87,3.37,17A251.47,251.47,0,0,1,177.16,241a208.55,208.55,0,0,1-44.63,0s1.73-14.38,7.92-26.64,4.45-17.78,4.45-17.78V178.83l-1.65-13.08h6.07a21.07,21.07,0,0,0,19.28,0h4.92c.94,4.07,1.67,10.47,2.19,14.64.69,5.46-2.87,7.48-4.4,12.28C170.33,195.71,170.76,193.5,170.64,196.65Z"/><path class="cls-6" d="M170.54,136.86c.34,8.25.08,23.35-5.38,23.53s-11.53-2.71-11.53-2.71-9-9.64-4-20.82S170.21,129,170.54,136.86Z"/><polygon class="cls-9" points="93.66 227.9 224.93 227.9 240.56 244.5 78.17 244.5 93.66 227.9"/><polygon class="cls-10" points="100.94 227.9 92 238.35 226.41 238.35 218.11 227.9 100.94 227.9"/><rect class="cls-5" x="78.17" y="244.51" width="162.4" height="5.57"/><polygon class="cls-5" points="97.38 238.35 102.17 231.85 103.76 231.85 99.45 238.35 97.38 238.35"/><polygon class="cls-5" points="100.44 238.35 105.23 231.85 106.83 231.85 102.52 238.35 100.44 238.35"/><polygon class="cls-5" points="107.43 238.35 112.22 231.85 113.82 231.85 109.51 238.35 107.43 238.35"/><polygon class="cls-5" points="110.5 238.35 115.29 231.85 116.88 231.85 112.57 238.35 110.5 238.35"/><polygon class="cls-5" points="113.69 238.35 118.48 231.85 120.08 231.85 115.77 238.35 113.69 238.35"/><polygon class="cls-5" points="121.3 238.35 125.93 231.85 127.52 231.85 123.38 238.35 121.3 238.35"/><polygon class="cls-5" points="124.37 238.35 128.66 231.85 130.59 231.85 126.44 238.35 124.37 238.35"/><path class="cls-6" d="M143.33,166.37c-1.72.38-1.57-.16-3.1,1-4.27,3.34-3.68,14.94-4.09,19.7-.45,5.3-.91,9.4-1.36,14.7l-7.36,22.55-9.93,10s9.15.63,11.58-3.95c.45-.85,12.57-25.28,12.57-25.28l3.11-19.17v0l.15-7.08ZM144.61,184v0Zm-.13-1.9Z"/><polygon class="cls-5" points="131.44 238.35 134.75 231.85 136.6 231.85 133.52 238.35 131.44 238.35"/><polygon class="cls-5" points="134.87 238.35 138.18 231.85 140.03 231.85 136.95 238.35 134.87 238.35"/><polygon class="cls-5" points="138.06 238.35 141.37 231.85 143.22 231.85 140.14 238.35 138.06 238.35"/><polygon class="cls-5" points="145.66 238.35 147.83 231.85 149.81 231.85 147.73 238.35 145.66 238.35"/><polygon class="cls-5" points="148.72 238.35 150.9 231.85 152.85 231.85 150.8 238.35 148.72 238.35"/><polygon class="cls-5" points="155.94 238.35 156.72 231.85 158.65 231.85 158.01 238.35 155.94 238.35"/><polygon class="cls-5" points="159 238.35 159.79 231.85 161.71 231.85 161.08 238.35 159 238.35"/><polygon class="cls-5" points="162.19 238.35 162.98 231.85 164.91 231.85 164.27 238.35 162.19 238.35"/><polygon class="cls-5" points="224.11 238.35 219.32 231.85 217.73 231.85 222.03 238.35 224.11 238.35"/><polygon class="cls-5" points="221.04 238.35 216.26 231.85 214.66 231.85 218.97 238.35 221.04 238.35"/><polygon class="cls-5" points="214.06 238.35 209.27 231.85 207.67 231.85 211.98 238.35 214.06 238.35"/><polygon class="cls-5" points="210.99 238.35 206.2 231.85 204.6 231.85 208.91 238.35 210.99 238.35"/><polygon class="cls-5" points="207.8 238.35 203.01 231.85 201.41 231.85 205.72 238.35 207.8 238.35"/><polygon class="cls-5" points="200.19 238.35 195.56 231.85 193.97 231.85 198.11 238.35 200.19 238.35"/><polygon class="cls-5" points="197.12 238.35 192.82 231.85 190.9 231.85 195.05 238.35 197.12 238.35"/><polygon class="cls-5" points="190.04 238.35 186.73 231.85 184.88 231.85 187.97 238.35 190.04 238.35"/><polygon class="cls-5" points="186.62 238.35 183.31 231.85 181.46 231.85 184.54 238.35 186.62 238.35"/><polygon class="cls-5" points="183.42 238.35 180.11 231.85 178.26 231.85 181.35 238.35 183.42 238.35"/><polygon class="cls-5" points="175.83 238.35 173.65 231.85 171.67 231.85 173.76 238.35 175.83 238.35"/><polygon class="cls-5" points="172.77 238.35 170.59 231.85 168.64 231.85 170.69 238.35 172.77 238.35"/><path class="cls-5" d="M152.54,156.48s-4.44-13.24,2.31-16.67c5.69-2.89,10.06-5.69,10.06-5.69s1.79,8,6.76,8.67-1.63-14.6-1.63-14.6l-15.19-1.42-10.37,4.5-1.25,8.54-.6,5.61Z"/><path class="cls-8" d="M152.54,156.48s-15.16-24.75,15.76-32.69l-7.81-2.65S135.35,126.46,152.54,156.48Z"/><polygon class="cls-11" points="44.26 132.65 44.26 290.39 81.63 252.84 79.79 98.61 44.26 132.65"/><path class="cls-11" d="M81.63,95.1h0c0-49.87,29.85-70.31,66.66-70.31H171.4c36.81,0,66.66,20.44,66.66,70.31h0"/><line class="cls-12" x1="159.84" y1="24.79" x2="159.84" y2="95.4"/><line class="cls-12" x1="81.84" y1="95.1" x2="238.27" y2="95.1"/><polyline class="cls-12" points="238.06 95.1 238.06 252.84 81.63 252.84 81.63 95.1"/><polygon class="cls-11" points="287.58 114.98 287.58 272.72 238.06 252.84 238.06 95.1 287.58 114.98"/><path class="cls-13" d="M114,208.3a25.62,25.62,0,0,0,.18-6.24,24.67,24.67,0,0,0-1.56-6,41.62,41.62,0,0,1-2-6,26.61,26.61,0,0,1-.62-6.36,30.47,30.47,0,0,1,.89-6.31c.5-2.05,1.09-4.06,1.54-6.08.94-4,.61-8.27.35-12.45.34,2.07.62,4.15.76,6.26a27,27,0,0,1-.35,6.34c-.35,2.09-1,4.11-1.42,6.14a29.56,29.56,0,0,0-.77,6.13,26.35,26.35,0,0,0,.5,6.14,58.06,58.06,0,0,0,1.79,6,24.73,24.73,0,0,1,1.32,6.21A22.82,22.82,0,0,1,114,208.3Z"/><path class="cls-13" d="M112.68,174s.67-2.62,4.26-4.52C116.94,169.5,115.6,176.64,112.68,174Z"/><path class="cls-13" d="M111.14,184.9s.31-3.85,4.91-7.39C116.05,177.51,115.9,187.88,111.14,184.9Z"/><path class="cls-13" d="M113,168.2s-.2-2.58-3.29-5C109.69,163.23,109.79,170.21,113,168.2Z"/><path class="cls-13" d="M110.35,189.1s-.25-3-3.86-5.81C106.49,183.29,106.61,191.44,110.35,189.1Z"/><path class="cls-13" d="M110.24,180.33s.33-3.38-3.1-7.17C107.14,173.16,105.65,182.18,110.24,180.33Z"/><polygon class="cls-14" points="102.23 212.77 96.33 191.43 126.72 190.74 122.26 212.77 102.23 212.77"/><rect class="cls-15" x="157.23" y="188.97" width="4.4" height="207.24" transform="translate(-133.16 452.02) rotate(-90)"/><circle class="cls-16" cx="190.01" cy="124.02" r="3.49"/><polygon class="cls-16" points="191.96 124.12 192.89 105.43 205.84 106.07 205.77 107.54 194.28 106.96 193.42 124.19 191.96 124.12"/><circle class="cls-16" cx="201.43" cy="124.59" r="3.49"/><polygon class="cls-16" points="203.51 124.69 204.41 106.73 205.87 106.81 204.98 124.77 203.51 124.69"/><rect class="cls-16" x="198.43" y="104.61" width="1.47" height="11.57" transform="translate(79 303.83) rotate(-87.15)"/><circle class="cls-16" cx="218.06" cy="194.75" r="3.49"/><path class="cls-16" d="M220.3,196.3a.72.72,0,0,1-.27-.85l6.06-16.93a.73.73,0,0,1,.94-.44.73.73,0,0,1,.44.94L221.41,196a.73.73,0,0,1-.94.44A.56.56,0,0,1,220.3,196.3Z"/><circle class="cls-16" cx="223.75" cy="139.95" r="3.49"/><path class="cls-16" d="M226.79,139.83l-.13,0a.73.73,0,0,1-.9-.5l-5-17.29a.73.73,0,0,1,.5-.91.74.74,0,0,1,.91.51l5,17.28A.74.74,0,0,1,226.79,139.83Z"/><circle class="cls-16" cx="204.43" cy="167.2" r="3.49"/><path class="cls-16" d="M207.17,167.28a.73.73,0,0,1-.71-.57L201.74,147l7.39,6.52a.73.73,0,0,1-1,1.1l-3.92-3.45,3.65,15.23a.74.74,0,0,1-.55.89Z"/></g></svg>