<svg id="Iconpack" xmlns="http://www.w3.org/2000/svg" viewBox="0 0 313.21 313.21"><defs><style>.cls-1{fill:#979081;}.cls-2{fill:#bfb197;}.cls-3{fill:#3f3228;}.cls-4{fill:#809583;}.cls-5{fill:#d5b390;}.cls-6{fill:#bcc58a;}.cls-7{fill:#634e42;}.cls-8{fill:#063;}.cls-9{fill:#e5c09a;}.cls-10{fill:#503f35;}.cls-11{fill:#936037;}.cls-12{fill:#95493e;}.cls-13{fill:#f7f5e9;}.cls-14{fill:#5e8383;}.cls-15{fill:#8e966a;}.cls-16{fill:#9db5c6;}.cls-16,.cls-17{stroke:#dadada;stroke-miterlimit:10;stroke-width:5px;}.cls-17{fill:none;}.cls-18{fill:#888171;}</style></defs><g id="Button-window-2"><path class="cls-1" d="M165.82,17.86H140.49c-40.36,0-73.07,21.22-73.07,73h0v163.8H238.89V90.87h0C238.89,39.08,206.18,17.86,165.82,17.86Z"/><rect class="cls-2" x="135.89" y="169.06" width="34.3" height="207.24" transform="translate(-119.64 425.72) rotate(-90)"/><rect class="cls-3" x="74.62" y="206.93" width="156.64" height="45.65"/><rect class="cls-4" x="73.32" y="94.32" width="156.64" height="112.6"/><path class="cls-5" d="M151.68,133.68c-.71,32.67,9.85,36.56,9.85,36.56s-31.32,3.89-25.33-5.06S139,131.74,139,131.74Z"/><path class="cls-6" d="M168,177.53l.18,1.49,5.65,47s-38.66,4.52-48.55-1.69c0,0-.12-36,1.31-37.94,1.61-2.14-5.77,19.27-9.91,23.08a12.63,12.63,0,0,0-10.32-4.73L118,153.56l21.8-6s1.95,7.72,5.37,11.81c1.23,1.47,4.58-9.32,7-11.81l21.67,3.57c1.29.19,7.36,18.47,7.84,20,4,12.38,6.21,19.9,11,32a13.86,13.86,0,0,0-10.62,3.53S171.64,190.42,168,177.53Z"/><polygon class="cls-7" points="79.72 224.22 225.38 224.22 243.92 249.44 61.35 249.44 79.72 224.22"/><path class="cls-8" d="M219.15,233.28a15.84,15.84,0,0,0-.73-4.33,16.52,16.52,0,0,0-2-3.89,31.06,31.06,0,0,1-2.26-3.83,18.08,18.08,0,0,1-1.36-4.24,19.57,19.57,0,0,1-.3-4.45c.05-1.48.18-2.94.21-4.4a28,28,0,0,0-1.67-8.59,24.84,24.84,0,0,1,2,8.59c0,1.48-.11,3-.14,4.41a19.08,19.08,0,0,0,.34,4.34,17.23,17.23,0,0,0,1.29,4.15,38.06,38.06,0,0,0,2.16,3.82,16.53,16.53,0,0,1,1.87,4A16,16,0,0,1,219.15,233.28Z"/><path class="cls-8" d="M213.2,210a5.53,5.53,0,0,1,2.4-3.68S215.68,211.36,213.2,210Z"/><path class="cls-8" d="M213.68,217.65s-.34-2.68,2.45-5.75C216.13,211.9,217.54,219,213.68,217.65Z"/><path class="cls-8" d="M212.57,206a5.52,5.52,0,0,0-3.1-2.95S210.56,207.77,212.57,206Z"/><path class="cls-8" d="M213.72,220.63s-.61-2-3.62-3.44C210.1,217.19,211.37,222.76,213.72,220.63Z"/><path class="cls-8" d="M212.36,214.64s-.25-2.36-3.28-4.48C209.08,210.16,209.33,216.54,212.36,214.64Z"/><path class="cls-9" d="M133.87,121.34a53,53,0,0,0,3.39,13.26,21.92,21.92,0,0,0,7.13,9.11c2.76,1.95,6.75-2.72,8.45-4.5,4.08-4.24,5.42-10.13,6.11-15.7a14.57,14.57,0,0,0,0-4.47c-.67-3.57-4.1-6.19-7.48-7.46-4.56-1.71-11.36-2.8-15,1.08A10.46,10.46,0,0,0,133.87,121.34Z"/><rect class="cls-10" x="61.35" y="249.44" width="182.57" height="5.5"/><path class="cls-9" d="M115.42,208.11c-2.74,4.5-5.78,9.3-8.06,12.45A26.3,26.3,0,0,0,102.42,236l-2.51,1.11-.37-5-7.85,8.4c-.5.54-2.09-2.13-2.17-2.34C87.12,232,97,227.82,99.38,223c1-2,4.77-10.41,8.28-18.25A12.69,12.69,0,0,1,115.42,208.11Z"/><path class="cls-9" d="M183.13,205.78c2.64,4.54,5.57,9.76,7.79,12.95a26.27,26.27,0,0,1,4.59,15.58l2.49,1.15.48-5,7.67,8.56c.48.54,2.13-2.09,2.22-2.3,2.53-6.19-7.28-10.54-9.53-15.41-.92-2-4.54-10.51-7.88-18.41C188.12,203.12,185.47,203.68,183.13,205.78Z"/><path class="cls-11" d="M142,103.78c-2.88.15-5.56,2.89-8.05,4.24-7.25,3.94-4.64,10.52-5.62,17-.46,3-2.24,5.38-3.67,8.05-.52,1-2.64,5.07.23,4.23,3.68-1.08,5-5.63,7.6-4.16s1.16,5.8,3,4.33,1.59-6.37,2.44-10.15,4.81-8.08,6.51-8.08,7.08-6.25,7.09-6.26a7.08,7.08,0,0,0,1.31-5.9c-.74-2.83-6.47-3.31-8.79-3.32C143.32,103.73,142.64,103.75,142,103.78Z"/><path class="cls-11" d="M149.51,115.12a11.84,11.84,0,0,1,9.11,10.68s-1,7-3.37,10.23,7-4.17,7.54-2.29,2.26,5.66,3.11,3.1.56-5.25,0-8.22-.18-8.65-1.13-10.78c-1.41-3.12-1.29-16.21-12-10.78"/><path class="cls-8" d="M226.59,238.92a22.39,22.39,0,0,0,.23-5.89,22,22,0,0,0-1.51-5.66,41.37,41.37,0,0,1-1.91-5.66,23.59,23.59,0,0,1-.6-6,27,27,0,0,1,.86-5.94c.49-1.93,1.07-3.82,1.51-5.73.92-3.82.57-7.82.26-11.76.31,2,.57,3.92.69,5.91a24,24,0,0,1-.38,6c-.36,2-1,3.86-1.42,5.77a26.52,26.52,0,0,0-.77,5.8,23.12,23.12,0,0,0,.51,5.81,50.69,50.69,0,0,0,1.79,5.61,22.34,22.34,0,0,1,1.33,5.83A21,21,0,0,1,226.59,238.92Z"/><path class="cls-8" d="M225.28,206.62s.66-2.47,4.22-4.26C229.5,202.36,228.18,209.08,225.28,206.62Z"/><path class="cls-8" d="M223.76,216.87s.3-3.62,4.85-7C228.61,209.91,228.46,219.68,223.76,216.87Z"/><path class="cls-8" d="M225.58,201.14s-.2-2.44-3.26-4.69C222.32,196.45,222.42,203,225.58,201.14Z"/><path class="cls-8" d="M223,220.83s-.24-2.85-3.82-5.48C219.15,215.35,219.27,223,223,220.83Z"/><path class="cls-8" d="M222.87,212.57s.33-3.19-3.07-6.76C219.8,205.81,218.33,214.31,222.87,212.57Z"/><path class="cls-8" d="M229.21,234.58a17.84,17.84,0,0,1,.24-4.89,18.65,18.65,0,0,1,1.77-4.59,43.13,43.13,0,0,0,2.12-4.39,19.39,19.39,0,0,0,1.11-4.7,21.08,21.08,0,0,0,0-4.83c-.15-1.62-.42-3.23-.49-4.88a20.18,20.18,0,0,1,.36-4.91c.32-1.61.78-3.18,1.23-4.75-.74,3.17-1.49,6.4-1.21,9.64.13,1.61.39,3.22.57,4.85a22.66,22.66,0,0,1,0,4.94,19.85,19.85,0,0,1-1.19,4.8,34.08,34.08,0,0,1-2.2,4.4,19,19,0,0,0-1.88,4.47A18.25,18.25,0,0,0,229.21,234.58Z"/><path class="cls-8" d="M234,208.34s-.25-2.08-2.94-3.92C231.1,204.42,231.39,210.05,234,208.34Z"/><path class="cls-8" d="M234.09,216.88s.18-3-3.15-6.2C230.94,210.68,229.92,218.68,234.09,216.88Z"/><path class="cls-8" d="M234.44,203.84s.45-2,3.21-3.48C237.65,200.36,236.8,205.71,234.44,203.84Z"/><path class="cls-8" d="M234.27,220.19s.53-2.3,3.76-4.07C238,216.12,237,222.39,234.27,220.19Z"/><path class="cls-8" d="M235.32,213.46s.1-2.64,3.3-5.2C238.62,208.26,238.83,215.36,235.32,213.46Z"/><polygon class="cls-12" points="214.33 243.26 208.49 223.16 238.56 222.51 234.14 243.26 214.33 243.26"/><polygon class="cls-13" points="115.42 229.06 158.94 229.06 157.84 245.53 104.29 245.53 115.42 229.06"/><ellipse class="cls-14" cx="133.99" cy="236.83" rx="15.9" ry="5.66" transform="translate(-16.12 9.88) rotate(-3.98)"/><path class="cls-15" d="M123.67,241.76s1.68.2,2.1-.4.57-1.89,1.14-1.08a2,2,0,0,0,2.19,1.08,27.66,27.66,0,0,0,3.75-.74c1.2-.14,2.12-.43,2.27.29s1.35.58,2,.88l.69.31S129.84,243.45,123.67,241.76Z"/><path class="cls-15" d="M125.52,232.55a8.15,8.15,0,0,0,4.48.61c2.92-.27,3.91.49,2.31,1.21s-3.63.36-4.55,1.21.11,2.29-1.25,2.7a17.44,17.44,0,0,1-4.91.45c-1.13-.09-2.47,1-2.31,1.12s-2.76-1.82.2-4.44C119.49,235.41,120.62,234.14,125.52,232.55Z"/><path class="cls-15" d="M134.24,231.14s2.57,1.74,3.62,1.41,1.71-1.21,2.52,0,.7,1,1.55,2.18,1.37.72,1.84.32.24-.63.24-1.17-.33-1,.28-1,.9-.32,1.65,0a4,4,0,0,0,1.7.45c.29-.07,0-.23,0-.23S143.72,230.56,134.24,231.14Z"/><path class="cls-15" d="M139.8,241.76s-5.37-2.31-3.58-3.12.57-.81.33-.86-.33-.89.71-.49,1.28.05,1.75,1,.38,1.26,1.51,1.19a3.66,3.66,0,0,0,1.88-.47c1.23-.45,1.66-.41,2.08-.9s.57-1.08,1.42-.41,1.08.41,1.08.86a.68.68,0,0,0,.25.6A23.43,23.43,0,0,1,139.8,241.76Z"/><polygon class="cls-16" points="30.24 121.39 30.24 279.12 74.62 252.57 72.77 98.35 30.24 121.39"/><path class="cls-16" d="M74.62,94.84h0c0-49.88,29.84-70.31,66.65-70.31h23.12C201.2,24.53,231,45,231,94.84h0"/><line class="cls-17" x1="152.83" y1="24.53" x2="152.83" y2="94.84"/><line class="cls-17" x1="74.83" y1="94.84" x2="231.25" y2="94.84"/><polyline class="cls-17" points="231.04 94.84 231.04 252.57 74.62 252.57 74.62 94.84"/><polygon class="cls-16" points="290.57 101.72 290.57 259.45 231.04 252.57 231.04 94.84 290.57 101.72"/><rect class="cls-18" x="150.84" y="188.41" width="4.4" height="207.24" transform="translate(-138.99 445.07) rotate(-90)"/></g></svg>