<svg id="Iconpack" xmlns="http://www.w3.org/2000/svg" viewBox="0 0 99.01 193.25"><defs><style>.cls-1{fill:#6e6f70;}.cls-2{fill:#2d231f;}.cls-3{fill:#8c5848;}.cls-4{fill:#774030;}.cls-5{fill:#8baabe;}.cls-5,.cls-6{stroke:#d0d2d3;stroke-miterlimit:10;stroke-width:0.61px;}.cls-6{fill:none;}.cls-7{fill:#808284;}.cls-8{fill:#48321b;}.cls-9{fill:#0a0404;}</style></defs><path class="cls-1" d="M14.49,71.31,6.9,60.43H15L14.89,71.2A.22.22,0,0,1,14.49,71.31Z"/><polygon class="cls-2" points="60.14 4.18 96.05 4.18 96.05 59.54 5.36 59.54 60.14 4.18"/><rect class="cls-3" x="14.04" y="57.23" width="82.41" height="133.68"/><path class="cls-4" d="M61.61,92c0-10,5-14,11.45-14h4c6.41,0,11.6,4,11.64,13.93h0V92h0v31.5H61.61V92h0Z"/><rect class="cls-5" x="62.6" y="112.96" width="25.22" height="8.41" transform="translate(150.41 234.33) rotate(-180)"/><rect class="cls-5" x="62.81" y="92.22" width="25.01" height="29.14" transform="translate(150.62 213.59) rotate(-180)"/><path class="cls-5" d="M87.82,92.32h0c0-9.19-4.81-12.95-10.73-12.95H73.36c-5.92,0-10.73,3.76-10.73,12.95h0"/><line class="cls-6" x1="75.22" y1="79.37" x2="75.22" y2="121.37"/><line class="cls-6" x1="87.78" y1="92.32" x2="62.6" y2="92.32"/><polyline class="cls-6" points="62.63 92.32 62.63 121.37 87.82 121.37 87.82 92.32"/><path class="cls-4" d="M29,92c0-10,5-14,11.44-14h4c6.4,0,11.6,4,11.63,13.93h0V92h0v31.5H29V92h0Z"/><rect class="cls-5" x="29.83" y="112.96" width="25.22" height="8.41" transform="translate(84.88 234.33) rotate(-180)"/><rect class="cls-5" x="30.04" y="92.22" width="25.01" height="29.14" transform="translate(85.09 213.59) rotate(-180)"/><path class="cls-5" d="M55.05,92.32h0c0-9.19-4.8-12.95-10.73-12.95H40.6c-5.93,0-10.73,3.76-10.73,12.95h0"/><line class="cls-6" x1="42.46" y1="79.37" x2="42.46" y2="121.37"/><line class="cls-6" x1="55.02" y1="92.32" x2="29.83" y2="92.32"/><polyline class="cls-6" points="29.87 92.32 29.87 121.37 55.05 121.37 55.05 92.32"/><path class="cls-4" d="M61.61,154.68c0-10,5-14,11.45-14h4c6.41,0,11.6,4.05,11.64,13.93h0v.11h0v31.5H61.61v-31.5h0Z"/><rect class="cls-5" x="62.6" y="175.69" width="25.22" height="8.41" transform="translate(150.41 359.79) rotate(-180)"/><rect class="cls-5" x="62.81" y="154.95" width="25.01" height="29.14" transform="translate(150.62 339.05) rotate(-180)"/><path class="cls-5" d="M87.82,155.05h0c0-9.19-4.81-13-10.73-13H73.36c-5.92,0-10.73,3.76-10.73,13h0"/><line class="cls-6" x1="75.22" y1="142.1" x2="75.22" y2="184.1"/><line class="cls-6" x1="87.78" y1="155.05" x2="62.6" y2="155.05"/><polyline class="cls-6" points="62.63 155.05 62.63 184.1 87.82 184.1 87.82 155.05"/><path class="cls-4" d="M29,154.68c0-10,5-14,11.44-14h4c6.4,0,11.6,4.05,11.63,13.93h0v.11h0v31.5H29v-31.5h0Z"/><rect class="cls-5" x="29.83" y="175.69" width="25.22" height="8.41" transform="translate(84.88 359.79) rotate(-180)"/><rect class="cls-5" x="30.04" y="154.95" width="25.01" height="29.14" transform="translate(85.09 339.05) rotate(-180)"/><path class="cls-5" d="M55.05,155.05h0c0-9.19-4.8-13-10.73-13H40.6c-5.93,0-10.73,3.76-10.73,13h0"/><line class="cls-6" x1="42.46" y1="142.1" x2="42.46" y2="184.1"/><line class="cls-6" x1="55.02" y1="155.05" x2="29.83" y2="155.05"/><polyline class="cls-6" points="29.87 155.05 29.87 184.1 55.05 184.1 55.05 155.05"/><path class="cls-7" d="M3.9,54.14H96.45a0,0,0,0,1,0,0v7.28a0,0,0,0,1,0,0H10.56A6.66,6.66,0,0,1,3.9,54.77v-.62a0,0,0,0,1,0,0Z"/><rect class="cls-4" x="14.04" y="61.48" width="82.41" height="1.94" transform="translate(110.48 124.9) rotate(-180)"/><path class="cls-8" d="M38.68,17.54A11.16,11.16,0,0,0,39,15.83a4,4,0,0,0,0-1.14,2.79,2.79,0,0,0-1.81-1.89c-1.11-.44-2.75-.72-3.65.27a2.77,2.77,0,0,0-.62,2.21,19.64,19.64,0,0,0,.45,2.26Z"/><path class="cls-9" d="M33.3,17.29A9.74,9.74,0,0,1,32.44,13c.1-2.37,4.45-1.69,4.45-1.69s3.93,1.35,2,5.46l-.36-2.5-4.72.33Z"/><polyline class="cls-3" points="43.29 26.87 43.29 20.74 28.69 20.74 28.69 33.05 28.7 41.99"/><rect class="cls-7" x="26.84" y="17.27" width="18.15" height="4.99"/><rect class="cls-4" x="28.69" y="22.26" width="14.6" height="0.98"/></svg>