<svg width="1440" height="328" viewBox="0 0 1440 328" fill="none" xmlns="http://www.w3.org/2000/svg">
<path d="M1133.18 191.843C1127.37 187.767 1121.28 184.059 1115.84 179.585C1111.32 175.846 1108.26 175.478 1105.17 180.964C1103.6 183.247 1101.82 185.38 1099.85 187.338C1067.89 222.304 1036.26 257.516 1007.1 294.75C1001.14 302.319 995.015 309.827 988.368 316.876L978.073 328C974.394 328 974.394 324.935 973.961 322.698C973.591 319.648 973.487 316.572 973.652 313.505C973.652 269.805 973.652 226.104 973.652 182.404C973.652 175.754 974.703 168.767 971.178 162.485C963.665 159.818 955.72 160.922 948.269 161.32C927.214 162.454 906.191 161.32 885.137 161.964C883.482 162.199 881.8 161.796 880.437 160.838C879.073 159.88 878.133 158.44 877.809 156.815C876.429 154.088 875.902 151.015 876.294 147.989C878.498 143.109 879.156 137.68 878.18 132.422C877.562 127.457 875.614 123.657 869.678 123.504C866.966 123.236 864.254 124.008 862.098 125.661C859.941 127.314 858.506 129.722 858.084 132.391C857.873 133.398 857.79 134.428 857.837 135.455C857.588 139.65 857.588 143.856 857.837 148.051C857.974 147.591 858.139 147.141 858.332 146.702C856.786 141.86 861.145 140.573 863.68 137.938C869.524 141.401 864.732 144.373 863.278 147.53C861.825 150.686 861.794 154.639 859.723 157.735C857.095 161.841 852.89 161.78 848.778 161.81C834.155 161.81 819.531 162.086 804.938 161.81C802.289 161.432 799.59 161.968 797.292 163.33C794.995 164.692 793.241 166.795 792.324 169.288C786.667 181.791 779.401 193.498 773.527 205.878C772.074 209.403 769.106 209.464 765.89 209.433C752.596 209.433 739.302 209.433 726.039 209.433C710.302 208.882 694.596 210.751 678.859 210.199C675.838 210.583 672.767 210.215 669.925 209.127C666.338 206.399 666.029 202.17 665.102 198.278C664.831 196.392 664.058 194.612 662.862 193.12C661.667 191.628 660.092 190.478 658.3 189.79C655.208 187.583 655.981 184.611 656.816 181.669C657.713 179.06 658.446 176.399 659.011 173.701C659.382 170.636 659.011 168.154 655.919 166.989C654.869 166.586 653.722 166.498 652.622 166.738C651.522 166.978 650.518 167.535 649.736 168.338C646.984 170.973 648.468 173.793 649.736 176.551C651.127 180.565 653.6 184.427 651.282 188.809C647.293 190.862 642.594 192.211 642.625 198.003C641.357 201.833 642.965 207.809 637.245 208.453C629.825 209.249 621.787 212.222 615.14 205.388L596.435 169.135C593.931 163.588 591.118 158.164 588.242 152.831C585.367 147.499 584.285 147.652 581.41 153.015C576.277 162.638 572.598 172.935 567.93 182.802C557.727 204.254 547.958 226.104 537.817 247.679C537.222 249.503 536.126 251.126 534.651 252.366C533.177 253.606 531.382 254.413 529.469 254.696C504.303 254.972 479.137 255.033 454.001 254.696C449.117 254.145 447.416 250.406 445.747 246.606C431.339 214.98 416.685 183.63 401.968 152.372C401.361 150.417 400.067 148.742 398.32 147.652C388.86 169.809 378.286 191.199 369.042 213.172L349.101 256.075C344.741 255.401 345.793 251.846 345.329 249.119C343.721 239.159 344.803 229.169 345.143 219.148C345.777 216.185 345.246 213.094 343.659 210.506C341.155 208.33 338.125 209.556 335.343 209.249C314.907 208.636 294.532 210.169 274.127 210.169C270.51 210.169 266.8 210.414 265.1 206.246C264.234 201.128 260.74 197.053 259.287 192.149C261.482 189.422 264.079 187.001 263.585 182.956C263.09 178.911 261.699 175.478 256.659 175.785C251.62 176.091 248.961 178.022 249.085 183.293C249.526 186.539 250.335 189.726 251.496 192.793C251.546 196.643 250.95 200.475 249.734 204.132C248.435 208.82 245.715 210.261 240.459 209.74C229.205 208.82 217.859 209.495 206.45 209.433C197.392 209.433 197.392 209.433 196.804 200.056C197.063 185.556 196.423 171.054 194.887 156.631C190.806 152.341 185.612 154.885 180.913 154.456C169.907 154.088 158.9 155.406 147.956 153.659C146.718 153.112 145.64 152.263 144.824 151.191C144.007 150.119 143.479 148.859 143.287 147.53C142.914 145.72 142.144 144.014 141.033 142.532C139.922 141.049 138.496 139.826 136.857 138.949C136.135 137.755 135.753 136.388 135.753 134.996C135.753 133.603 136.135 132.237 136.857 131.043C137.213 130.363 137.513 129.656 137.753 128.928C138.279 126.262 139.454 123.289 136.516 121.359C135.748 120.867 134.845 120.624 133.931 120.662C133.018 120.701 132.139 121.019 131.415 121.573C128.942 123.626 130.58 126.201 131.199 128.591C132.126 132.023 133.765 135.455 131.384 138.949C129.455 139.639 127.776 140.881 126.559 142.517C125.343 144.154 124.644 146.112 124.552 148.143C124.592 149.536 124.262 150.915 123.595 152.141C122.927 153.368 121.946 154.399 120.749 155.13C90.9141 155.13 61.0485 157.765 31.2447 154.885C28.9922 154.299 26.6029 154.527 24.5048 155.528C15.7862 155.528 7.03678 155.528 -1.71268 155.681C-5.73187 155.681 -7.03038 154.578 -6.99946 150.533C-6.99946 102.175 -6.99946 53.8163 -6.99946 5.45797C-6.99946 1.6273 -6.04104 -0.39529 -1.83635 0.06439C-0.0340661 0.156462 1.77181 0.156462 3.5741 0.06439H1431.99C1444.36 0.06439 1442.81 -1.52917 1442.81 11.158C1442.81 46.7985 1442.81 82.439 1443 118.08C1443 124.699 1441.67 127.059 1434.44 127.273C1384.78 128.284 1335.13 130.093 1285.48 128.346C1278.83 128.101 1276.64 129.541 1276.7 136.497C1276.85 152.494 1275.99 168.552 1275.52 184.549C1275.03 185.744 1274.26 187.032 1272.99 187.062C1264.05 187.338 1255.06 189.299 1246.28 185.928C1244.72 184.235 1243.78 182.08 1243.59 179.799C1242.69 173.272 1239.04 170.943 1232.49 171.31C1224.26 171.74 1224.26 171.31 1220.86 183.569C1219.22 187.154 1216.07 187.552 1212.58 187.522C1208.03 187.522 1203.46 187.522 1198.88 187.522C1193.78 187.522 1191.18 189.452 1192.48 194.907C1193.22 197.575 1193.22 200.392 1192.48 203.059C1192.48 207.932 1192.48 212.804 1192.48 217.677C1192.82 221.048 1194.77 225.461 1191.43 227.453C1188.09 229.445 1184.97 225.583 1182 223.806C1165.37 213.325 1149.54 202.232 1133.18 191.843Z" fill="#242422"/>
</svg>
