<svg id="Iconpack" xmlns="http://www.w3.org/2000/svg" viewBox="0 0 52.44 81.56"><defs><style>.cls-1{fill:#063;}.cls-2{fill:#7b4431;}.cls-3{fill:#ffe09a;}.cls-4{fill:#e7c68a;}</style></defs><g id="Flowerpot-1"><path class="cls-1" d="M31.46,71A41.08,41.08,0,0,0,32,63.37a27.89,27.89,0,0,0-1.22-7.53C29.32,51,27,46.23,26.18,41a43.29,43.29,0,0,1,.3-15.52c1.05-5.1,2.89-9.91,3.71-15a55,55,0,0,1-1.3,7.63c-.59,2.5-1.23,5-1.66,7.52a44.4,44.4,0,0,0-.06,15.21c.74,5,3,9.73,4.3,14.77a28.38,28.38,0,0,1,1,7.72A36.63,36.63,0,0,1,31.46,71Z"/><path class="cls-1" d="M27,34.66s.47-6,7.63-11.5C34.65,23.16,34.41,39.29,27,34.66Z"/><path class="cls-1" d="M25.78,41.19s-.38-4.7-6-9C19.78,32.15,20,44.83,25.78,41.19Z"/><path class="cls-1" d="M25.62,27.56s.52-5.27-4.83-11.16C20.79,16.4,18.48,30.42,25.62,27.56Z"/><polygon class="cls-2" points="11.78 78 2.6 44.82 49.86 43.74 42.92 78 11.78 78"/><path class="cls-3" d="M28.53,18.56s-5.5-3.09.61-10.78S34.85,13.3,28.53,18.56Z"/><path class="cls-4" d="M32.6,5.53s.46,4.38-4.07,13A12,12,0,0,0,32.6,5.53Z"/></g></svg>