<svg id="Iconpack" xmlns="http://www.w3.org/2000/svg" viewBox="0 0 107.16 226.77"><defs><style>.cls-1{fill:#bcc58a;}.cls-2{fill:#abb37e;}.cls-3{fill:#6b7350;}</style></defs><g id="Plant"><path class="cls-1" d="M24.72,84.83S35.46,78.54,35.08,43.3C35.08,43.3,3.41,72.61,24.72,84.83Z"/><path class="cls-2" d="M23.74,82.83s-1-16,9.53-35.53"/><path class="cls-3" d="M47.87,220a123.54,123.54,0,0,0,11-16.87,93,93,0,0,0,7.63-18.32,53.12,53.12,0,0,0,2.07-19.25,36,36,0,0,0-6.35-17.75,22.15,22.15,0,0,0-1.41-1.93,19.8,19.8,0,0,0-1.48-1.82c-.48-.58-1.08-1.09-1.63-1.64s-1.17-1-1.82-1.51c-2.51-2-5.4-3.73-8.19-5.86a38.22,38.22,0,0,1-4-3.56,23.5,23.5,0,0,1-3.33-4.39A20.54,20.54,0,0,1,38.09,122a23.42,23.42,0,0,1-.79-5.41,35.34,35.34,0,0,1,1.33-10.46,57.65,57.65,0,0,1,3.54-9.7A66.72,66.72,0,0,1,53.61,79.63a80.59,80.59,0,0,0-9.39,17.69,55.8,55.8,0,0,0-2.7,9.5,34.72,34.72,0,0,0-.7,9.59,18.59,18.59,0,0,0,2.86,8.64,19.61,19.61,0,0,0,2.89,3.55,31.83,31.83,0,0,0,3.65,3c2.62,1.9,5.51,3.65,8.33,5.8.71.52,1.39,1.13,2.08,1.7a27.41,27.41,0,0,1,2,1.93,23.56,23.56,0,0,1,1.74,2.07c.54.7,1.11,1.39,1.58,2.14a40.11,40.11,0,0,1,6.89,20,53.57,53.57,0,0,1-3,20.63,83,83,0,0,1-9.09,18.41A93,93,0,0,1,47.87,220Z"/><path class="cls-1" d="M63.11,6.32a118.91,118.91,0,0,1,2.6,16.33,53.15,53.15,0,0,1-1.17,16.69,49.79,49.79,0,0,1-7,15.41A72.08,72.08,0,0,1,46.38,67.38c-4.16,3.78-8.35,7.18-12.14,11a53.17,53.17,0,0,0-5.19,5.91A28.58,28.58,0,0,0,27,87.41a18.52,18.52,0,0,0-1.43,3.29A12.72,12.72,0,0,0,25,94a9.59,9.59,0,0,0,.56,3.09,11.45,11.45,0,0,0,1.66,2.85c.34.46.78.88,1.16,1.32s.89.88,1.37,1.28c3.77,3.35,8.54,5.65,13.48,8,1.24.6,2.48,1.23,3.73,1.87.63.34,1.25.66,1.89,1l1.82,1c2.41,1.41,4.79,2.88,7.12,4.43a99.68,99.68,0,0,1,13.3,10.4,59.19,59.19,0,0,1,10.74,13.33,37.65,37.65,0,0,1,3.48,8,32.08,32.08,0,0,1,1.33,8.71,31,31,0,0,1-1.15,8.69,19.72,19.72,0,0,1-.64,2.06l-.7,2c-.52,1.32-1.11,2.62-1.69,3.91a71.88,71.88,0,0,1-9.25,14c-7.15,8.57-15.55,15.7-23.75,23,7.36-8.16,15.28-15.85,21.64-24.64a69.39,69.39,0,0,0,8.11-13.86c.49-1.23,1-2.47,1.4-3.71l.57-1.9a15.86,15.86,0,0,0,.51-1.88,26.82,26.82,0,0,0,.71-7.61,31.12,31.12,0,0,0-4.68-14.44,54.39,54.39,0,0,0-10.13-12,101.86,101.86,0,0,0-12.72-9.73q-3.37-2.2-6.89-4.2l-1.76-1c-.55-.31-1.16-.61-1.74-.92l-3.63-1.8C36,113,30.74,110.49,26.28,106.49a19.45,19.45,0,0,1-5.59-7.59,15,15,0,0,1-.86-5,16.57,16.57,0,0,1,.85-4.81,26.93,26.93,0,0,1,4.44-7.88,57.44,57.44,0,0,1,5.81-6.32c2-1.94,4.16-3.77,6.3-5.53s4.32-3.45,6.35-5.18A72.27,72.27,0,0,0,54.67,52.7,46.87,46.87,0,0,0,62,38.62,52.38,52.38,0,0,0,64.21,22.7c0-2.72-.12-5.45-.32-8.18S63.42,9.05,63.11,6.32Z"/><path class="cls-2" d="M47.91,218.5c3.24-4.58,6.66-9,9.76-13.64,1.56-2.3,3-4.66,4.4-7.06a72.58,72.58,0,0,0,3.6-7.43c.28-.62.48-1.28.72-1.92s.48-1.28.65-1.94l.59-2,.46-2a19.53,19.53,0,0,0,.37-2c.09-.66.23-1.34.28-2a18.25,18.25,0,0,0,.08-2l0-1-.11-1a18.73,18.73,0,0,0-2.57-7.36,31.75,31.75,0,0,0-5-6.28A51.32,51.32,0,0,0,55,155.65a50.86,50.86,0,0,0-7-4.25,65.56,65.56,0,0,0-7.54-3.28c-2.59-.94-5.25-1.74-7.93-2.65a57.72,57.72,0,0,1-7.88-3.23,26.69,26.69,0,0,1-7-5,16.76,16.76,0,0,1-4.28-7.41,20.12,20.12,0,0,1-.28-8.42,21.14,21.14,0,0,0,1,8.2,16.06,16.06,0,0,0,4.48,6.67,25.62,25.62,0,0,0,6.85,4.35,62.31,62.31,0,0,0,7.76,2.81c2.65.79,5.38,1.5,8.07,2.42a68.21,68.21,0,0,1,7.9,3.23,50.08,50.08,0,0,1,7.38,4.4,53.08,53.08,0,0,1,6.52,5.61A35,35,0,0,1,68.41,166a21,21,0,0,1,2.82,8.4l.1,1.11v1.12a16.59,16.59,0,0,1-.14,2.23c-.07.74-.23,1.43-.35,2.14a19,19,0,0,1-.44,2.12,44.4,44.4,0,0,1-2.79,8.11,65,65,0,0,1-4,7.5c-1.53,2.38-3.14,4.7-4.84,6.94C55.31,210.1,51.61,214.3,47.91,218.5Z"/><path class="cls-3" d="M46.45,213.28c3.34-9.07,7-18,10.29-27,1.62-4.52,3.24-9,4.61-13.63.73-2.28,1.35-4.58,2-6.87s1.25-4.61,1.78-6.93a163.08,163.08,0,0,0,4.22-28.13,67.7,67.7,0,0,0-.64-13.87,67.08,67.08,0,0,0-3.56-13.4,82.92,82.92,0,0,0-6.06-12.61,78.52,78.52,0,0,0-8-11.49,61.59,61.59,0,0,0-10-9.61,103.38,103.38,0,0,0-11.94-7.6,56.53,56.53,0,0,1-12-8.92A38.12,38.12,0,0,1,9,40.67c-.23-.58-.51-1.14-.7-1.73l-.53-1.78a28.2,28.2,0,0,1-.95-3.58L6.16,30c-.15-1.22-.24-2.44-.35-3.66l-.16-1.82c0-.61,0-1.22,0-1.83V19c.1-2.42.38-4.84.56-7.24.09,2.42.09,4.83.26,7.22l.35,3.58c.06.6.1,1.19.18,1.79l.33,1.76L8,29.62l1,3.43a27.16,27.16,0,0,0,1.16,3.32L10.7,38c.21.55.52,1.05.77,1.57a35.41,35.41,0,0,0,8.24,11.05,55.61,55.61,0,0,0,11.56,7.78c2.1,1.12,4.27,2.19,6.44,3.42A68.4,68.4,0,0,1,44,65.89,66.63,66.63,0,0,1,55.06,76a78.68,78.68,0,0,1,8.63,12.15,87.36,87.36,0,0,1,6.57,13.38A69.61,69.61,0,0,1,74.5,131a150.52,150.52,0,0,1-5.25,28.87,205.59,205.59,0,0,1-10,27.35C55.23,196.08,50.88,204.7,46.45,213.28Z"/><path class="cls-1" d="M85.08,169.88S79.6,158.07,100.94,128C100.94,128,110.69,172.08,85.08,169.88Z"/><path class="cls-2" d="M86.78,167.88s12-11.44,13.42-36.85"/></g></svg>