<svg id="Iconpack" xmlns="http://www.w3.org/2000/svg" viewBox="0 0 126.83 215"><defs><style>.cls-1{fill:#b3c18a;}.cls-2{fill:#5f6b4d;}</style></defs><g id="Plant"><path class="cls-1" d="M116,13.5c3.41,11.09,5,22.92,3.64,34.66a62.1,62.1,0,0,1-13.67,32.41C105,81.74,104,82.84,103,84s-2,2.2-3.07,3.26a87.66,87.66,0,0,1-6.73,5.9,93.22,93.22,0,0,1-15,9.7q-4,2.09-8.06,3.85c-2.86,1.22-5.57,2.14-8.24,3.19s-5.23,2.12-7.65,3.35a26.52,26.52,0,0,0-6.36,4.25,9.57,9.57,0,0,0-1.93,2.5,5.53,5.53,0,0,0-.65,2.52A9.07,9.07,0,0,0,47.56,128a20,20,0,0,0,5.58,4.44,37.18,37.18,0,0,0,3.52,1.74c1.23.58,2.54,1.09,3.86,1.7a48.31,48.31,0,0,1,8.09,4.33c.65.46,1.29,1,1.92,1.48s1.3.89,1.92,1.41A28,28,0,0,1,76,146.46a17.65,17.65,0,0,1,4.49,9.23,18.39,18.39,0,0,1-1.71,9.92,34.51,34.51,0,0,1-5.11,7.84,65.26,65.26,0,0,1-6.3,6.46,122,122,0,0,1-14.13,10.64c-9.79,6.47-20.16,11.82-30.54,17.06,2.43-1.61,4.89-3.16,7.33-4.73l7.3-4.76c4.83-3.21,9.57-6.55,14.16-10a127.37,127.37,0,0,0,13-11.22,60.73,60.73,0,0,0,5.54-6.31,30.23,30.23,0,0,0,4-6.95,13.22,13.22,0,0,0,.91-7.08,11.87,11.87,0,0,0-3.32-6.06A22.56,22.56,0,0,0,68.78,148c-.51-.4-1.09-.73-1.63-1.11s-1.2-.53-1.81-.76c-2.44-1-5.06-1.83-7.8-2.84-1.37-.48-2.76-1.06-4.18-1.66a46.32,46.32,0,0,1-4.25-2.19,25.36,25.36,0,0,1-7.71-6.67A19.69,19.69,0,0,1,38.83,128a14.67,14.67,0,0,1-1-5.7,12.75,12.75,0,0,1,1.63-5.81A16.92,16.92,0,0,1,43,112.17a33.28,33.28,0,0,1,8.22-5.2,77.5,77.5,0,0,1,8.44-3.31c2.79-1,5.62-1.8,8.15-2.76s5.27-2.09,7.84-3.28c10.26-4.72,20-10.94,27.61-19.34a59.45,59.45,0,0,0,9.33-14.12,63.13,63.13,0,0,0,5.08-16.28C119.55,36.56,118.62,24.8,116,13.5Z"/></g><path class="cls-2" d="M37.5,209.88a45.63,45.63,0,0,1-7.62-10,31.22,31.22,0,0,1-3.73-12.35,30.69,30.69,0,0,1,2-13,48,48,0,0,1,6.39-11.39c1.26-1.76,2.67-3.39,4.06-5s2.92-3.14,4.46-4.61Q47.66,149,52.6,145c6.57-5.32,13.48-10.08,20.33-14.79,3.44-2.34,6.88-4.65,10.23-7,1.68-1.18,3.35-2.37,5-3.59.83-.6,1.62-1.22,2.4-1.85.39-.31.81-.62,1.17-.93l1-.93a26.35,26.35,0,0,0,6.49-9,38.85,38.85,0,0,0,2.89-11.22,64.83,64.83,0,0,0,.1-12,94.66,94.66,0,0,0-1.73-12.11,153.45,153.45,0,0,0-6.91-23.81A100.27,100.27,0,0,1,99.22,59a115.33,115.33,0,0,1,4.36,11.83c2.4,8.07,4,16.55,3.59,25.29,0,1.09-.19,2.19-.28,3.28s-.33,2.18-.5,3.28-.51,2.16-.8,3.24-.68,2.15-1.1,3.19A32.34,32.34,0,0,1,97,120.41L95.7,121.6c-.41.38-.83.69-1.24,1-.83.68-1.66,1.36-2.5,2-1.68,1.32-3.38,2.57-5.08,3.81-3.42,2.46-6.86,4.8-10.29,7.16s-6.86,4.66-10.23,7-6.71,4.77-10,7.23-6.44,5-9.45,7.73a86.61,86.61,0,0,0-8.42,8.62,47.45,47.45,0,0,0-6.46,9.9,27.38,27.38,0,0,0-2.73,11.3A30.32,30.32,0,0,0,31.5,199.1l1.2,2.81c.47.91,1,1.8,1.48,2.71.25.45.48.91.75,1.36l.85,1.29Z"/><path class="cls-2" d="M71.2,72.73a382.09,382.09,0,0,0-28.56,29.55c-8.83,10.34-17,21.26-23.23,33.08a92.73,92.73,0,0,0-7.53,18.39,61.12,61.12,0,0,0-2,9.64,62.91,62.91,0,0,0-.38,9.8,51.55,51.55,0,0,0,4.74,19.11,74.78,74.78,0,0,0,11.13,17A59.67,59.67,0,0,1,11.42,193.8a55.44,55.44,0,0,1-4.56-9.66,49.47,49.47,0,0,1-2.4-10.51,59.28,59.28,0,0,1,1.48-21.44A79.8,79.8,0,0,1,9.2,142a103.07,103.07,0,0,1,4.47-9.65c6.64-12.53,15.52-23.54,25.26-33.47a194.29,194.29,0,0,1,15.4-14A157.7,157.7,0,0,1,71.2,72.73Z"/></svg>