<svg id="Iconpack" xmlns="http://www.w3.org/2000/svg" viewBox="0 0 190.97 189.96"><defs><style>.cls-1{fill:#9a9281;}.cls-2{fill:#b2a790;}.cls-3{fill:#7d7769;}.cls-4{fill:#8baabe;}.cls-4,.cls-5{stroke:#d0d2d3;stroke-miterlimit:10;stroke-width:0.83px;}.cls-5{fill:none;}</style></defs><g id="Brown-building-right"><rect class="cls-1" x="16.47" y="16.8" width="163.81" height="165.69"/><rect class="cls-2" x="7.77" y="9.5" width="172.52" height="10.43"/><path class="cls-3" d="M16.08,31.94l-8.31-12h8.87l-.13,11.88A.24.24,0,0,1,16.08,31.94Z"/><path class="cls-3" d="M53.31,19.93h5.37a0,0,0,0,1,0,0v9.65A2.46,2.46,0,0,1,56.22,32h-.46a2.46,2.46,0,0,1-2.46-2.46V19.93a0,0,0,0,1,0,0Z"/><path class="cls-3" d="M79.93,19.93H85.3a0,0,0,0,1,0,0v9.65A2.46,2.46,0,0,1,82.84,32h-.46a2.46,2.46,0,0,1-2.46-2.46V19.93a0,0,0,0,1,0,0Z"/><path class="cls-3" d="M134,19.93h5.37a0,0,0,0,1,0,0v9.65A2.46,2.46,0,0,1,136.87,32h-.46A2.46,2.46,0,0,1,134,29.58V19.93A0,0,0,0,1,134,19.93Z"/><path class="cls-3" d="M160.57,19.93h5.37a0,0,0,0,1,0,0v9.65A2.46,2.46,0,0,1,163.49,32H163a2.46,2.46,0,0,1-2.46-2.46V19.93A0,0,0,0,1,160.57,19.93Z"/><path class="cls-3" d="M106.55,19.93h5.37a0,0,0,0,1,0,0v9.65A2.46,2.46,0,0,1,109.46,32H109a2.46,2.46,0,0,1-2.46-2.46V19.93A0,0,0,0,1,106.55,19.93Z"/><path class="cls-3" d="M46.1,53.62h2.29A12.28,12.28,0,0,1,60.67,65.9v35a0,0,0,0,1,0,0H33.82a0,0,0,0,1,0,0v-35A12.28,12.28,0,0,1,46.1,53.62Z"/><path class="cls-4" d="M46.27,55h2A10.46,10.46,0,0,1,58.68,65.47V99.89a0,0,0,0,1,0,0H35.81a0,0,0,0,1,0,0V65.47A10.46,10.46,0,0,1,46.27,55Z"/><line class="cls-5" x1="35.85" y1="68.34" x2="58.64" y2="68.34"/><path class="cls-3" d="M99.28,53.62h2.29A12.28,12.28,0,0,1,113.85,65.9v35a0,0,0,0,1,0,0H87a0,0,0,0,1,0,0v-35A12.28,12.28,0,0,1,99.28,53.62Z"/><path class="cls-4" d="M99.56,55h2A10.46,10.46,0,0,1,112,65.47V99.89a0,0,0,0,1,0,0H89.1a0,0,0,0,1,0,0V65.47A10.46,10.46,0,0,1,99.56,55Z"/><line class="cls-5" x1="89.14" y1="68.34" x2="111.93" y2="68.34"/><path class="cls-3" d="M46.1,124.45h2.29a12.28,12.28,0,0,1,12.28,12.28v35a0,0,0,0,1,0,0H33.82a0,0,0,0,1,0,0v-35A12.28,12.28,0,0,1,46.1,124.45Z"/><path class="cls-4" d="M46.27,125.84h2A10.46,10.46,0,0,1,58.68,136.3v34.42a0,0,0,0,1,0,0H35.81a0,0,0,0,1,0,0V136.3a10.46,10.46,0,0,1,10.46-10.46Z"/><line class="cls-5" x1="35.85" y1="139.17" x2="58.64" y2="139.17"/><path class="cls-3" d="M99.28,124.45h2.29a12.28,12.28,0,0,1,12.28,12.28v35a0,0,0,0,1,0,0H87a0,0,0,0,1,0,0v-35a12.28,12.28,0,0,1,12.28-12.28Z"/><path class="cls-4" d="M99.56,125.84h2A10.46,10.46,0,0,1,112,136.3v34.42a0,0,0,0,1,0,0H89.1a0,0,0,0,1,0,0V136.3A10.46,10.46,0,0,1,99.56,125.84Z"/><line class="cls-5" x1="89.14" y1="139.17" x2="111.93" y2="139.17"/><path class="cls-3" d="M155.23,53.62h2.29A12.28,12.28,0,0,1,169.8,65.9v35a0,0,0,0,1,0,0H143a0,0,0,0,1,0,0v-35A12.28,12.28,0,0,1,155.23,53.62Z"/><path class="cls-4" d="M155.51,55h2a10.46,10.46,0,0,1,10.46,10.46V99.89a0,0,0,0,1,0,0H145.05a0,0,0,0,1,0,0V65.47A10.46,10.46,0,0,1,155.51,55Z"/><line class="cls-5" x1="145.09" y1="68.34" x2="167.88" y2="68.34"/><path class="cls-3" d="M155.23,124.45h2.29a12.28,12.28,0,0,1,12.28,12.28v35a0,0,0,0,1,0,0H143a0,0,0,0,1,0,0v-35a12.28,12.28,0,0,1,12.28-12.28Z"/><path class="cls-4" d="M155.51,125.84h2a10.46,10.46,0,0,1,10.46,10.46v34.42a0,0,0,0,1,0,0H145.05a0,0,0,0,1,0,0V136.3A10.46,10.46,0,0,1,155.51,125.84Z"/><line class="cls-5" x1="145.09" y1="139.17" x2="167.88" y2="139.17"/><path class="cls-3" d="M26.69,19.93h5.37a0,0,0,0,1,0,0v9.65A2.46,2.46,0,0,1,29.6,32h-.46a2.46,2.46,0,0,1-2.46-2.46V19.93a0,0,0,0,1,0,0Z"/><rect class="cls-3" x="7.77" y="18.54" width="172.52" height="2.67"/><rect class="cls-3" x="33.82" y="100.2" width="26.85" height="1.86"/></g></svg>