<svg id="Iconpack" xmlns="http://www.w3.org/2000/svg" viewBox="0 0 107.97 193.87"><defs><style>.cls-1{fill:#8c5848;}.cls-2{fill:#774030;}.cls-3{fill:#8baabe;}.cls-3,.cls-4{stroke:#d0d2d3;stroke-miterlimit:10;stroke-width:0.61px;}.cls-4{fill:none;}.cls-5{fill:#6e6f70;}.cls-6{fill:#2d231f;}.cls-7{fill:#546451;}.cls-8{fill:#4a5847;}.cls-9{fill:#5f6f5a;}.cls-10{fill:#808284;}</style></defs><g id="Brown-building-left"><rect class="cls-1" x="3.71" y="57.58" width="82.41" height="133.54" transform="translate(89.83 248.7) rotate(-180)"/><path class="cls-2" d="M38.55,92.3c0-10-5-14-11.45-14h-4c-6.4,0-11.59,4-11.63,13.93h0v.11h0v31.49H38.55V92.3h0Z"/><rect class="cls-3" x="12.34" y="113.31" width="25.22" height="8.41"/><rect class="cls-3" x="12.34" y="92.57" width="25.01" height="29.14"/><path class="cls-3" d="M12.34,92.67h0c0-9.19,4.8-13,10.73-13h3.72c5.93,0,10.73,3.76,10.73,13h0"/><line class="cls-4" x1="24.93" y1="79.72" x2="24.93" y2="121.72"/><line class="cls-4" x1="12.37" y1="92.67" x2="37.56" y2="92.67"/><polyline class="cls-4" points="37.52 92.67 37.52 121.72 12.34 121.72 12.34 92.67"/><path class="cls-2" d="M71.18,92.3c0-10-5-14-11.45-14h-4c-6.41,0-11.6,4-11.64,13.93h0v.11h0v31.49H71.18V92.3h0Z"/><rect class="cls-3" x="45.1" y="113.31" width="25.22" height="8.41"/><rect class="cls-3" x="45.1" y="92.57" width="25.01" height="29.14"/><path class="cls-3" d="M45.1,92.67h0c0-9.19,4.81-13,10.74-13h3.72c5.92,0,10.73,3.76,10.73,13h0"/><line class="cls-4" x1="57.7" y1="79.72" x2="57.7" y2="121.72"/><line class="cls-4" x1="45.14" y1="92.67" x2="70.32" y2="92.67"/><polyline class="cls-4" points="70.29 92.67 70.29 121.72 45.1 121.72 45.1 92.67"/><path class="cls-2" d="M38.55,156.14c0-10-5-14-11.45-14h-4c-6.4,0-11.59,4.05-11.63,13.94h0v.1h0v31.5H38.55v-31.5h0Z"/><rect class="cls-3" x="12.34" y="177.15" width="25.22" height="8.41"/><rect class="cls-3" x="12.34" y="156.42" width="25.01" height="29.14"/><path class="cls-3" d="M12.34,156.51h0c0-9.18,4.8-12.95,10.73-12.95h3.72c5.93,0,10.73,3.77,10.73,12.95h0"/><line class="cls-4" x1="24.93" y1="143.56" x2="24.93" y2="185.56"/><line class="cls-4" x1="12.37" y1="156.51" x2="37.56" y2="156.51"/><polyline class="cls-4" points="37.52 156.51 37.52 185.56 12.34 185.56 12.34 156.51"/><path class="cls-2" d="M71.18,156.14c0-10-5-14-11.45-14h-4c-6.41,0-11.6,4.05-11.64,13.94h0v.1h0v31.5H71.18v-31.5h0Z"/><rect class="cls-3" x="45.1" y="177.15" width="25.22" height="8.41"/><rect class="cls-3" x="45.1" y="156.42" width="25.01" height="29.14"/><path class="cls-3" d="M45.1,156.51h0c0-9.18,4.81-12.95,10.74-12.95h3.72c5.92,0,10.73,3.77,10.73,12.95h0"/><line class="cls-4" x1="57.7" y1="143.56" x2="57.7" y2="185.56"/><line class="cls-4" x1="45.14" y1="156.51" x2="70.32" y2="156.51"/><polyline class="cls-4" points="70.29 156.51 70.29 185.56 45.1 185.56 45.1 156.51"/><path class="cls-5" d="M86.37,70.77,94,59.89H85.86L86,70.66A.21.21,0,0,0,86.37,70.77Z"/><polygon class="cls-6" points="39.62 4.53 3.71 4.53 3.71 59.89 94.4 59.89 39.62 4.53"/><path class="cls-7" d="M64.11,54.65c-5.36-.24-17-17.78-17-17.78H71.52l25.1,17.79H64.11"/><path class="cls-8" d="M105.09,38.65,96.83,54.07l-33.38.59s-2.54-.29-2.71-1.57,4.09,6.56,15.34-14.44Z"/><path class="cls-9" d="M104.7,39.24,96.44,54.66H63.93c2.51.12,6.48-3.74,12.73-15.41Z"/><path class="cls-10" d="M10.37,54.49H96.26a0,0,0,0,1,0,0v7.28a0,0,0,0,1,0,0H3.71a0,0,0,0,1,0,0v-.62A6.66,6.66,0,0,1,10.37,54.49Z" transform="translate(99.97 116.27) rotate(180)"/><rect class="cls-2" x="3.71" y="61.82" width="82.41" height="1.94"/></g></svg>