<svg width="490" height="550" viewBox="0 0 490 550" fill="none" xmlns="http://www.w3.org/2000/svg">
<path d="M258.846 0H208.417C128.097 0 63.001 42.2297 63.001 145.276V471.253H404.241V145.296C404.241 42.2297 339.146 0 258.846 0Z" fill="#979081"/>
<path d="M26.0059 472.965L26.0059 541.225H438.432V472.965H26.0059Z" fill="#BFB197"/>
<path d="M389.097 375.668H77.3691V466.515H389.097V375.668Z" fill="#3F3228"/>
<path d="M386.53 151.584H74.8027V375.668H386.53V151.584Z" fill="#83939E"/>
<path d="M218.486 274.753C215.441 277.937 202.864 266.295 200.157 264.922C181.053 255.29 184.237 214.672 198.764 203.846C212.078 193.896 231.064 203.548 246.248 208.782C253.731 211.369 264.557 212.503 266.706 220.404C270.348 233.797 269.154 248.265 254.467 248.265C234.725 248.185 218.526 274.713 218.486 274.753Z" fill="#272726"/>
<path d="M258.945 294.114C262.348 294.87 267.702 293.557 269.692 296.482C275.662 305.398 277.015 326.214 277.831 335.687C278.727 346.235 279.642 354.394 280.538 364.941L314.369 397.997L338.807 415.092C338.807 415.092 318.25 418.793 313.334 407.549C312.558 405.798 266.826 373.718 266.826 373.718L258.428 320.383L258.945 294.114Z" fill="#7B6A58"/>
<path d="M239.303 292.801C236.616 290.154 241.572 279.666 238.945 277.975C238.945 277.975 214.248 262.054 218.148 267.049C221.333 271.029 220.815 279.189 220.139 283.846C219.78 286.333 219.263 290.075 217.173 291.806C215.999 292.801 207.999 293.796 208.039 293.179L206.526 311.946L232.796 319.906L253.234 293.199C249.671 293.199 243.025 294.592 239.741 293.199C239.575 293.091 239.427 292.956 239.303 292.801V292.801Z" fill="#6F6050"/>
<path d="M254.507 354.695C254.01 367.213 259.104 376.327 261.214 388.526C264.296 406.541 266.389 424.711 267.483 442.955C237.962 446.132 208.186 446.132 178.665 442.955C178.665 442.955 182.108 414.338 194.427 389.939C206.745 365.541 203.282 354.556 203.282 354.556V319.232L199.999 293.201H212.079C218.013 296.254 224.59 297.847 231.263 297.847C237.936 297.847 244.514 296.254 250.448 293.201H260.239C262.109 301.301 263.562 314.037 264.597 322.336C265.97 333.202 258.885 337.222 255.841 346.774C253.89 352.824 254.746 348.426 254.507 354.695Z" fill="#FFE09A"/>
<path d="M254.308 235.705C254.984 252.124 254.467 282.174 243.601 282.532C232.735 282.89 220.655 277.139 220.655 277.139C220.655 277.139 202.745 257.954 212.695 235.705C222.646 213.456 253.651 220.063 254.308 235.705Z" fill="#7B6A58"/>
<path d="M101.31 416.886H362.549L393.654 449.921H70.4834L101.31 416.886Z" fill="#3C3C3B"/>
<path d="M115.798 416.886L98.0068 437.682H365.495L348.977 416.886H115.798Z" fill="#F0F0F0"/>
<path d="M393.674 449.939H70.4834V461.024H393.674V449.939Z" fill="#272726"/>
<path d="M108.714 437.679L118.246 424.743H121.411L112.833 437.679H108.714Z" fill="#272726"/>
<path d="M114.803 437.679L124.335 424.743H127.519L118.942 437.679H114.803Z" fill="#272726"/>
<path d="M128.713 437.679L138.245 424.743H141.43L132.852 437.679H128.713Z" fill="#272726"/>
<path d="M134.823 437.679L144.356 424.743H147.52L138.943 437.679H134.823Z" fill="#272726"/>
<path d="M141.172 437.679L150.704 424.743H153.889L145.311 437.679H141.172Z" fill="#272726"/>
<path d="M156.316 437.679L165.531 424.743H168.695L160.456 437.679H156.316Z" fill="#272726"/>
<path d="M162.426 437.679L170.963 424.743H174.804L166.545 437.679H162.426Z" fill="#272726"/>
<path d="M200.158 294.435C196.735 295.191 197.034 294.116 193.989 296.425C185.491 303.072 186.665 326.157 185.85 335.629C184.954 346.177 184.039 354.336 183.143 364.884L168.496 409.76L148.734 429.661C148.734 429.661 166.944 430.915 171.78 421.8C172.675 420.109 196.795 371.491 196.795 371.491L202.984 333.341L203.283 319.251L200.158 294.435Z" fill="#7B6A58"/>
<path d="M176.496 437.679L183.083 424.743H186.765L180.635 437.679H176.496Z" fill="#272726"/>
<path d="M183.322 437.679L189.909 424.743H193.591L187.462 437.679H183.322Z" fill="#272726"/>
<path d="M189.671 437.679L196.258 424.743H199.94L193.81 437.679H189.671Z" fill="#272726"/>
<path d="M204.795 437.679L209.113 424.743H213.054L208.914 437.679H204.795Z" fill="#272726"/>
<path d="M210.885 437.679L215.223 424.743H219.104L215.024 437.679H210.885Z" fill="#272726"/>
<path d="M225.253 437.679L226.805 424.743H230.646L229.372 437.679H225.253Z" fill="#272726"/>
<path d="M231.343 437.679L232.915 424.743H236.736L235.482 437.679H231.343Z" fill="#272726"/>
<path d="M237.691 437.679L239.264 424.743H243.104L241.831 437.679H237.691Z" fill="#272726"/>
<path d="M360.917 437.679L351.385 424.743H348.221L356.778 437.679H360.917Z" fill="#272726"/>
<path d="M354.807 437.679L345.294 424.743H342.11L350.688 437.679H354.807Z" fill="#272726"/>
<path d="M340.917 437.679L331.384 424.743H328.2L336.777 437.679H340.917Z" fill="#272726"/>
<path d="M334.807 437.679L325.275 424.743H322.091L330.668 437.679H334.807Z" fill="#272726"/>
<path d="M328.459 437.679L318.926 424.743H315.742L324.319 437.679H328.459Z" fill="#272726"/>
<path d="M313.315 437.679L304.101 424.743H300.937L309.175 437.679H313.315Z" fill="#272726"/>
<path d="M307.205 437.679L298.647 424.743H294.826L303.085 437.679H307.205Z" fill="#272726"/>
<path d="M293.116 437.679L286.528 424.743H282.847L288.996 437.679H293.116Z" fill="#272726"/>
<path d="M286.309 437.679L279.722 424.743H276.04L282.169 437.679H286.309Z" fill="#272726"/>
<path d="M279.941 437.679L273.354 424.743H269.672L275.821 437.679H279.941Z" fill="#272726"/>
<path d="M264.835 437.679L260.497 424.743H256.557L260.716 437.679H264.835Z" fill="#272726"/>
<path d="M258.745 437.679L254.407 424.743H250.526L254.606 437.679H258.745Z" fill="#272726"/>
<path d="M218.487 274.751C218.487 274.751 209.651 248.402 223.085 241.576C234.408 235.824 243.105 230.252 243.105 230.252C243.105 230.252 246.667 246.173 256.558 247.506C266.448 248.84 253.314 218.451 253.314 218.451L223.085 215.625L202.447 224.58L199.96 241.576L198.766 252.74L218.487 274.751Z" fill="#272726"/>
<path d="M218.487 274.753C218.487 274.753 188.317 225.498 249.851 209.697L234.308 204.423C234.308 204.423 184.277 215.01 218.487 274.753Z" fill="#FFE09A"/>
<path d="M3 227.328V541.244L77.3696 466.516L73.7078 159.585L3 227.328Z" fill="#9DB5C6" stroke="#DADADA" stroke-width="5" stroke-miterlimit="10"/>
<path d="M77.3691 152.601C77.3691 53.3551 136.773 12.6777 210.028 12.6777H256.019C329.274 12.6777 388.679 53.3551 388.679 152.601" fill="#9DB5C6"/>
<path d="M77.3691 152.601C77.3691 53.3551 136.773 12.6777 210.028 12.6777H256.019C329.274 12.6777 388.679 53.3551 388.679 152.601" stroke="#DADADA" stroke-width="5" stroke-miterlimit="10"/>
<path d="M233.015 12.6777V153.198" stroke="#DADADA" stroke-width="5" stroke-miterlimit="10"/>
<path d="M77.7881 152.6H389.098" stroke="#DADADA" stroke-width="5" stroke-miterlimit="10"/>
<path d="M388.679 152.6V466.516H77.3691V152.6" stroke="#DADADA" stroke-width="5" stroke-miterlimit="10"/>
<path d="M487.228 192.163V506.079L388.679 466.516V152.6L487.228 192.163Z" fill="#9DB5C6" stroke="#DADADA" stroke-width="5" stroke-miterlimit="10"/>
<path d="M141.789 377.877C142.414 373.768 142.534 369.598 142.147 365.459C141.619 361.364 140.576 357.352 139.043 353.519C137.415 349.645 136.084 345.653 135.063 341.578C134.144 337.424 133.73 333.174 133.829 328.921C133.979 324.685 134.572 320.476 135.6 316.364C136.595 312.284 137.769 308.284 138.665 304.264C140.535 296.304 139.879 287.806 139.361 279.487C140.038 283.607 140.595 287.746 140.874 291.945C141.138 296.164 140.905 300.399 140.177 304.562C139.481 308.722 138.187 312.742 137.351 316.782C136.416 320.783 135.902 324.872 135.819 328.981C135.672 333.079 136.006 337.18 136.814 341.2C137.786 345.241 138.975 349.227 140.376 353.14C141.779 357.13 142.662 361.284 143.003 365.499C143.168 369.661 142.759 373.826 141.789 377.877V377.877Z" fill="#006633"/>
<path d="M139.162 309.617C139.162 309.617 140.495 304.403 147.64 300.622C147.64 300.662 144.973 314.871 139.162 309.617Z" fill="#006633"/>
<path d="M136.098 331.307C136.098 331.307 136.715 323.645 145.869 316.601C145.869 316.601 145.57 337.238 136.098 331.307Z" fill="#006633"/>
<path d="M139.799 298.076C139.799 298.076 139.401 292.942 133.251 288.126C133.212 288.186 133.411 302.076 139.799 298.076Z" fill="#006633"/>
<path d="M134.525 339.67C134.525 339.67 134.027 333.7 126.843 328.107C126.843 328.107 127.082 344.327 134.525 339.67Z" fill="#006633"/>
<path d="M134.307 322.216C134.307 322.216 134.963 315.49 128.137 307.947C128.137 307.947 125.172 325.898 134.307 322.216Z" fill="#006633"/>
<path d="M118.366 386.773L106.624 344.305L167.103 342.932L158.227 386.773H118.366Z" fill="#703623"/>
<path d="M25.9854 541.245V550.001H438.411V541.245H25.9854Z" fill="#888171"/>
<path d="M293.055 217.1C296.891 217.1 300 213.99 300 210.154C300 206.319 296.891 203.209 293.055 203.209C289.219 203.209 286.109 206.319 286.109 210.154C286.109 213.99 289.219 217.1 293.055 217.1Z" fill="#12100B"/>
<path d="M296.937 210.352L298.787 173.157L324.559 174.431L324.42 177.356L301.554 176.202L299.842 210.491L296.937 210.352Z" fill="#12100B"/>
<path d="M315.781 218.234C319.617 218.234 322.727 215.124 322.727 211.288C322.727 207.452 319.617 204.343 315.781 204.343C311.945 204.343 308.836 207.452 308.836 211.288C308.836 215.124 311.945 218.234 315.781 218.234Z" fill="#12100B"/>
<path d="M319.922 211.486L321.713 175.744L324.618 175.903L322.847 211.645L319.922 211.486Z" fill="#12100B"/>
<path d="M299.842 181.016L299.696 183.938L322.693 185.082L322.839 182.161L299.842 181.016Z" fill="#12100B"/>
<path d="M348.877 357.858C352.713 357.858 355.822 354.748 355.822 350.912C355.822 347.076 352.713 343.967 348.877 343.967C345.041 343.967 341.932 347.076 341.932 350.912C341.932 354.748 345.041 357.858 348.877 357.858Z" fill="#12100B"/>
<path d="M353.335 353.995C353.069 353.815 352.871 353.55 352.773 353.243C352.676 352.936 352.685 352.605 352.798 352.304L364.858 318.612C364.922 318.431 365.022 318.264 365.151 318.122C365.281 317.98 365.437 317.865 365.611 317.783C365.785 317.702 365.973 317.656 366.165 317.648C366.357 317.64 366.548 317.67 366.729 317.736C366.91 317.801 367.076 317.9 367.218 318.029C367.36 318.159 367.475 318.315 367.557 318.489C367.638 318.663 367.684 318.851 367.693 319.043C367.701 319.235 367.671 319.426 367.604 319.607L355.544 353.398C355.48 353.579 355.38 353.746 355.251 353.888C355.122 354.03 354.966 354.145 354.792 354.227C354.618 354.308 354.429 354.354 354.237 354.362C354.046 354.37 353.854 354.34 353.674 354.274C353.544 354.204 353.429 354.11 353.335 353.995Z" fill="#12100B"/>
<path d="M360.2 248.801C364.036 248.801 367.146 245.691 367.146 241.856C367.146 238.02 364.036 234.91 360.2 234.91C356.364 234.91 353.255 238.02 353.255 241.856C353.255 245.691 356.364 248.801 360.2 248.801Z" fill="#12100B"/>
<path d="M366.251 241.616H365.992C365.623 241.721 365.227 241.675 364.891 241.488C364.556 241.302 364.307 240.99 364.201 240.621L354.251 206.213C354.196 206.028 354.178 205.835 354.199 205.644C354.219 205.453 354.277 205.268 354.37 205.099C354.463 204.931 354.588 204.782 354.738 204.663C354.888 204.543 355.061 204.454 355.246 204.402C355.62 204.297 356.021 204.346 356.36 204.536C356.7 204.726 356.95 205.042 357.057 205.417L367.007 239.805C367.126 240.147 367.114 240.521 366.975 240.855C366.835 241.189 366.577 241.46 366.251 241.616V241.616Z" fill="#12100B"/>
<path d="M321.752 303.031C325.588 303.031 328.697 299.922 328.697 296.086C328.697 292.25 325.588 289.141 321.752 289.141C317.916 289.141 314.807 292.25 314.807 296.086C314.807 299.922 317.916 303.031 321.752 303.031Z" fill="#12100B"/>
<path d="M327.206 296.246C326.876 296.245 326.557 296.132 326.301 295.926C326.044 295.72 325.865 295.433 325.793 295.111L316.399 255.887L331.106 268.862C331.25 268.993 331.366 269.15 331.449 269.326C331.532 269.502 331.579 269.692 331.589 269.886C331.598 270.08 331.569 270.274 331.503 270.457C331.437 270.64 331.336 270.808 331.206 270.952C331.075 271.095 330.917 271.212 330.742 271.295C330.566 271.378 330.376 271.425 330.181 271.434C329.987 271.443 329.793 271.414 329.611 271.349C329.428 271.283 329.26 271.182 329.116 271.051L321.315 264.185L328.579 294.494C328.668 294.874 328.603 295.274 328.398 295.607C328.193 295.939 327.864 296.176 327.484 296.266L327.206 296.246Z" fill="#12100B"/>
<path d="M147.564 516V490.406H156.529C159.635 490.406 161.99 491.004 163.596 492.199C165.201 493.383 166.004 495.123 166.004 497.42C166.004 498.674 165.682 499.781 165.037 500.742C164.393 501.691 163.496 502.389 162.348 502.834C163.66 503.162 164.691 503.824 165.441 504.82C166.203 505.816 166.584 507.035 166.584 508.477C166.584 510.938 165.799 512.801 164.229 514.066C162.658 515.332 160.42 515.977 157.514 516H147.564ZM152.838 504.855V511.764H157.355C158.598 511.764 159.564 511.471 160.256 510.885C160.959 510.287 161.311 509.467 161.311 508.424C161.311 506.08 160.098 504.891 157.672 504.855H152.838ZM152.838 501.129H156.74C159.4 501.082 160.73 500.021 160.73 497.947C160.73 496.787 160.391 495.955 159.711 495.451C159.043 494.936 157.982 494.678 156.529 494.678H152.838V501.129Z" fill="white"/>
<path d="M178.977 516.352C176.188 516.352 173.914 515.496 172.156 513.785C170.41 512.074 169.537 509.795 169.537 506.947V506.455C169.537 504.545 169.906 502.84 170.645 501.34C171.383 499.828 172.426 498.668 173.773 497.859C175.133 497.039 176.68 496.629 178.414 496.629C181.016 496.629 183.061 497.449 184.549 499.09C186.049 500.73 186.799 503.057 186.799 506.068V508.143H174.688C174.852 509.385 175.344 510.381 176.164 511.131C176.996 511.881 178.045 512.256 179.311 512.256C181.268 512.256 182.797 511.547 183.898 510.129L186.395 512.924C185.633 514.002 184.602 514.846 183.301 515.455C182 516.053 180.559 516.352 178.977 516.352ZM178.396 500.742C177.389 500.742 176.568 501.082 175.936 501.762C175.314 502.441 174.916 503.414 174.74 504.68H181.807V504.275C181.783 503.15 181.479 502.283 180.893 501.674C180.307 501.053 179.475 500.742 178.396 500.742Z" fill="white"/>
<path d="M188.908 506.35C188.908 503.385 189.57 501.023 190.895 499.266C192.23 497.508 194.053 496.629 196.361 496.629C198.213 496.629 199.742 497.32 200.949 498.703V489H206.047V516H201.459L201.213 513.979C199.947 515.561 198.318 516.352 196.326 516.352C194.088 516.352 192.289 515.473 190.93 513.715C189.582 511.945 188.908 509.49 188.908 506.35ZM193.988 506.719C193.988 508.5 194.299 509.865 194.92 510.814C195.541 511.764 196.443 512.238 197.627 512.238C199.197 512.238 200.305 511.576 200.949 510.252V502.746C200.316 501.422 199.221 500.76 197.662 500.76C195.213 500.76 193.988 502.746 193.988 506.719Z" fill="white"/>
<path d="M218.738 516.352C215.949 516.352 213.676 515.496 211.918 513.785C210.172 512.074 209.299 509.795 209.299 506.947V506.455C209.299 504.545 209.668 502.84 210.406 501.34C211.145 499.828 212.188 498.668 213.535 497.859C214.895 497.039 216.441 496.629 218.176 496.629C220.777 496.629 222.822 497.449 224.311 499.09C225.811 500.73 226.561 503.057 226.561 506.068V508.143H214.449C214.613 509.385 215.105 510.381 215.926 511.131C216.758 511.881 217.807 512.256 219.072 512.256C221.029 512.256 222.559 511.547 223.66 510.129L226.156 512.924C225.395 514.002 224.363 514.846 223.062 515.455C221.762 516.053 220.32 516.352 218.738 516.352ZM218.158 500.742C217.15 500.742 216.33 501.082 215.697 501.762C215.076 502.441 214.678 503.414 214.502 504.68H221.568V504.275C221.545 503.15 221.24 502.283 220.654 501.674C220.068 501.053 219.236 500.742 218.158 500.742Z" fill="white"/>
<path d="M234.137 496.98L234.295 499.178C235.654 497.479 237.477 496.629 239.762 496.629C241.777 496.629 243.277 497.221 244.262 498.404C245.246 499.588 245.75 501.357 245.773 503.713V516H240.693V503.836C240.693 502.758 240.459 501.979 239.99 501.498C239.521 501.006 238.742 500.76 237.652 500.76C236.223 500.76 235.15 501.369 234.436 502.588V516H229.355V496.98H234.137Z" fill="white"/>
<path d="M256.549 508.371L254.721 510.199V516H249.641V489H254.721V503.959L255.705 502.693L260.574 496.98H266.674L259.801 504.908L267.271 516H261.436L256.549 508.371Z" fill="white"/>
<path d="M277.273 516.352C274.484 516.352 272.211 515.496 270.453 513.785C268.707 512.074 267.834 509.795 267.834 506.947V506.455C267.834 504.545 268.203 502.84 268.941 501.34C269.68 499.828 270.723 498.668 272.07 497.859C273.43 497.039 274.977 496.629 276.711 496.629C279.312 496.629 281.357 497.449 282.846 499.09C284.346 500.73 285.096 503.057 285.096 506.068V508.143H272.984C273.148 509.385 273.641 510.381 274.461 511.131C275.293 511.881 276.342 512.256 277.607 512.256C279.564 512.256 281.094 511.547 282.195 510.129L284.691 512.924C283.93 514.002 282.898 514.846 281.598 515.455C280.297 516.053 278.855 516.352 277.273 516.352ZM276.693 500.742C275.686 500.742 274.865 501.082 274.232 501.762C273.611 502.441 273.213 503.414 273.037 504.68H280.104V504.275C280.08 503.15 279.775 502.283 279.189 501.674C278.604 501.053 277.771 500.742 276.693 500.742Z" fill="white"/>
<path d="M298.684 501.744C297.992 501.65 297.383 501.604 296.855 501.604C294.934 501.604 293.674 502.254 293.076 503.555V516H287.996V496.98H292.795L292.936 499.248C293.955 497.502 295.367 496.629 297.172 496.629C297.734 496.629 298.262 496.705 298.754 496.857L298.684 501.744Z" fill="white"/>
<path d="M311.445 510.744C311.445 510.123 311.135 509.637 310.514 509.285C309.904 508.922 308.92 508.6 307.561 508.318C303.037 507.369 300.775 505.447 300.775 502.553C300.775 500.865 301.473 499.459 302.867 498.334C304.273 497.197 306.107 496.629 308.369 496.629C310.783 496.629 312.711 497.197 314.152 498.334C315.605 499.471 316.332 500.947 316.332 502.764H311.252C311.252 502.037 311.018 501.439 310.549 500.971C310.08 500.49 309.348 500.25 308.352 500.25C307.496 500.25 306.834 500.443 306.365 500.83C305.896 501.217 305.662 501.709 305.662 502.307C305.662 502.869 305.926 503.326 306.453 503.678C306.992 504.018 307.895 504.316 309.16 504.574C310.426 504.82 311.492 505.102 312.359 505.418C315.043 506.402 316.385 508.107 316.385 510.533C316.385 512.268 315.641 513.674 314.152 514.752C312.664 515.818 310.742 516.352 308.387 516.352C306.793 516.352 305.375 516.07 304.133 515.508C302.902 514.934 301.936 514.154 301.232 513.17C300.529 512.174 300.178 511.102 300.178 509.953H304.994C305.041 510.855 305.375 511.547 305.996 512.027C306.617 512.508 307.449 512.748 308.492 512.748C309.465 512.748 310.197 512.566 310.689 512.203C311.193 511.828 311.445 511.342 311.445 510.744Z" fill="white"/>
</svg>
