<svg width="524" height="550" viewBox="0 0 524 550" fill="none" xmlns="http://www.w3.org/2000/svg">
<path d="M272.812 0H222.404C142.085 0 76.9893 42.2293 76.9893 145.275V471.249H418.227V145.295C418.227 42.2293 353.132 0 272.812 0Z" fill="#979081"/>
<path d="M41.1699 472.987L41.1699 541.246H453.592V472.987H41.1699Z" fill="#BFB197"/>
<path d="M403.045 376.263H91.3203V467.11H403.045V376.263Z" fill="#3F3228"/>
<path d="M400.458 152.159H88.7334V376.241H400.458V152.159Z" fill="#809583"/>
<path d="M244.673 230.494C243.26 295.509 264.275 303.251 264.275 303.251C264.275 303.251 201.946 310.992 213.867 293.181C225.787 275.37 219.439 226.633 219.439 226.633L244.673 230.494Z" fill="#D5B390"/>
<path d="M277.154 317.757L277.513 320.722L288.757 414.255C288.757 414.255 211.82 423.25 192.138 410.892C192.138 410.892 191.9 339.249 194.745 335.389C197.949 331.13 183.263 373.737 175.024 381.32C172.573 378.257 169.439 375.81 165.872 374.176C162.306 372.541 158.407 371.764 154.486 371.907L177.651 270.055L221.034 258.114C221.034 258.114 224.915 273.478 231.721 281.617C234.169 284.542 240.836 263.07 245.652 258.114L288.776 265.219C291.344 265.597 303.423 301.975 304.379 305.02C312.339 329.657 316.737 344.623 326.269 368.703C322.452 368.34 318.601 368.777 314.962 369.987C311.323 371.197 307.976 373.152 305.135 375.728C305.135 375.728 284.398 343.409 277.154 317.757Z" fill="#BCC58A"/>
<path d="M101.468 410.667H391.342L428.238 460.857H64.9102L101.468 410.667Z" fill="#634E42"/>
<path d="M378.943 428.701C378.861 425.775 378.372 422.875 377.49 420.084C376.513 417.339 375.174 414.736 373.51 412.343C371.831 409.913 370.328 407.366 369.013 404.721C367.766 402.031 366.857 399.196 366.306 396.283C365.77 393.363 365.57 390.392 365.709 387.427C365.809 384.482 366.067 381.576 366.127 378.671C365.922 372.834 364.801 367.065 362.804 361.576C365.14 366.991 366.487 372.781 366.784 378.671C366.784 381.616 366.565 384.641 366.505 387.447C366.401 390.342 366.628 393.24 367.182 396.084C367.686 398.934 368.548 401.709 369.749 404.343C371.035 406.957 372.47 409.496 374.048 411.945C375.639 414.42 376.89 417.097 377.769 419.905C378.569 422.768 378.964 425.729 378.943 428.701Z" fill="#006633"/>
<path d="M367.104 382.372C367.358 380.89 367.913 379.475 368.734 378.216C369.556 376.956 370.626 375.878 371.881 375.049C371.881 375.049 372.04 385.079 367.104 382.372Z" fill="#006633"/>
<path d="M368.06 397.595C368.06 397.595 367.384 392.262 372.936 386.152C372.936 386.152 375.742 400.282 368.06 397.595Z" fill="#006633"/>
<path d="M365.849 374.403C365.263 373.063 364.416 371.854 363.356 370.845C362.297 369.837 361.047 369.051 359.68 368.532C359.68 368.532 361.849 377.925 365.849 374.403Z" fill="#006633"/>
<path d="M368.14 403.524C368.14 403.524 366.926 399.543 360.936 396.678C360.936 396.678 363.463 407.762 368.14 403.524Z" fill="#006633"/>
<path d="M365.433 391.601C365.433 391.601 364.935 386.905 358.905 382.686C358.905 382.686 359.403 395.382 365.433 391.601Z" fill="#006633"/>
<path d="M209.23 205.933C210.329 214.984 212.597 223.854 215.977 232.322C218.998 239.526 223.898 245.788 230.166 250.451C235.659 254.332 243.599 245.038 246.982 241.496C255.102 233.058 257.768 221.336 259.141 210.252C259.599 207.304 259.599 204.304 259.141 201.356C257.808 194.252 250.982 189.038 244.256 186.51C235.181 183.107 221.648 180.938 214.405 188.659C212.302 190.967 210.746 193.717 209.85 196.707C208.954 199.697 208.743 202.85 209.23 205.933Z" fill="#E5C09A"/>
<path d="M428.238 460.866H64.9102V471.812H428.238V460.866Z" fill="#503F35"/>
<path d="M172.516 378.61C167.064 387.566 161.014 397.118 156.476 403.387C150.046 412.338 146.605 423.092 146.645 434.114L141.65 436.323L140.914 426.372L125.292 443.089C124.297 444.163 121.133 438.85 120.973 438.432C116.197 426.153 135.859 417.835 140.596 408.243C142.586 404.263 150.088 387.526 157.073 371.924C162.834 372.322 168.285 374.682 172.516 378.61Z" fill="#E5C09A"/>
<path d="M307.262 373.976C312.516 383.01 318.346 393.399 322.764 399.747C329.008 408.858 332.206 419.712 331.899 430.752L336.854 433.041L337.809 423.091L353.073 440.126C354.028 441.2 357.312 435.966 357.491 435.548C362.526 423.23 343.003 414.573 338.526 404.881C336.695 400.901 329.491 383.966 322.844 368.244C317.192 368.682 311.918 369.796 307.262 373.976Z" fill="#E5C09A"/>
<path d="M225.41 170.985C219.679 171.284 214.345 176.737 209.39 179.423C194.962 187.264 200.156 200.359 198.206 213.254C197.29 219.225 193.748 223.961 190.902 229.275C189.867 231.265 185.649 239.364 191.36 237.693C198.684 235.543 201.31 226.488 206.485 229.414C211.659 232.339 208.793 240.956 212.455 238.031C216.117 235.105 215.619 225.354 217.311 217.832C219.002 210.309 226.883 201.752 230.266 201.752C233.649 201.752 244.356 189.314 244.376 189.294C245.65 187.651 246.544 185.745 246.995 183.715C247.446 181.685 247.441 179.581 246.983 177.553C245.51 171.921 234.107 170.965 229.49 170.946C228.037 170.886 226.684 170.926 225.41 170.985Z" fill="#936037"/>
<path d="M240.355 193.561C245.249 194.707 249.648 197.388 252.91 201.212C256.171 205.035 258.125 209.802 258.485 214.815C258.485 214.815 256.495 228.746 251.778 235.174C247.062 241.602 265.709 226.875 266.784 230.616C267.858 234.358 271.281 241.88 272.973 236.786C274.664 231.691 274.087 226.338 272.973 220.427C271.858 214.517 272.615 203.213 270.724 198.974C267.918 192.765 268.157 166.715 246.843 177.521" fill="#936037"/>
<path d="M393.752 439.924C394.42 436.054 394.574 432.113 394.21 428.203C393.714 424.331 392.704 420.543 391.205 416.939C389.668 413.281 388.397 409.517 387.404 405.675C386.496 401.763 386.095 397.75 386.209 393.735C386.339 389.743 386.913 385.778 387.921 381.914C388.896 378.073 390.05 374.312 390.926 370.511C392.757 362.909 392.06 354.948 391.443 347.107C392.06 351.088 392.578 354.909 392.817 358.869C393.066 362.865 392.812 366.876 392.06 370.809C391.344 374.789 390.07 378.491 389.234 382.292C388.299 386.071 387.786 389.942 387.702 393.834C387.551 397.716 387.892 401.601 388.717 405.397C389.687 409.184 390.876 412.912 392.279 416.561C393.677 420.292 394.568 424.195 394.926 428.163C395.094 432.119 394.698 436.079 393.752 439.924Z" fill="#006633"/>
<path d="M391.143 375.646C391.143 375.646 392.456 370.73 399.541 367.168C399.541 367.168 396.914 380.541 391.143 375.646Z" fill="#006633"/>
<path d="M388.119 396.048C388.119 396.048 388.716 388.844 397.771 382.117C397.771 382.197 397.472 401.64 388.119 396.048Z" fill="#006633"/>
<path d="M391.743 364.74C391.743 364.74 391.345 359.884 385.255 355.406C385.255 355.406 385.454 368.441 391.743 364.74Z" fill="#006633"/>
<path d="M386.605 403.925C386.605 403.925 386.128 398.253 379.003 393.02C378.943 393.02 379.182 408.244 386.605 403.925Z" fill="#006633"/>
<path d="M386.349 387.49C386.349 387.49 387.005 381.142 380.239 374.037C380.239 374.037 377.314 390.953 386.349 387.49Z" fill="#006633"/>
<path d="M398.965 431.289C398.677 428.039 398.837 424.764 399.443 421.558C400.209 418.371 401.393 415.3 402.966 412.424C404.535 409.593 405.944 406.677 407.184 403.687C408.308 400.674 409.05 397.531 409.393 394.334C409.762 391.14 409.762 387.915 409.393 384.722C409.095 381.498 408.558 378.294 408.418 375.01C408.257 371.736 408.498 368.455 409.135 365.239C409.772 362.035 410.687 358.911 411.583 355.786C410.11 362.095 408.617 368.523 409.175 374.97C409.433 378.174 409.951 381.378 410.309 384.622C410.667 387.889 410.667 391.186 410.309 394.453C409.921 397.724 409.125 400.933 407.941 404.006C406.694 407.026 405.231 409.952 403.563 412.762C401.941 415.555 400.683 418.545 399.821 421.658C399.108 424.816 398.82 428.055 398.965 431.289Z" fill="#006633"/>
<path d="M408.497 379.068C408.497 379.068 408 374.928 402.646 371.267C402.726 371.267 403.303 382.471 408.497 379.068Z" fill="#006633"/>
<path d="M408.675 396.063C408.675 396.063 409.033 390.093 402.407 383.725C402.407 383.725 400.377 399.645 408.675 396.063Z" fill="#006633"/>
<path d="M409.372 370.109C409.372 370.109 410.268 366.129 415.76 363.184C415.76 363.184 414.069 373.83 409.372 370.109Z" fill="#006633"/>
<path d="M409.033 402.65C409.033 402.65 410.088 398.073 416.516 394.551C416.456 394.551 414.466 407.029 409.033 402.65Z" fill="#006633"/>
<path d="M411.124 389.255C411.124 389.255 411.323 384.001 417.691 378.906C417.691 378.906 418.109 393.036 411.124 389.255Z" fill="#006633"/>
<path d="M369.351 448.556L357.729 408.555L417.57 407.262L408.774 448.556H369.351Z" fill="#95493E"/>
<path d="M172.516 420.304H259.124L256.935 453.08H150.366L172.516 420.304Z" fill="#F7F5E9"/>
<path d="M210.24 447.019C227.673 445.806 241.456 439.792 241.024 433.586C240.592 427.381 226.11 423.333 208.676 424.546C191.243 425.759 177.46 431.773 177.892 437.979C178.324 444.185 192.806 448.232 210.24 447.019Z" fill="#5E8383"/>
<path d="M188.934 445.571C188.934 445.571 192.277 445.969 193.113 444.775C193.949 443.581 194.247 441.014 195.381 442.626C195.769 443.415 196.406 444.054 197.194 444.443C197.983 444.832 198.878 444.949 199.74 444.775C202.258 444.457 204.752 443.965 207.202 443.303C209.591 443.024 211.421 442.447 211.72 443.88C212.018 445.313 214.407 445.034 215.7 445.631L217.073 446.248C217.073 446.248 201.212 448.935 188.934 445.571Z" fill="#8E966A"/>
<path d="M192.612 427.248C195.41 428.485 198.501 428.906 201.528 428.462C207.339 427.925 209.309 429.437 206.125 430.87C202.941 432.303 198.901 431.586 197.07 433.278C195.239 434.97 197.289 437.835 194.582 438.651C191.384 439.411 188.094 439.712 184.811 439.547C182.562 439.368 179.896 441.537 180.214 441.776C180.532 442.014 174.721 438.154 180.612 432.94C180.612 432.94 182.861 430.412 192.612 427.248Z" fill="#8E966A"/>
<path d="M209.968 424.448C209.968 424.448 215.082 427.91 217.172 427.254C219.261 426.597 220.575 424.846 222.187 427.254C223.799 429.662 223.58 429.244 225.271 431.592C226.963 433.94 227.998 433.025 228.933 432.229C229.868 431.433 229.411 430.975 229.411 429.901C229.411 428.826 228.754 427.91 229.968 427.91C231.182 427.91 231.759 427.274 233.252 427.91C234.299 428.456 235.455 428.762 236.635 428.806C237.212 428.667 236.635 428.348 236.635 428.348C236.635 428.348 228.834 423.293 209.968 424.448Z" fill="#8E966A"/>
<path d="M221.032 445.581C221.032 445.581 210.345 440.983 213.908 439.372C217.47 437.76 215.042 437.76 214.564 437.66C214.087 437.561 213.908 435.889 215.977 436.685C218.047 437.481 218.525 436.784 219.46 438.675C220.395 440.566 220.216 441.182 222.465 441.043C223.773 441.073 225.066 440.75 226.206 440.108C228.654 439.212 229.51 439.292 230.346 438.317C231.181 437.342 231.48 436.167 233.172 437.501C234.863 438.834 235.321 438.317 235.321 439.212C235.297 439.437 235.331 439.664 235.418 439.873C235.505 440.081 235.642 440.265 235.818 440.406C231.217 442.953 226.217 444.702 221.032 445.581Z" fill="#8E966A"/>
<path d="M3 206.03V519.924L91.3194 467.088L87.6378 160.179L3 206.03Z" fill="#9DB5C6" stroke="#DADADA" stroke-width="5" stroke-miterlimit="10"/>
<path d="M91.3203 153.19C91.3203 53.9247 150.704 13.2676 223.959 13.2676H269.969C343.224 13.2676 402.528 54.0043 402.528 153.19" fill="#9DB5C6"/>
<path d="M91.3203 153.19C91.3203 53.9247 150.704 13.2676 223.959 13.2676H269.969C343.224 13.2676 402.528 54.0043 402.528 153.19" stroke="#DADADA" stroke-width="5" stroke-miterlimit="10"/>
<path d="M246.964 13.2676V153.19" stroke="#DADADA" stroke-width="5" stroke-miterlimit="10"/>
<path d="M91.7373 153.197H403.024" stroke="#DADADA" stroke-width="5" stroke-miterlimit="10"/>
<path d="M402.607 153.197V467.091H91.3203V153.197" stroke="#DADADA" stroke-width="5" stroke-miterlimit="10"/>
<path d="M521.074 166.889V480.783L402.605 467.091V153.197L521.074 166.889Z" fill="#9DB5C6" stroke="#DADADA" stroke-width="5" stroke-miterlimit="10"/>
<path d="M41.1699 541.244V550H453.592V541.244H41.1699Z" fill="#888171"/>
<path d="M177.686 511.174L181.131 492.963H186.387L180.709 518.557H175.4L171.234 501.436L167.068 518.557H161.76L156.082 492.963H161.338L164.801 511.139L169.02 492.963H173.484L177.686 511.174Z" fill="white"/>
<path d="M187.564 508.871C187.564 506.984 187.928 505.303 188.654 503.826C189.381 502.35 190.424 501.207 191.783 500.398C193.154 499.59 194.742 499.186 196.547 499.186C199.113 499.186 201.205 499.971 202.822 501.541C204.451 503.111 205.359 505.244 205.547 507.939L205.582 509.24C205.582 512.158 204.768 514.502 203.139 516.271C201.51 518.029 199.324 518.908 196.582 518.908C193.84 518.908 191.648 518.029 190.008 516.271C188.379 514.514 187.564 512.123 187.564 509.1V508.871ZM192.645 509.24C192.645 511.045 192.984 512.428 193.664 513.389C194.344 514.338 195.316 514.812 196.582 514.812C197.812 514.812 198.773 514.344 199.465 513.406C200.156 512.457 200.502 510.945 200.502 508.871C200.502 507.102 200.156 505.73 199.465 504.758C198.773 503.785 197.801 503.299 196.547 503.299C195.305 503.299 194.344 503.785 193.664 504.758C192.984 505.719 192.645 507.213 192.645 509.24Z" fill="white"/>
<path d="M219.398 504.301C218.707 504.207 218.098 504.16 217.57 504.16C215.648 504.16 214.389 504.811 213.791 506.111V518.557H208.711V499.537H213.51L213.65 501.805C214.67 500.059 216.082 499.186 217.887 499.186C218.449 499.186 218.977 499.262 219.469 499.414L219.398 504.301Z" fill="white"/>
<path d="M228.768 510.928L226.939 512.756V518.557H221.859V491.557H226.939V506.516L227.924 505.25L232.793 499.537H238.893L232.02 507.465L239.49 518.557H233.654L228.768 510.928Z" fill="white"/>
<path d="M251.391 513.301C251.391 512.68 251.08 512.193 250.459 511.842C249.85 511.479 248.865 511.156 247.506 510.875C242.982 509.926 240.721 508.004 240.721 505.109C240.721 503.422 241.418 502.016 242.812 500.891C244.219 499.754 246.053 499.186 248.314 499.186C250.729 499.186 252.656 499.754 254.098 500.891C255.551 502.027 256.277 503.504 256.277 505.32H251.197C251.197 504.594 250.963 503.996 250.494 503.527C250.025 503.047 249.293 502.807 248.297 502.807C247.441 502.807 246.779 503 246.311 503.387C245.842 503.773 245.607 504.266 245.607 504.863C245.607 505.426 245.871 505.883 246.398 506.234C246.938 506.574 247.84 506.873 249.105 507.131C250.371 507.377 251.438 507.658 252.305 507.975C254.988 508.959 256.33 510.664 256.33 513.09C256.33 514.824 255.586 516.23 254.098 517.309C252.609 518.375 250.688 518.908 248.332 518.908C246.738 518.908 245.32 518.627 244.078 518.064C242.848 517.49 241.881 516.711 241.178 515.727C240.475 514.73 240.123 513.658 240.123 512.51H244.939C244.986 513.412 245.32 514.104 245.941 514.584C246.562 515.064 247.395 515.305 248.438 515.305C249.41 515.305 250.143 515.123 250.635 514.76C251.139 514.385 251.391 513.898 251.391 513.301Z" fill="white"/>
<path d="M264.574 501.611C265.922 499.994 267.615 499.186 269.654 499.186C273.779 499.186 275.871 501.582 275.93 506.375V518.557H270.85V506.516C270.85 505.426 270.615 504.623 270.146 504.107C269.678 503.58 268.898 503.316 267.809 503.316C266.32 503.316 265.242 503.891 264.574 505.039V518.557H259.494V491.557H264.574V501.611Z" fill="white"/>
<path d="M278.971 508.871C278.971 506.984 279.334 505.303 280.061 503.826C280.787 502.35 281.83 501.207 283.189 500.398C284.561 499.59 286.148 499.186 287.953 499.186C290.52 499.186 292.611 499.971 294.229 501.541C295.857 503.111 296.766 505.244 296.953 507.939L296.988 509.24C296.988 512.158 296.174 514.502 294.545 516.271C292.916 518.029 290.73 518.908 287.988 518.908C285.246 518.908 283.055 518.029 281.414 516.271C279.785 514.514 278.971 512.123 278.971 509.1V508.871ZM284.051 509.24C284.051 511.045 284.391 512.428 285.07 513.389C285.75 514.338 286.723 514.812 287.988 514.812C289.219 514.812 290.18 514.344 290.871 513.406C291.562 512.457 291.908 510.945 291.908 508.871C291.908 507.102 291.562 505.73 290.871 504.758C290.18 503.785 289.207 503.299 287.953 503.299C286.711 503.299 285.75 503.785 285.07 504.758C284.391 505.719 284.051 507.213 284.051 509.24Z" fill="white"/>
<path d="M317.238 509.223C317.238 512.152 316.57 514.502 315.234 516.271C313.91 518.029 312.117 518.908 309.855 518.908C307.934 518.908 306.381 518.24 305.197 516.904V525.869H300.117V499.537H304.828L305.004 501.4C306.234 499.924 307.84 499.186 309.82 499.186C312.164 499.186 313.986 500.053 315.287 501.787C316.588 503.521 317.238 505.912 317.238 508.959V509.223ZM312.158 508.854C312.158 507.084 311.842 505.719 311.209 504.758C310.588 503.797 309.68 503.316 308.484 503.316C306.891 503.316 305.795 503.926 305.197 505.145V512.932C305.818 514.186 306.926 514.812 308.52 514.812C310.945 514.812 312.158 512.826 312.158 508.854Z" fill="white"/>
<path d="M330.703 513.301C330.703 512.68 330.393 512.193 329.771 511.842C329.162 511.479 328.178 511.156 326.818 510.875C322.295 509.926 320.033 508.004 320.033 505.109C320.033 503.422 320.73 502.016 322.125 500.891C323.531 499.754 325.365 499.186 327.627 499.186C330.041 499.186 331.969 499.754 333.41 500.891C334.863 502.027 335.59 503.504 335.59 505.32H330.51C330.51 504.594 330.275 503.996 329.807 503.527C329.338 503.047 328.605 502.807 327.609 502.807C326.754 502.807 326.092 503 325.623 503.387C325.154 503.773 324.92 504.266 324.92 504.863C324.92 505.426 325.184 505.883 325.711 506.234C326.25 506.574 327.152 506.873 328.418 507.131C329.684 507.377 330.75 507.658 331.617 507.975C334.301 508.959 335.643 510.664 335.643 513.09C335.643 514.824 334.898 516.23 333.41 517.309C331.922 518.375 330 518.908 327.645 518.908C326.051 518.908 324.633 518.627 323.391 518.064C322.16 517.49 321.193 516.711 320.49 515.727C319.787 514.73 319.436 513.658 319.436 512.51H324.252C324.299 513.412 324.633 514.104 325.254 514.584C325.875 515.064 326.707 515.305 327.75 515.305C328.723 515.305 329.455 515.123 329.947 514.76C330.451 514.385 330.703 513.898 330.703 513.301Z" fill="white"/>
</svg>
