<svg width="524" height="550" viewBox="0 0 524 550" fill="none" xmlns="http://www.w3.org/2000/svg">
<path d="M272.812 0H222.404C142.085 0 76.9893 42.2293 76.9893 145.275V471.249H418.227V145.295C418.227 42.2293 353.132 0 272.812 0Z" fill="#979081"/>
<path d="M41.1699 472.987L41.1699 541.246H453.592V472.987H41.1699Z" fill="#BFB197"/>
<path d="M403.045 376.263H91.3203V467.11H403.045V376.263Z" fill="#3F3228"/>
<path d="M400.458 152.159H88.7334V376.241H400.458V152.159Z" fill="#809583"/>
<path d="M244.673 230.494C243.26 295.509 264.275 303.251 264.275 303.251C264.275 303.251 201.946 310.992 213.867 293.181C225.787 275.37 219.439 226.633 219.439 226.633L244.673 230.494Z" fill="#D5B390"/>
<path d="M277.154 317.757L277.513 320.722L288.757 414.255C288.757 414.255 211.82 423.25 192.138 410.892C192.138 410.892 191.9 339.249 194.745 335.389C197.949 331.13 183.263 373.737 175.024 381.32C172.573 378.257 169.439 375.81 165.872 374.176C162.306 372.541 158.407 371.764 154.486 371.907L177.651 270.055L221.034 258.114C221.034 258.114 224.915 273.478 231.721 281.617C234.169 284.542 240.836 263.07 245.652 258.114L288.776 265.219C291.344 265.597 303.423 301.975 304.379 305.02C312.339 329.657 316.737 344.623 326.269 368.703C322.452 368.34 318.601 368.777 314.962 369.987C311.323 371.197 307.976 373.152 305.135 375.728C305.135 375.728 284.398 343.409 277.154 317.757Z" fill="#BCC58A"/>
<path d="M101.468 410.667H391.342L428.238 460.857H64.9102L101.468 410.667Z" fill="#634E42"/>
<path d="M378.943 428.701C378.861 425.775 378.372 422.875 377.49 420.084C376.513 417.339 375.174 414.736 373.51 412.343C371.831 409.913 370.328 407.366 369.013 404.721C367.766 402.031 366.857 399.196 366.306 396.283C365.77 393.363 365.57 390.392 365.709 387.427C365.809 384.482 366.067 381.576 366.127 378.671C365.922 372.834 364.801 367.065 362.804 361.576C365.14 366.991 366.487 372.781 366.784 378.671C366.784 381.616 366.565 384.641 366.505 387.447C366.401 390.342 366.628 393.24 367.182 396.084C367.686 398.934 368.548 401.709 369.749 404.343C371.035 406.957 372.47 409.496 374.048 411.945C375.639 414.42 376.89 417.097 377.769 419.905C378.569 422.768 378.964 425.729 378.943 428.701Z" fill="#006633"/>
<path d="M367.104 382.372C367.358 380.89 367.913 379.475 368.734 378.216C369.556 376.956 370.626 375.878 371.881 375.049C371.881 375.049 372.04 385.079 367.104 382.372Z" fill="#006633"/>
<path d="M368.06 397.595C368.06 397.595 367.384 392.262 372.936 386.152C372.936 386.152 375.742 400.282 368.06 397.595Z" fill="#006633"/>
<path d="M365.849 374.403C365.263 373.063 364.416 371.854 363.356 370.845C362.297 369.837 361.047 369.051 359.68 368.532C359.68 368.532 361.849 377.925 365.849 374.403Z" fill="#006633"/>
<path d="M368.14 403.524C368.14 403.524 366.926 399.543 360.936 396.678C360.936 396.678 363.463 407.762 368.14 403.524Z" fill="#006633"/>
<path d="M365.433 391.601C365.433 391.601 364.935 386.905 358.905 382.686C358.905 382.686 359.403 395.382 365.433 391.601Z" fill="#006633"/>
<path d="M209.23 205.933C210.329 214.984 212.597 223.854 215.977 232.322C218.998 239.526 223.898 245.788 230.166 250.451C235.659 254.332 243.599 245.038 246.982 241.496C255.102 233.058 257.768 221.336 259.141 210.252C259.599 207.304 259.599 204.304 259.141 201.356C257.808 194.252 250.982 189.038 244.256 186.51C235.181 183.107 221.648 180.938 214.405 188.659C212.302 190.967 210.746 193.717 209.85 196.707C208.954 199.697 208.743 202.85 209.23 205.933V205.933Z" fill="#E5C09A"/>
<path d="M428.238 460.866H64.9102V471.812H428.238V460.866Z" fill="#503F35"/>
<path d="M172.516 378.61C167.064 387.566 161.014 397.118 156.476 403.387C150.046 412.338 146.605 423.092 146.645 434.114L141.65 436.323L140.914 426.372L125.292 443.089C124.297 444.163 121.133 438.85 120.973 438.432C116.197 426.153 135.859 417.835 140.596 408.243C142.586 404.263 150.088 387.526 157.073 371.924C162.834 372.322 168.285 374.682 172.516 378.61Z" fill="#E5C09A"/>
<path d="M307.262 373.976C312.516 383.01 318.346 393.399 322.764 399.747C329.008 408.858 332.206 419.712 331.899 430.752L336.854 433.041L337.809 423.091L353.073 440.126C354.028 441.2 357.312 435.966 357.491 435.548C362.526 423.23 343.003 414.573 338.526 404.881C336.695 400.901 329.491 383.966 322.844 368.244C317.192 368.682 311.918 369.796 307.262 373.976Z" fill="#E5C09A"/>
<path d="M225.41 170.985C219.679 171.284 214.345 176.737 209.39 179.423C194.962 187.264 200.156 200.359 198.206 213.254C197.29 219.225 193.748 223.961 190.902 229.275C189.867 231.265 185.649 239.364 191.36 237.693C198.684 235.543 201.31 226.488 206.485 229.414C211.659 232.339 208.793 240.956 212.455 238.031C216.117 235.105 215.619 225.354 217.311 217.832C219.002 210.309 226.883 201.752 230.266 201.752C233.649 201.752 244.356 189.314 244.376 189.294C245.65 187.651 246.544 185.745 246.995 183.715C247.446 181.685 247.441 179.581 246.983 177.553C245.51 171.921 234.107 170.965 229.49 170.946C228.037 170.886 226.684 170.926 225.41 170.985Z" fill="#936037"/>
<path d="M240.355 193.561C245.249 194.707 249.648 197.388 252.91 201.212C256.171 205.035 258.125 209.802 258.485 214.815C258.485 214.815 256.495 228.746 251.778 235.174C247.062 241.602 265.709 226.875 266.784 230.616C267.858 234.358 271.281 241.88 272.973 236.786C274.664 231.691 274.087 226.338 272.973 220.427C271.858 214.517 272.615 203.213 270.724 198.974C267.918 192.765 268.157 166.715 246.843 177.521" fill="#936037"/>
<path d="M393.752 439.924C394.42 436.054 394.574 432.113 394.21 428.203C393.714 424.331 392.704 420.543 391.205 416.939C389.668 413.281 388.397 409.517 387.404 405.675C386.496 401.763 386.095 397.75 386.209 393.735C386.339 389.743 386.913 385.778 387.921 381.914C388.896 378.073 390.05 374.312 390.926 370.511C392.757 362.909 392.06 354.948 391.443 347.107C392.06 351.088 392.578 354.909 392.817 358.869C393.066 362.865 392.812 366.876 392.06 370.809C391.344 374.789 390.07 378.491 389.234 382.292C388.299 386.071 387.786 389.942 387.702 393.834C387.551 397.716 387.892 401.601 388.717 405.397C389.687 409.184 390.876 412.912 392.279 416.561C393.677 420.292 394.568 424.195 394.926 428.163C395.094 432.119 394.698 436.079 393.752 439.924V439.924Z" fill="#006633"/>
<path d="M391.143 375.646C391.143 375.646 392.456 370.73 399.541 367.168C399.541 367.168 396.914 380.541 391.143 375.646Z" fill="#006633"/>
<path d="M388.119 396.048C388.119 396.048 388.716 388.844 397.771 382.117C397.771 382.197 397.472 401.64 388.119 396.048Z" fill="#006633"/>
<path d="M391.743 364.74C391.743 364.74 391.345 359.884 385.255 355.406C385.255 355.406 385.454 368.441 391.743 364.74Z" fill="#006633"/>
<path d="M386.605 403.925C386.605 403.925 386.128 398.253 379.003 393.02C378.943 393.02 379.182 408.244 386.605 403.925Z" fill="#006633"/>
<path d="M386.349 387.49C386.349 387.49 387.005 381.142 380.239 374.037C380.239 374.037 377.314 390.953 386.349 387.49Z" fill="#006633"/>
<path d="M398.965 431.289C398.677 428.039 398.837 424.764 399.443 421.558C400.209 418.371 401.393 415.3 402.966 412.424C404.535 409.593 405.944 406.677 407.184 403.687C408.308 400.674 409.05 397.531 409.393 394.334C409.762 391.14 409.762 387.915 409.393 384.722C409.095 381.498 408.558 378.294 408.418 375.01C408.257 371.736 408.498 368.455 409.135 365.239C409.772 362.035 410.687 358.911 411.583 355.786C410.11 362.095 408.617 368.523 409.175 374.97C409.433 378.174 409.951 381.378 410.309 384.622C410.667 387.889 410.667 391.186 410.309 394.453C409.921 397.724 409.125 400.933 407.941 404.006C406.694 407.026 405.231 409.952 403.563 412.762C401.941 415.555 400.683 418.545 399.821 421.658C399.108 424.816 398.82 428.055 398.965 431.289V431.289Z" fill="#006633"/>
<path d="M408.497 379.068C408.497 379.068 408 374.928 402.646 371.267C402.726 371.267 403.303 382.471 408.497 379.068Z" fill="#006633"/>
<path d="M408.675 396.063C408.675 396.063 409.033 390.093 402.407 383.725C402.407 383.725 400.377 399.645 408.675 396.063Z" fill="#006633"/>
<path d="M409.372 370.109C409.372 370.109 410.268 366.129 415.76 363.184C415.76 363.184 414.069 373.83 409.372 370.109Z" fill="#006633"/>
<path d="M409.033 402.65C409.033 402.65 410.088 398.073 416.516 394.551C416.456 394.551 414.466 407.029 409.033 402.65Z" fill="#006633"/>
<path d="M411.124 389.255C411.124 389.255 411.323 384.001 417.691 378.906C417.691 378.906 418.109 393.036 411.124 389.255Z" fill="#006633"/>
<path d="M369.351 448.556L357.729 408.555L417.57 407.262L408.774 448.556H369.351Z" fill="#95493E"/>
<path d="M172.516 420.304H259.124L256.935 453.08H150.366L172.516 420.304Z" fill="#F7F5E9"/>
<path d="M210.24 447.019C227.673 445.806 241.456 439.792 241.024 433.586C240.592 427.381 226.11 423.333 208.676 424.546C191.243 425.759 177.46 431.773 177.892 437.979C178.324 444.185 192.806 448.232 210.24 447.019Z" fill="#5E8383"/>
<path d="M188.934 445.571C188.934 445.571 192.277 445.969 193.113 444.775C193.949 443.581 194.247 441.014 195.381 442.626C195.769 443.415 196.406 444.054 197.194 444.443C197.983 444.832 198.878 444.949 199.74 444.775C202.258 444.457 204.752 443.965 207.202 443.303C209.591 443.024 211.421 442.447 211.72 443.88C212.018 445.313 214.407 445.034 215.7 445.631L217.073 446.248C217.073 446.248 201.212 448.935 188.934 445.571Z" fill="#8E966A"/>
<path d="M192.612 427.248C195.41 428.485 198.501 428.906 201.528 428.462C207.339 427.925 209.309 429.437 206.125 430.87C202.941 432.303 198.901 431.586 197.07 433.278C195.239 434.97 197.289 437.835 194.582 438.651C191.384 439.411 188.094 439.712 184.811 439.547C182.562 439.368 179.896 441.537 180.214 441.776C180.532 442.014 174.721 438.154 180.612 432.94C180.612 432.94 182.861 430.412 192.612 427.248Z" fill="#8E966A"/>
<path d="M209.968 424.448C209.968 424.448 215.082 427.91 217.172 427.254C219.261 426.597 220.575 424.846 222.187 427.254C223.799 429.662 223.58 429.244 225.271 431.592C226.963 433.94 227.998 433.025 228.933 432.229C229.868 431.433 229.411 430.975 229.411 429.901C229.411 428.826 228.754 427.91 229.968 427.91C231.182 427.91 231.759 427.274 233.252 427.91C234.299 428.456 235.455 428.762 236.635 428.806C237.212 428.667 236.635 428.348 236.635 428.348C236.635 428.348 228.834 423.293 209.968 424.448Z" fill="#8E966A"/>
<path d="M221.032 445.581C221.032 445.581 210.345 440.983 213.908 439.372C217.47 437.76 215.042 437.76 214.564 437.66C214.087 437.561 213.908 435.889 215.977 436.685C218.047 437.481 218.525 436.784 219.46 438.675C220.395 440.566 220.216 441.182 222.465 441.043C223.773 441.073 225.066 440.75 226.206 440.108C228.654 439.212 229.51 439.292 230.346 438.317C231.181 437.342 231.48 436.167 233.172 437.501C234.863 438.834 235.321 438.317 235.321 439.212C235.297 439.437 235.331 439.664 235.418 439.873C235.505 440.081 235.642 440.265 235.818 440.406C231.217 442.953 226.217 444.702 221.032 445.581V445.581Z" fill="#8E966A"/>
<path d="M3 206.03V519.924L91.3194 467.088L87.6378 160.179L3 206.03Z" fill="#9DB5C6" stroke="#DADADA" stroke-width="5" stroke-miterlimit="10"/>
<path d="M91.3203 153.19C91.3203 53.9247 150.704 13.2676 223.959 13.2676H269.969C343.224 13.2676 402.528 54.0043 402.528 153.19" fill="#9DB5C6"/>
<path d="M91.3203 153.19C91.3203 53.9247 150.704 13.2676 223.959 13.2676H269.969C343.224 13.2676 402.528 54.0043 402.528 153.19" stroke="#DADADA" stroke-width="5" stroke-miterlimit="10"/>
<path d="M246.964 13.2676V153.19" stroke="#DADADA" stroke-width="5" stroke-miterlimit="10"/>
<path d="M91.7373 153.197H403.024" stroke="#DADADA" stroke-width="5" stroke-miterlimit="10"/>
<path d="M402.607 153.197V467.091H91.3203V153.197" stroke="#DADADA" stroke-width="5" stroke-miterlimit="10"/>
<path d="M521.074 166.889V480.783L402.605 467.091V153.197L521.074 166.889Z" fill="#9DB5C6" stroke="#DADADA" stroke-width="5" stroke-miterlimit="10"/>
<path d="M41.1699 541.244V550H453.592V541.244H41.1699Z" fill="#888171"/>
<path d="M182.221 518.557V492.963H190.096C192.346 492.963 194.355 493.473 196.125 494.492C197.906 495.5 199.295 496.941 200.291 498.816C201.287 500.68 201.785 502.801 201.785 505.18V506.357C201.785 508.736 201.293 510.852 200.309 512.703C199.336 514.555 197.959 515.99 196.178 517.01C194.396 518.029 192.387 518.545 190.148 518.557H182.221ZM187.494 497.234V514.32H190.043C192.105 514.32 193.682 513.646 194.771 512.299C195.861 510.951 196.418 509.023 196.441 506.516V505.162C196.441 502.561 195.902 500.592 194.824 499.256C193.746 497.908 192.17 497.234 190.096 497.234H187.494Z" fill="white"/>
<path d="M216.322 518.557C216.088 518.1 215.918 517.531 215.812 516.852C214.582 518.223 212.982 518.908 211.014 518.908C209.15 518.908 207.604 518.369 206.373 517.291C205.154 516.213 204.545 514.854 204.545 513.213C204.545 511.197 205.289 509.65 206.777 508.572C208.277 507.494 210.439 506.949 213.264 506.938H215.602V505.848C215.602 504.969 215.373 504.266 214.916 503.738C214.471 503.211 213.762 502.947 212.789 502.947C211.934 502.947 211.26 503.152 210.768 503.562C210.287 503.973 210.047 504.535 210.047 505.25H204.967C204.967 504.148 205.307 503.129 205.986 502.191C206.666 501.254 207.627 500.521 208.869 499.994C210.111 499.455 211.506 499.186 213.053 499.186C215.396 499.186 217.254 499.777 218.625 500.961C220.008 502.133 220.699 503.785 220.699 505.918V514.162C220.711 515.967 220.963 517.332 221.455 518.258V518.557H216.322ZM212.121 515.023C212.871 515.023 213.562 514.859 214.195 514.531C214.828 514.191 215.297 513.74 215.602 513.178V509.908H213.703C211.16 509.908 209.807 510.787 209.643 512.545L209.625 512.844C209.625 513.477 209.848 513.998 210.293 514.408C210.738 514.818 211.348 515.023 212.121 515.023Z" fill="white"/>
<path d="M229.277 499.537L229.436 501.734C230.795 500.035 232.617 499.186 234.902 499.186C236.918 499.186 238.418 499.777 239.402 500.961C240.387 502.145 240.891 503.914 240.914 506.27V518.557H235.834V506.393C235.834 505.314 235.6 504.535 235.131 504.055C234.662 503.562 233.883 503.316 232.793 503.316C231.363 503.316 230.291 503.926 229.576 505.145V518.557H224.496V499.537H229.277Z" fill="white"/>
<path d="M255.082 513.301C255.082 512.68 254.771 512.193 254.15 511.842C253.541 511.479 252.557 511.156 251.197 510.875C246.674 509.926 244.412 508.004 244.412 505.109C244.412 503.422 245.109 502.016 246.504 500.891C247.91 499.754 249.744 499.186 252.006 499.186C254.42 499.186 256.348 499.754 257.789 500.891C259.242 502.027 259.969 503.504 259.969 505.32H254.889C254.889 504.594 254.654 503.996 254.186 503.527C253.717 503.047 252.984 502.807 251.988 502.807C251.133 502.807 250.471 503 250.002 503.387C249.533 503.773 249.299 504.266 249.299 504.863C249.299 505.426 249.562 505.883 250.09 506.234C250.629 506.574 251.531 506.873 252.797 507.131C254.062 507.377 255.129 507.658 255.996 507.975C258.68 508.959 260.021 510.664 260.021 513.09C260.021 514.824 259.277 516.23 257.789 517.309C256.301 518.375 254.379 518.908 252.023 518.908C250.43 518.908 249.012 518.627 247.77 518.064C246.539 517.49 245.572 516.711 244.869 515.727C244.166 514.73 243.814 513.658 243.814 512.51H248.631C248.678 513.412 249.012 514.104 249.633 514.584C250.254 515.064 251.086 515.305 252.129 515.305C253.102 515.305 253.834 515.123 254.326 514.76C254.83 514.385 255.082 513.898 255.082 513.301Z" fill="white"/>
<path d="M272.063 518.908C269.273 518.908 267 518.053 265.242 516.342C263.496 514.631 262.623 512.352 262.623 509.504V509.012C262.623 507.102 262.992 505.396 263.73 503.896C264.469 502.385 265.512 501.225 266.859 500.416C268.219 499.596 269.766 499.186 271.5 499.186C274.102 499.186 276.146 500.006 277.635 501.646C279.135 503.287 279.885 505.613 279.885 508.625V510.699H267.773C267.938 511.941 268.43 512.938 269.25 513.688C270.082 514.438 271.131 514.812 272.396 514.812C274.354 514.812 275.883 514.104 276.984 512.686L279.48 515.48C278.719 516.559 277.688 517.402 276.387 518.012C275.086 518.609 273.645 518.908 272.063 518.908ZM271.482 503.299C270.475 503.299 269.654 503.639 269.021 504.318C268.4 504.998 268.002 505.971 267.826 507.236H274.893V506.832C274.869 505.707 274.564 504.84 273.979 504.23C273.393 503.609 272.561 503.299 271.482 503.299Z" fill="white"/>
<path d="M293.473 504.301C292.781 504.207 292.172 504.16 291.645 504.16C289.723 504.16 288.463 504.811 287.865 506.111V518.557H282.785V499.537H287.584L287.725 501.805C288.744 500.059 290.156 499.186 291.961 499.186C292.523 499.186 293.051 499.262 293.543 499.414L293.473 504.301Z" fill="white"/>
<path d="M306.234 513.301C306.234 512.68 305.924 512.193 305.303 511.842C304.693 511.479 303.709 511.156 302.35 510.875C297.826 509.926 295.564 508.004 295.564 505.109C295.564 503.422 296.262 502.016 297.656 500.891C299.063 499.754 300.896 499.186 303.158 499.186C305.572 499.186 307.5 499.754 308.941 500.891C310.395 502.027 311.121 503.504 311.121 505.32H306.041C306.041 504.594 305.807 503.996 305.338 503.527C304.869 503.047 304.137 502.807 303.141 502.807C302.285 502.807 301.623 503 301.154 503.387C300.686 503.773 300.451 504.266 300.451 504.863C300.451 505.426 300.715 505.883 301.242 506.234C301.781 506.574 302.684 506.873 303.949 507.131C305.215 507.377 306.281 507.658 307.148 507.975C309.832 508.959 311.174 510.664 311.174 513.09C311.174 514.824 310.43 516.23 308.941 517.309C307.453 518.375 305.531 518.908 303.176 518.908C301.582 518.908 300.164 518.627 298.922 518.064C297.691 517.49 296.725 516.711 296.021 515.727C295.318 514.73 294.967 513.658 294.967 512.51H299.783C299.83 513.412 300.164 514.104 300.785 514.584C301.406 515.064 302.238 515.305 303.281 515.305C304.254 515.305 304.986 515.123 305.479 514.76C305.982 514.385 306.234 513.898 306.234 513.301Z" fill="white"/>
</svg>
