<svg id="Iconpack" xmlns="http://www.w3.org/2000/svg" viewBox="0 0 365.81 114.51"><defs><style>.cls-1{fill:#b3c18a;}.cls-2{fill:#4b7171;}.cls-3{fill:#9dac7c;}</style></defs><path class="cls-1" d="M7.73,34.63a100,100,0,0,0,7.78,8.5c2.75,2.74,5.65,5.39,8.66,7.94A151.38,151.38,0,0,0,43.73,65.15,141.68,141.68,0,0,0,66.08,76.21c4,1.52,8,2.91,12.1,4.11s8.33,2.18,12.59,3A126.81,126.81,0,0,0,103.7,85.1c4.34.39,8.71.66,13.09.64s8.76-.14,13.11-.54c2.18-.15,4.35-.44,6.52-.67s4.32-.58,6.46-1a202.31,202.31,0,0,0,49-15c3.91-1.66,7.57-3.46,11.49-5.27s7.85-3.63,11.88-5.31a209.72,209.72,0,0,1,25.13-8.75c4.37-1.16,8.8-2.22,13.32-3a132.88,132.88,0,0,1,13.75-1.84,103.33,103.33,0,0,1,27.93,1.31,81.61,81.61,0,0,1,25.28,9.16,80.34,80.34,0,0,1,19.21,15.3,89.55,89.55,0,0,1,13,18.51,84.6,84.6,0,0,1,7.71,20,79.84,79.84,0,0,0-4.26-9.87,101.7,101.7,0,0,0-5.38-9.5,95.89,95.89,0,0,0-14.1-17.45A80.2,80.2,0,0,0,317.77,58,78.76,78.76,0,0,0,294,50.17,91.59,91.59,0,0,0,281.18,49a102.43,102.43,0,0,0-13,.49,122.87,122.87,0,0,0-12.83,1.92c-4.24.82-8.41,1.89-12.54,3.06a216.29,216.29,0,0,0-24,8.56q-5.83,2.48-11.47,5.2c-3.79,1.79-7.72,3.74-11.7,5.45A208.7,208.7,0,0,1,144.34,89c-18.13,2.76-37.24,2.66-55.09-1.28A137,137,0,0,1,41.33,67.38,140.92,140.92,0,0,1,22.55,52.13,109.08,109.08,0,0,1,7.73,34.63Z"/><path class="cls-2" d="M48.56,5.09c7.24,0,14.46,1.3,21.56,2.45a200,200,0,0,1,35,8.59c11.15,3.95,22.51,9.33,30.42,17.85,8.29,8.92,11.4,23.05,5.62,33.91a15.78,15.78,0,0,1-8,6.87,53.11,53.11,0,0,1-8.61,3.16,36,36,0,0,1-19.4-.77C93.18,73.24,83.58,64.47,75.77,55.52A173.71,173.71,0,0,1,55.34,25.8c-2-3.65-3.92-7.38-5.75-11.13-.44-.91-3.8-9.52-4.85-9.45C46,5.13,47.29,5.09,48.56,5.09Z"/><path class="cls-3" d="M49.59,14.67s9.9-3.83,19.52-1,7.32-1.09,7.32-1.09,3.69-5.09,11.16,2.29,11-.86,11-.86S68.21,3.65,44.74,5.22C44.74,5.22,48.12,11.69,49.59,14.67Z"/><path class="cls-3" d="M56.11,27.18s3.73,1,6.57-3.44c2.53-3.93,9.12,3.49,10.57,5.2,1.7,2,5.53,12.48,8.93,9.61,3.71-3.14,10.38-9.88,11.79,6,.31,3.45,1.1,8.49-.71,11.76-.34.61-1,1.12-1.27,1.69-1.81,3.23-1.94,7.24-2.35,10.81C89.64,68.78,75.28,60.8,56.11,27.18Z"/><path class="cls-3" d="M137.22,57.17c.41.52,1.52.42,2.09.62a6.44,6.44,0,0,1,2.13,1.14c.79.67,2.32,2.45,2.16,3.52,1.34-8.94,1-16.91-4.21-24.54-3.86-5.67-7.79-10.23-20-15.63,1.42-.06,2.37,5.44,2.6,6.31a37.84,37.84,0,0,0,1,3.75c1.81,4.73,4.53,8.57,3,13.81a2,2,0,0,1-.27.65,2.74,2.74,0,0,1-.45.45c-.75.62-3.12,2.07-2.63,3.37s3.64,1,4.74,1c2.1-.12,4.2-.23,6.31-.25,1,0,2.89-.14,3.64.71C138.71,53.48,136.05,55.67,137.22,57.17Z"/><path class="cls-3" d="M132.55,77.24a80.16,80.16,0,0,0,6.89-4.78,24,24,0,0,0,2.8-2.62c.93-.92,1.61-2,2.58-3.09a6.07,6.07,0,0,1-.46,3.94,9.3,9.3,0,0,1-2.74,3.4,14.09,14.09,0,0,1-4.15,2.31A13.68,13.68,0,0,1,132.55,77.24Z"/><path class="cls-1" d="M136.8,79.85a81.76,81.76,0,0,0,6.89-4.78,24.87,24.87,0,0,0,2.8-2.62c.93-.92,1.61-2,2.58-3.09a6,6,0,0,1-.47,3.94,9.37,9.37,0,0,1-2.73,3.4A14.22,14.22,0,0,1,141.72,79,13.72,13.72,0,0,1,136.8,79.85Z"/><path class="cls-3" d="M144.15,80.58c1.76-1.44,3.35-2.45,4.83-3.55.75-.54,1.42-1.1,2.13-1.69s1.35-1.27,2.25-2a3.75,3.75,0,0,1-.18,3,6.57,6.57,0,0,1-2.12,2.48,10,10,0,0,1-3.19,1.53A9.07,9.07,0,0,1,144.15,80.58Z"/><path class="cls-1" d="M291.62,49.67s-25-4.26-73.65,37.73C218,87.4,306.82,87.27,291.62,49.67Z"/><path class="cls-3" d="M288.51,52.88s-16.82,21.81-65,32.4"/><path class="cls-1" d="M344.34,76.69S332.63,69.78,338,37.63C338,37.63,371,67.84,344.34,76.69Z"/><path class="cls-3" d="M344.22,74.13s8.14-13-4.9-29.68"/><path class="cls-1" d="M85.31,87.44S68.53,78,15.17,96.88C15.17,96.88,81,119.11,85.31,87.44Z"/><path class="cls-3" d="M82.94,89.65s-23.72,9.63-60.46,7.29"/><path class="cls-3" d="M40.54,65.09a86.82,86.82,0,0,0,8.53,5.08q4.41,2.37,9.1,4.4a139.71,139.71,0,0,0,19.47,6.87,151.16,151.16,0,0,0,41.79,5.45,154.71,154.71,0,0,0,21.11-1.67c3.5-.44,6.91-1.17,10.35-1.81L156,82.22c.84-.21,1.7-.39,2.53-.61l2.5-.71a194,194,0,0,0,19.51-6.52c6.34-2.54,12.6-5.22,18.87-7.94,12.59-5.36,25.27-10.83,38.89-14.9a143.79,143.79,0,0,1,21-4.74c.9-.14,1.8-.29,2.7-.41l2.74-.26c1.83-.14,3.64-.41,5.48-.45l5.51-.14c1.84,0,3.68.13,5.51.18l2.76.13c.91.07,1.82.2,2.73.3l5.44.67a88.17,88.17,0,0,1,10.58,2.37,78.65,78.65,0,0,1,19,8.35A81.67,81.67,0,0,1,336.9,69.61a78.3,78.3,0,0,1,11.22,14.24,87.56,87.56,0,0,0-27.68-24.93,83.93,83.93,0,0,0-39.38-10.44,106.4,106.4,0,0,0-21,1.36,139.53,139.53,0,0,0-20.23,4.81c-13.2,4.05-25.7,9.47-38.25,14.88-6.28,2.69-12.61,5.37-19.06,7.93l-4.93,1.82-2.46.91-2.52.82-5.05,1.63c-1.7.5-3.44.94-5.16,1.41l-2.58.7c-.87.22-1.75.4-2.63.6L152,86.52c-3.57.62-7.1,1.33-10.72,1.75a147,147,0,0,1-21.81,1.37C90.2,89.45,61.37,80.43,40.54,65.09Z"/><path class="cls-1" d="M243.55,48.63S232.2,30.84,175.32,22.3C175.32,22.3,205.16,64.59,243.55,48.63Z"/><path class="cls-3" d="M238.45,47.71s-29.8-2.06-59-23.35"/><path class="cls-1" d="M196.49,72.71s-13.91,1.48-28.78,30.21C167.71,102.92,213.39,89.82,196.49,72.71Z"/><path class="cls-3" d="M196.65,74.66S190.79,88,171.34,100.28"/></svg>