<svg id="Iconpack" xmlns="http://www.w3.org/2000/svg" viewBox="0 0 135.78 135.78"><defs><style>.cls-1{fill:#313130;}.cls-2{fill:#4a494a;}.cls-3{fill:#5e5d5e;}.cls-4{fill:#384151;}.cls-5{fill:#edc9b1;}.cls-6{fill:#1d1d1b;}.cls-7{fill:#805248;}.cls-8{fill:#bcc58a;}.cls-9{fill:#b3b3b3;}.cls-10{fill:#ffed00;opacity:0.6;}.cls-11{fill:#40403f;}</style></defs><g id="Wheelchair"><path class="cls-1" d="M63.21,77.65c3.95,0,7.74,2.07,10.66,5.83a22.68,22.68,0,0,1,3.57,6.84,28.4,28.4,0,0,1,0,17.21,22.59,22.59,0,0,1-3.55,6.85c-2.91,3.77-6.68,5.86-10.64,5.87s-7.73-2.07-10.66-5.84a22.27,22.27,0,0,1-3.56-6.83,28.2,28.2,0,0,1,0-17.21,22.68,22.68,0,0,1,3.54-6.85c2.91-3.78,6.69-5.86,10.64-5.87m0-4.06C52.38,73.61,43.63,85,43.65,99s8.82,25.35,19.64,25.33,19.58-11.39,19.56-25.39S74,73.57,63.2,73.59Z"/><path class="cls-1" d="M65.49,115.25c0,5,3.14,9,7,9s7-4.06,7-9.06a9.81,9.81,0,0,0-3.38-7.73l0,0a6.14,6.14,0,0,0-1.89-1l-.26-.08a5.68,5.68,0,0,0-1.44-.19,5.43,5.43,0,0,0-1.4.19,6.33,6.33,0,0,0-.12,1.05c0,.17,0,.34,0,.51v1h0V109a.9.9,0,0,1-.9.91h-.48a.91.91,0,0,1-.9-.9v-.34c0-.11,0-.22,0-.33s0-.45,0-.69A9.89,9.89,0,0,0,65.49,115.25Zm4.05,0a6.48,6.48,0,0,1,1.2-3.92,1.93,1.93,0,0,1,3.47,0,6.43,6.43,0,0,1,1.21,3.91,6.51,6.51,0,0,1-1.19,3.91,1.95,1.95,0,0,1-3.48,0A6.45,6.45,0,0,1,69.54,115.25Z"/><path class="cls-1" d="M89.57,115.21c0,5,3.14,9.05,7,9s7-4.06,7-9.06a9.85,9.85,0,0,0-3.29-7.66l-.06,0a6,6,0,0,0-1.92-1l-.36-.11a5.67,5.67,0,0,0-1.38-.17,5.3,5.3,0,0,0-1.19.14,3.9,3.9,0,0,0-.21,1.07c0,.27,0,.56,0,.86v1.14a.85.85,0,0,1-.85.86h-.56a.86.86,0,0,1-.86-.85v-.82c0-.34,0-.7.06-1.07l-.06.05A9.84,9.84,0,0,0,89.57,115.21Zm4.05,0a6.48,6.48,0,0,1,1.2-3.92,1.94,1.94,0,0,1,3.47,0,7,7,0,0,1,0,7.83,1.95,1.95,0,0,1-3.48,0A6.45,6.45,0,0,1,93.62,115.21Z"/><path class="cls-2" d="M50.6,37.74v.83a.88.88,0,0,0,.8,1h8.71L61.29,76v0l2.3-.1-.06-1.91L62.37,38.35h0A1.48,1.48,0,0,0,61,36.76l-9.64,0A.89.89,0,0,0,50.6,37.74Z"/><rect class="cls-3" x="73.67" y="52.67" width="2.3" height="26.28" transform="translate(140.5 -9.13) rotate(89.9)"/><rect class="cls-3" x="95.36" y="70.29" width="2.3" height="33.65" transform="translate(-0.15 0.17) rotate(-0.1)"/><polygon class="cls-3" points="61.28 73.32 61.33 99.79 63.63 99.79 63.59 74.91 63.53 73.31 61.28 73.32"/><path class="cls-3" d="M95.35,70.29h2.27a5,5,0,0,0-1.5-3.72C93.9,64.42,88,64.65,88,64.65v2.27c.13,0,5.06-.19,6.59,1.28A2.76,2.76,0,0,1,95.35,70.29Z"/><path class="cls-3" d="M95.39,103.31v.63h2.3v-.63a4.21,4.21,0,0,0-2.3,0Z"/><path class="cls-3" d="M92.83,109.38a.86.86,0,0,0,.86.85h.56a.85.85,0,0,0,.85-.86v-1.14h0c0-.31,0-.6,0-.86a3.9,3.9,0,0,1,.21-1.07,1.17,1.17,0,0,1,1.19-.87,1.48,1.48,0,0,1,1.38.9l.36.11a6,6,0,0,1,1.92,1c-.17-1.74-.74-3.62-2.51-4.17v.63h-2.3v-.63c-1.77.56-2.33,2.44-2.5,4.18,0,.37,0,.73-.06,1.07v.1h0Z"/><ellipse class="cls-2" cx="63.25" cy="99.29" rx="3.11" ry="4.02" transform="translate(-0.17 0.11) rotate(-0.1)"/><polygon class="cls-4" points="37.07 46.3 37.86 85.68 96.19 85.58 96.18 80.11 63.23 80.17 62.08 46.25 37.07 46.3"/><path class="cls-3" d="M26.42,37.38v.82a.9.9,0,0,0,.81,1l8.71,0,1.17,36.52v0l2.29-.1-.06-1.91L38.2,38h0a1.48,1.48,0,0,0-1.34-1.59l-9.64,0A.89.89,0,0,0,26.42,37.38Z"/><polygon class="cls-3" points="37.11 73.02 37.16 99.49 39.45 99.49 39.41 74.61 39.35 73.01 37.11 73.02"/><path class="cls-3" d="M72.35,92.72V95c.89,0,3.57.05,4.63.79s3.49,6.46,3.49,6.59l2.15,7.08a42.56,42.56,0,0,0,1.52,4.07A8.52,8.52,0,0,0,85.62,116c1.57,1.51,3.11,2.12,6.24,2.11l.19-2.45c-.89,0-3.69-.3-4.69-1.12s-2.8-6.35-3-6.79l-1.67-5.4c0-.08-2.44-6.77-4.13-8.16S73.87,92.72,72.35,92.72Z"/><path class="cls-2" d="M71.21,103v.63h2.29V103a4,4,0,0,0-1.15-.16A4,4,0,0,0,71.21,103Z"/><path class="cls-3" d="M68.65,108.69V109a.91.91,0,0,0,.9.9H70a.9.9,0,0,0,.9-.91v-.11h0v-1h0c0-.17,0-.34,0-.51a6.33,6.33,0,0,1,.12-1.05c.17-.78.53-1.26,1.31-1.26a1.59,1.59,0,0,1,1.53,1.26l.26.08a6.14,6.14,0,0,1,1.89,1c-.14-1.81-.66-3.87-2.54-4.45v.63H71.22V103c-1.92.61-2.41,2.78-2.53,4.63l0,0c0,.24,0,.48,0,.69h0C68.65,108.48,68.65,108.58,68.65,108.69Z"/><ellipse class="cls-3" cx="39.07" cy="98.99" rx="3.11" ry="4.02" transform="translate(-0.17 0.07) rotate(-0.1)"/><rect class="cls-3" x="49.55" y="85.83" width="2.3" height="26.28" transform="translate(149.59 48.1) rotate(89.9)"/><rect class="cls-3" x="83.29" y="86.82" width="2.3" height="24.17" transform="translate(183.21 14.3) rotate(89.9)"/><rect class="cls-3" x="65.34" y="57.25" width="2.3" height="57.9" transform="translate(152.58 19.56) rotate(89.9)"/><path class="cls-5" d="M70.74,45.5c.46.7.71,8.43.71,8.43L75,63A108.34,108.34,0,0,0,82.46,73.7c2.8,4.25-3,1.46-3.4,1.7s-7.43-4-11.82-10.56-3.67-15.07-3.67-15.07l1.55-5.47Z"/><path class="cls-5" d="M62.12,34.64l-2.19,3.21-8,1L49.23,35.6l2.87-2.23V31.25s-6.75-1.53-5.24-15c-.4-2.7,3.92-4,6.08-3.63,5.57,1,8.44,1.35,9,5.35.29,2.15,4.65,10.86-3.32,13.71,0,1.29,0,1.75,0,1.75Z"/><polygon class="cls-6" points="92.45 111.07 97.9 111.06 102.48 111.17 104.36 112.39 98 114.24 89.14 116.54 86.57 111.61 89.77 109.69 92.45 111.07"/><polygon class="cls-6" points="108.89 108.16 114.28 109.01 118.78 109.85 120.44 111.34 113.87 112.17 104.76 113.05 103 107.78 106.45 106.38 108.89 108.16"/><path class="cls-7" d="M52.25,81.86c4.65,0,15.91-.25,15.91-.25l6.16,3.86,12.06,27.47,7.16-2.21L84.37,83l-1.6-1.85,10.34,1,8.18,27.51L109,107.8,99,76.41S80.19,71.94,75.8,72C67,72,69,70.23,69,70.23l-4.07-.56a11.48,11.48,0,0,1,.25-1.91l-19.86,0,0,10.79S44.75,81.87,52.25,81.86Z"/><path class="cls-1" d="M39,77.69c4,0,7.73,2.07,10.66,5.84a22.49,22.49,0,0,1,3.56,6.83,28.2,28.2,0,0,1,0,17.21,22.79,22.79,0,0,1-3.54,6.85c-2.91,3.78-6.69,5.86-10.64,5.87s-7.74-2.07-10.66-5.84a22.51,22.51,0,0,1-3.57-6.83,28.4,28.4,0,0,1,0-17.21,22.79,22.79,0,0,1,3.54-6.85C31.3,79.78,35.08,77.7,39,77.69m0-4.06C28.21,73.65,19.45,85,19.47,99s8.82,25.35,19.65,25.33S58.69,113,58.67,99,49.85,73.61,39,73.63Z"/><path class="cls-5" d="M39.71,46.47,30,54.11s5.47,8.4,7.22,17.24A41.8,41.8,0,0,0,42.86,75L45.11,79l-2.39,2.09-6.4-1.76s-2-4.63-2.67-5.75c-.52-.8-9.45-21.49-9.45-21.49L36.64,39.89Z"/><path class="cls-8" d="M43,46.37C42.52,50.53,44.44,70,45.31,72l26,0s-2.46-19.62-2.9-23.2c.85-.74,2.78-1.5,3.19-1.91.19-1.08,0-8.52-3.93-12.64l-7-.43c-.74,3.84-7.74,4.65-9.1-.2-3.37.51-3.37.51-5.51.88a110.12,110.12,0,0,0-11.78,5.65C34.84,41.4,38.13,47,38.84,48A12.6,12.6,0,0,1,43,46.37Z"/><path class="cls-9" d="M55.89,11.4l.26,0L56,11.3Z"/><path class="cls-9" d="M47.17,24.92h0v0Z"/><path class="cls-10" d="M61.6,61.1,58.33,49.28S56,51.92,55.87,51.6l-2.48-9-.39,3,2.47,9c.09.32,2.47-2.32,2.47-2.32l3.27,11.82Z"/><rect class="cls-3" x="71.19" y="69.99" width="2.3" height="33.66" transform="translate(-0.15 0.12) rotate(-0.1)"/><path class="cls-3" d="M71.17,70h2.27A4.94,4.94,0,0,0,72,66.26c-2.22-2.14-8.08-1.91-8.17-1.91v2.27c.12,0,5.06-.19,6.58,1.28A2.72,2.72,0,0,1,71.17,70Z"/><rect class="cls-3" x="49.49" y="52.37" width="2.3" height="26.28" transform="translate(116.06 14.75) rotate(89.9)"/><path class="cls-11" d="M91.65,119.12l26.45-2.92c.48,0,1.09-.72,1.35-1.49L121,110.1c.26-.77.07-1.35-.41-1.29l-26.45,2.92c-.49.06-1.1.73-1.36,1.49l-1.56,4.61C91,118.6,91.16,119.18,91.65,119.12Z"/><path class="cls-7" d="M47.25,25.35a14.09,14.09,0,0,0,1.13-4.77c.13-2.6,2.67-2.29,4.13-2a9.85,9.85,0,0,0,5-.17c1.65-.6,4.52,2.82,5.16,4.16s.23-.77.68-3.63.75-3.75,0-4.82a19.65,19.65,0,0,1-1.52-2.86c-.57-1.14-1.08-.7-1.9,0s-.2-1.27-.64-1.78-.13-1-3,.77.38-.7-2.35-.12-1.46-.19-5.08,2.61-6.86.14-5.2,5.09A28.27,28.27,0,0,0,47.25,25.35Z"/></g></svg>