<svg id="Layer_1" data-name="Layer 1" xmlns="http://www.w3.org/2000/svg" viewBox="0 0 1254.28 1024"><defs><style>.cls-1{fill:#363b3d;}.cls-2{fill:#fffce2;}.cls-3{fill:#b2c18a;}.cls-4{fill:#5f6b4c;}.cls-5{fill:#9a9281;}.cls-6{fill:#b3a78f;}.cls-7{fill:#7c7668;}.cls-52,.cls-67,.cls-8{fill:#8baabe;}.cls-52,.cls-53,.cls-8,.cls-9{stroke:#d0d2d3;}.cls-33,.cls-52,.cls-53,.cls-63,.cls-68,.cls-8,.cls-9{stroke-miterlimit:10;}.cls-33,.cls-63,.cls-8,.cls-9{stroke-width:1.62px;}.cls-33,.cls-53,.cls-63,.cls-9{fill:none;}.cls-10{fill:#ae5936;}.cls-11{fill:#e1bfa9;}.cls-12{fill:#edc8b1;}.cls-13{fill:#867469;}.cls-14{fill:#9a8479;}.cls-15{fill:#5f8a8a;}.cls-16{fill:#d0d2d3;}.cls-17{fill:#6d6e70;}.cls-18{fill:#8b5747;}.cls-19{fill:#763f2f;}.cls-20{fill:#2c231f;}.cls-21{fill:#536350;}.cls-22{fill:#495746;}.cls-23{fill:#5e6e59;}.cls-24{fill:#808184;}.cls-25{fill:#006838;}.cls-26{fill:#743d2d;}.cls-27{fill:#bb956c;}.cls-28{fill:#f0cf8c;}.cls-29{fill:#ad8a64;}.cls-30{fill:#ffdc95;}.cls-31{fill:#e6e7e8;}.cls-32{fill:#557d7e;}.cls-33{stroke:#000;}.cls-34{fill:#404041;}.cls-35{fill:#e9c1a8;}.cls-36{fill:#97bee5;}.cls-37{fill:#7f9fc0;}.cls-38{fill:#7390ae;}.cls-39{fill:#353435;}.cls-40{fill:#414546;}.cls-41{fill:#585a5c;}.cls-42{fill:#323f4f;}.cls-43{fill:#231f20;}.cls-44{fill:#764d46;}.cls-45{fill:#b3b3b3;}.cls-46{fill:#fff100;opacity:0.6;}.cls-47{fill:#373a3c;}.cls-48{fill:#e1c086;}.cls-49{fill:#5b2d23;}.cls-50{fill:#48321b;}.cls-51{fill:#0f0000;}.cls-52,.cls-53{stroke-width:4.87px;}.cls-54{fill:#f9b38d;}.cls-55{fill:#645852;}.cls-56{fill:#4a3f38;}.cls-57{fill:#e6a683;}.cls-58{fill:#f7dfaa;}.cls-59{fill:#f8a67c;}.cls-60{fill:#6b3120;}.cls-61{fill:#dbbaa5;}.cls-62{fill:#445b5c;}.cls-63{stroke:#2d2d2d;}.cls-64{fill:#5d4030;}.cls-65{fill:#503526;}.cls-66{fill:#270a00;}.cls-67{opacity:0.4;}.cls-68{fill:#fff;stroke:#231f20;stroke-width:0.41px;}.cls-69{fill:#4a7070;}.cls-70{fill:#9dac7c;}</style></defs><rect class="cls-1" width="1254.28" height="1024"/><circle class="cls-2" cx="1178.49" cy="602.62" r="3.77"/><circle class="cls-2" cx="930.55" cy="575.31" r="3.77"/><circle class="cls-2" cx="368.57" cy="387" r="3.77"/><circle class="cls-2" cx="709.99" cy="364.55" r="3.77"/><circle class="cls-2" cx="853.81" cy="394.69" r="3.77"/><circle class="cls-2" cx="1119.07" cy="81.17" r="3.77"/><circle class="cls-2" cx="1186.04" cy="289.54" r="3.77"/><circle class="cls-2" cx="208.03" cy="524.22" r="3.77"/><circle class="cls-2" cx="522.42" cy="32.77" r="3.77"/><circle class="cls-2" cx="85.17" cy="64.48" r="3.77"/><circle class="cls-2" cx="788.59" cy="770.5" r="3.77"/><circle class="cls-2" cx="362.71" cy="504.33" r="3.77"/><circle class="cls-2" cx="628.89" cy="202.67" r="3.77"/><circle class="cls-2" cx="157" cy="281.58" r="3.77"/><circle class="cls-2" cx="522.42" cy="664.03" r="3.77"/><circle class="cls-2" cx="522.42" cy="930.2" r="3.77"/><circle class="cls-2" cx="1077.29" cy="390.77" r="3.77"/><circle class="cls-2" cx="508.68" cy="435.33" r="3.77"/><circle class="cls-2" cx="996.06" cy="252.17" r="3.77"/><circle class="cls-2" cx="78.47" cy="398.46" r="3.77"/><circle class="cls-2" cx="49.66" cy="746.81" r="3.77"/><circle class="cls-2" cx="1222.4" cy="744.35" r="3.77"/><circle class="cls-2" cx="870.74" cy="120.39" r="3.77"/><circle class="cls-2" cx="654.33" cy="538.41" r="3.77"/><g id="Plant"><path class="cls-3" d="M1174,397.3c3.41,11.09,5,22.93,3.64,34.66a62.1,62.1,0,0,1-13.67,32.41c-.93,1.17-1.94,2.27-2.93,3.39s-2,2.19-3.07,3.25a87.66,87.66,0,0,1-6.73,5.9,94,94,0,0,1-15,9.71q-4,2.07-8.06,3.84c-2.86,1.22-5.57,2.15-8.24,3.19s-5.23,2.13-7.65,3.35a26.82,26.82,0,0,0-6.36,4.25,9.73,9.73,0,0,0-1.93,2.5,5.53,5.53,0,0,0-.65,2.52,9,9,0,0,0,2.28,5.57,19.47,19.47,0,0,0,5.58,4.44,37.18,37.18,0,0,0,3.52,1.74c1.23.58,2.54,1.1,3.86,1.7a48.31,48.31,0,0,1,8.09,4.33c.65.47,1.29,1,1.92,1.48s1.3.9,1.92,1.41a28,28,0,0,1,3.59,3.32,17.69,17.69,0,0,1,4.49,9.23,18.34,18.34,0,0,1-1.72,9.93,34.58,34.58,0,0,1-5.1,7.84,65.15,65.15,0,0,1-6.3,6.45,123.25,123.25,0,0,1-14.13,10.65c-9.79,6.46-20.16,11.81-30.54,17,2.43-1.61,4.89-3.15,7.33-4.73l7.3-4.76c4.83-3.21,9.57-6.55,14.16-10a126.13,126.13,0,0,0,13-11.22,59.72,59.72,0,0,0,5.54-6.31,30.17,30.17,0,0,0,4-6.94,13.27,13.27,0,0,0,.91-7.09,11.87,11.87,0,0,0-3.32-6.06,23.39,23.39,0,0,0-2.91-2.47c-.51-.39-1.09-.73-1.63-1.1s-1.2-.53-1.82-.77c-2.43-1-5-1.83-7.79-2.84-1.37-.48-2.76-1.06-4.18-1.66a46.19,46.19,0,0,1-4.25-2.18,25.54,25.54,0,0,1-7.71-6.68,19.63,19.63,0,0,1-2.57-4.8,14.75,14.75,0,0,1-1-5.71,12.75,12.75,0,0,1,1.63-5.81A16.65,16.65,0,0,1,1101,496a33.46,33.46,0,0,1,8.21-5.21,80.59,80.59,0,0,1,8.45-3.31c2.79-1,5.62-1.8,8.15-2.75s5.27-2.1,7.84-3.28c10.26-4.73,20-10.95,27.61-19.35a59.25,59.25,0,0,0,9.33-14.12,63,63,0,0,0,5.08-16.28C1177.57,420.36,1176.64,408.6,1174,397.3Z" transform="translate(-12.46 0)"/></g><path class="cls-4" d="M1095.52,593.68a45.63,45.63,0,0,1-7.62-10,31.22,31.22,0,0,1-3.73-12.35,30.56,30.56,0,0,1,2-13,47.93,47.93,0,0,1,6.39-11.38c1.26-1.77,2.67-3.4,4.06-5s2.92-3.14,4.46-4.61q4.61-4.46,9.55-8.43c6.56-5.32,13.48-10.08,20.33-14.79,3.44-2.34,6.88-4.65,10.23-7,1.68-1.18,3.35-2.36,5-3.59.83-.6,1.62-1.22,2.4-1.85.39-.31.81-.62,1.17-.93l1-.93a26.16,26.16,0,0,0,6.49-9,38.77,38.77,0,0,0,2.89-11.22,64.83,64.83,0,0,0,.1-12,94.66,94.66,0,0,0-1.73-12.11,153.77,153.77,0,0,0-6.91-23.81,100.27,100.27,0,0,1,5.64,11.2,116.2,116.2,0,0,1,4.36,11.83c2.4,8.08,4,16.55,3.59,25.3,0,1.09-.19,2.18-.28,3.27s-.33,2.18-.5,3.28-.51,2.17-.8,3.25-.68,2.14-1.1,3.18a32.34,32.34,0,0,1-7.54,11.34l-1.25,1.2c-.41.37-.83.69-1.24,1-.83.69-1.66,1.37-2.5,2-1.68,1.31-3.38,2.56-5.08,3.8-3.42,2.46-6.86,4.81-10.29,7.16s-6.86,4.67-10.23,7-6.71,4.77-10,7.23-6.44,5-9.45,7.74a85.45,85.45,0,0,0-8.42,8.61,47.45,47.45,0,0,0-6.46,9.9,27.38,27.38,0,0,0-2.73,11.3,30.28,30.28,0,0,0,2.18,11.68l1.2,2.81c.47.91,1,1.8,1.48,2.71.25.45.48.91.74,1.36l.86,1.29Z" transform="translate(-12.46 0)"/><path class="cls-4" d="M1129.22,456.54a380.17,380.17,0,0,0-28.56,29.54c-8.83,10.34-17,21.26-23.23,33.08a93.22,93.22,0,0,0-7.53,18.39,61.59,61.59,0,0,0-2,9.64,62.91,62.91,0,0,0-.38,9.8,51.65,51.65,0,0,0,4.74,19.12,74.94,74.94,0,0,0,11.13,17,59.67,59.67,0,0,1-14-15.54,55.44,55.44,0,0,1-4.56-9.66,48.87,48.87,0,0,1-2.4-10.51A59.28,59.28,0,0,1,1064,536a80.31,80.31,0,0,1,3.26-10.21,104.27,104.27,0,0,1,4.47-9.65c6.64-12.53,15.52-23.54,25.26-33.47a196.24,196.24,0,0,1,15.4-14A156.23,156.23,0,0,1,1129.22,456.54Z" transform="translate(-12.46 0)"/><g id="Brown-building-right"><rect class="cls-5" x="613.79" y="696.8" width="320.42" height="324.08"/><rect class="cls-6" x="596.77" y="682.52" width="330.64" height="20.4"/><path class="cls-7" d="M625.48,726.41l-16.25-23.48h17.35l-.25,23.24A.47.47,0,0,1,625.48,726.41Z" transform="translate(-12.46 0)"/><path class="cls-7" d="M685.84,702.93h10.5a0,0,0,0,1,0,0v18.88a4.8,4.8,0,0,1-4.8,4.8h-.9a4.8,4.8,0,0,1-4.8-4.8V702.93a0,0,0,0,1,0,0Z"/><path class="cls-7" d="M737.9,702.93h10.5a0,0,0,0,1,0,0v18.88a4.8,4.8,0,0,1-4.8,4.8h-.9a4.8,4.8,0,0,1-4.8-4.8V702.93A0,0,0,0,1,737.9,702.93Z"/><path class="cls-7" d="M790,702.93h10.5a0,0,0,0,1,0,0v18.88a4.8,4.8,0,0,1-4.8,4.8h-.9a4.8,4.8,0,0,1-4.8-4.8V702.93A0,0,0,0,1,790,702.93Z"/><path class="cls-7" d="M671.73,768.83h4.48a24,24,0,0,1,24,24V861.3a0,0,0,0,1,0,0H647.72a0,0,0,0,1,0,0V792.84a24,24,0,0,1,24-24Z"/><path class="cls-8" d="M672.06,771.55h3.82A20.46,20.46,0,0,1,696.34,792v67.33a0,0,0,0,1,0,0H651.6a0,0,0,0,1,0,0V792A20.46,20.46,0,0,1,672.06,771.55Z"/><line class="cls-9" x1="651.68" y1="797.62" x2="696.26" y2="797.62"/><path class="cls-7" d="M775.76,768.83h4.48a24,24,0,0,1,24,24V861.3a0,0,0,0,1,0,0H751.75a0,0,0,0,1,0,0V792.84A24,24,0,0,1,775.76,768.83Z"/><path class="cls-8" d="M776.3,771.55h3.82A20.46,20.46,0,0,1,800.58,792v67.33a0,0,0,0,1,0,0H755.84a0,0,0,0,1,0,0V792A20.46,20.46,0,0,1,776.3,771.55Z"/><line class="cls-9" x1="755.92" y1="797.62" x2="800.5" y2="797.62"/><path class="cls-7" d="M633.77,702.93h10.5a0,0,0,0,1,0,0v18.88a4.8,4.8,0,0,1-4.8,4.8h-.9a4.8,4.8,0,0,1-4.8-4.8V702.93A0,0,0,0,1,633.77,702.93Z"/><rect class="cls-7" x="596.77" y="700.21" width="226.44" height="5.23"/><rect class="cls-7" x="647.72" y="859.94" width="52.51" height="3.63"/></g><g id="back-lady"><path class="cls-10" d="M691.48,646s-6.54-1.39-9.58,3.36c-2.22,3.46-1.57,14.7,2.48,16.2,2.45.91,5.64.12,8.21.29,2,.14,4.74,1.23,6.56-.45,2-1.82,1.93-6,2.23-8.57C702.35,648.52,698.59,644.17,691.48,646Z" transform="translate(-12.46 0)"/><polygon class="cls-3" points="667.63 682.52 670.27 667 686.39 668.07 690.14 682.69 667.63 682.52"/><rect class="cls-11" x="688.32" y="662.05" width="5.57" height="5.92" transform="translate(-30.81 1310.42) rotate(-86.19)"/><path class="cls-12" d="M685.73,654.05a28.34,28.34,0,0,0,1.18,6.79,11,11,0,0,0,3.13,4.82c1.25,1.07,3.33-1.15,4.2-2,2.1-2,3-4.94,3.46-7.73a7.75,7.75,0,0,0,.16-2.25,5.48,5.48,0,0,0-3.34-4c-2.13-1-5.37-1.78-7.27.06A5.49,5.49,0,0,0,685.73,654.05Z" transform="translate(-12.46 0)"/><path class="cls-10" d="M692.57,649s-5.18,9.4-8.25,11.3-1.49-12.45-.05-11.86S692.31,645.51,692.57,649Z" transform="translate(-12.46 0)"/><path class="cls-10" d="M699.19,657.86s-10.07-7.71-7.73-9.17,6.7,1.77,6.7,1.77l2.29,7.48Z" transform="translate(-12.46 0)"/></g><g id="back-guy"><polygon class="cls-13" points="732 666.96 730.7 661.15 736.95 661.15 738.25 666.96 732 666.96"/><path class="cls-14" d="M739.87,653a28,28,0,0,0,1.72,7,11.4,11.4,0,0,0,3.62,4.8c1.4,1,3.42-1.43,4.29-2.37,2.07-2.23,2.75-5.34,3.1-8.28a8.12,8.12,0,0,0,0-2.36c-.34-1.88-2.09-3.27-3.8-3.94-2.32-.9-5.77-1.48-7.65.57A5.65,5.65,0,0,0,739.87,653Z" transform="translate(-12.46 0)"/><polygon class="cls-15" points="722.35 682.58 721.08 666.14 746.73 666.14 752.94 682.46 722.35 682.58"/><path class="cls-16" d="M740.66,657.18a20,20,0,0,1-1.81-9c.22-4.93,10.56-3.51,10.56-3.51s7,2.79,2.91,11.33l-.75-5.19-9.91.68Z" transform="translate(-12.46 0)"/></g><g id="Brown-building-left"><path class="cls-17" d="M108.77,729.18l-20.3-29.07h21.68l-.32,28.78A.58.58,0,0,1,108.77,729.18Z" transform="translate(-12.46 0)"/><rect class="cls-18" x="326.67" y="691.56" width="220.18" height="325.17" transform="translate(861.06 1708.29) rotate(-180)"/><path class="cls-19" d="M419.75,784.32c0-26.61-13.41-37.51-30.59-37.51H378.38c-17.11,0-31,10.83-31.08,37.24h0v.27h0v84.16h72.46V784.32h0Z" transform="translate(-12.46 0)"/><rect class="cls-8" x="337.27" y="840.47" width="67.38" height="22.46"/><rect class="cls-8" x="337.27" y="785.06" width="66.82" height="77.87"/><path class="cls-8" d="M349.73,785.31h0c0-24.54,12.84-34.59,28.67-34.59h9.94c15.84,0,28.68,10,28.68,34.59h0" transform="translate(-12.46 0)"/><line class="cls-9" x1="370.91" y1="750.72" x2="370.91" y2="862.93"/><line class="cls-9" x1="337.36" y1="785.31" x2="404.64" y2="785.31"/><polyline class="cls-9" points="404.55 785.32 404.55 862.93 337.26 862.93 337.26 785.32"/><path class="cls-19" d="M506.93,784.32c0-26.61-13.41-37.51-30.58-37.51H465.57c-17.11,0-31,10.83-31.09,37.24h0v.27h0v84.16h72.45V784.32h0Z" transform="translate(-12.46 0)"/><rect class="cls-8" x="424.81" y="840.47" width="67.38" height="22.46"/><rect class="cls-8" x="424.81" y="785.06" width="66.82" height="77.87"/><path class="cls-8" d="M437.27,785.31h0c0-24.54,12.84-34.59,28.67-34.59h9.95c15.83,0,28.67,10,28.67,34.59h0" transform="translate(-12.46 0)"/><line class="cls-9" x1="458.45" y1="750.72" x2="458.45" y2="862.93"/><line class="cls-9" x1="424.9" y1="785.31" x2="492.18" y2="785.31"/><polyline class="cls-9" points="492.09 785.32 492.09 862.93 424.81 862.93 424.81 785.32"/><path class="cls-17" d="M547.52,726.82l20.3-29.07H546.15l.32,28.78A.58.58,0,0,0,547.52,726.82Z" transform="translate(-12.46 0)"/><polygon class="cls-20" points="410.14 549.82 314.21 549.82 314.21 697.75 556.52 697.75 410.14 549.82"/><path class="cls-21" d="M488.05,683.74c-14.33-.64-45.53-47.5-45.53-47.5h65.32l67.07,47.52H488.05" transform="translate(-12.46 0)"/><path class="cls-22" d="M597.54,641l-22.07,41.19-89.18,1.57s-6.8-.77-7.25-4.18S490,697.11,520,641Z" transform="translate(-12.46 0)"/><path class="cls-23" d="M596.49,642.57l-22.07,41.19H487.56v0c6.7.32,17.3-10,34-41.17Z" transform="translate(-12.46 0)"/><path class="cls-24" d="M344.47,683.32H573.94a0,0,0,0,1,0,0v19.46a0,0,0,0,1,0,0H326.67a0,0,0,0,1,0,0v-1.66A17.8,17.8,0,0,1,344.47,683.32Z" transform="translate(888.14 1386.11) rotate(180)"/><rect class="cls-19" x="314.21" y="702.91" width="220.18" height="5.19"/><polygon class="cls-20" points="218.27 549.82 314.21 549.82 314.21 697.75 71.9 697.75 218.27 549.82"/><rect class="cls-18" x="95.08" y="691.56" width="220.18" height="325.17"/><path class="cls-19" d="M234.65,784.32c0-26.61,13.42-37.51,30.59-37.51H276c17.11,0,31,10.83,31.08,37.24h0v.27h0v84.16H234.65V784.32h0Z" transform="translate(-12.46 0)"/><rect class="cls-8" x="237.29" y="840.47" width="67.38" height="22.46" transform="translate(529.5 1703.39) rotate(-180)"/><rect class="cls-8" x="237.85" y="785.06" width="66.82" height="77.87" transform="translate(530.06 1647.99) rotate(-180)"/><path class="cls-8" d="M304.67,785.32h0c0-24.55-12.84-34.6-28.67-34.6h-9.94c-15.84,0-28.68,10-28.68,34.6h0" transform="translate(-12.46 0)"/><line class="cls-9" x1="258.56" y1="750.72" x2="258.56" y2="862.93"/><line class="cls-9" x1="292.12" y1="785.32" x2="224.83" y2="785.32"/><polyline class="cls-9" points="224.92 785.32 224.92 862.93 292.21 862.93 292.21 785.32"/><path class="cls-19" d="M147.47,784.32c0-26.61,13.41-37.51,30.58-37.51h10.78c17.11,0,31,10.83,31.09,37.24h0v.27h0v84.16H147.47V784.32h0Z" transform="translate(-12.46 0)"/><rect class="cls-8" x="149.75" y="840.47" width="67.38" height="22.46" transform="translate(354.42 1703.39) rotate(-180)"/><rect class="cls-8" x="150.31" y="785.06" width="66.82" height="77.87" transform="translate(354.98 1647.99) rotate(-180)"/><path class="cls-8" d="M217.13,785.32h0c0-24.55-12.84-34.6-28.67-34.6h-9.94c-15.84,0-28.68,10-28.68,34.6h0" transform="translate(-12.46 0)"/><line class="cls-9" x1="171.02" y1="750.72" x2="171.02" y2="862.93"/><line class="cls-9" x1="204.57" y1="785.32" x2="137.29" y2="785.32"/><polyline class="cls-9" points="137.38 785.32 137.38 862.93 204.67 862.93 204.67 785.32"/><path class="cls-24" d="M68,683.32H315.26a0,0,0,0,1,0,0v19.46a0,0,0,0,1,0,0H85.8A17.8,17.8,0,0,1,68,685v-1.66A0,0,0,0,1,68,683.32Z"/><rect class="cls-19" x="107.55" y="702.91" width="220.18" height="5.19" transform="translate(422.81 1411.02) rotate(-180)"/></g><g id="Flower-garden-2"><path class="cls-25" d="M482.13,897.77a16.93,16.93,0,0,1,.16-3.69,18.62,18.62,0,0,1,.87-3.63,24.09,24.09,0,0,1,3.89-6.37,72.2,72.2,0,0,0,4.39-5.78,24,24,0,0,0,3.77-13.48c0-2.4-.34-4.85-.26-7.36a21.19,21.19,0,0,1,1.48-7.33,56.53,56.53,0,0,1,3.16-6.67c-1.73,4.56-3.57,9.22-3.38,14,.07,2.39.41,4.81.53,7.31a24.43,24.43,0,0,1-.85,7.51,25,25,0,0,1-3.16,6.86,58.07,58.07,0,0,1-4.71,5.74,26.35,26.35,0,0,0-4.13,5.88A20.85,20.85,0,0,0,482.13,897.77Z" transform="translate(-12.46 0)"/><path class="cls-25" d="M495,860.25s-.21-3-5.2-5.94C489.82,854.31,489.64,862.48,495,860.25Z" transform="translate(-12.46 0)"/><path class="cls-25" d="M494,872.6s.74-4.31-5.3-9.25C488.68,863.35,485.63,874.82,494,872.6Z" transform="translate(-12.46 0)"/><path class="cls-25" d="M496.38,853.77s1.14-2.81,6.71-4.75C503.09,849,500.73,856.69,496.38,853.77Z" transform="translate(-12.46 0)"/><path class="cls-25" d="M493.89,877.41s1.33-3.28,7.84-5.55C501.73,871.86,499,880.83,493.89,877.41Z" transform="translate(-12.46 0)"/><path class="cls-25" d="M496.82,867.76s.55-3.81,7.1-7.22C503.92,860.54,503.38,870.83,496.82,867.76Z" transform="translate(-12.46 0)"/><path class="cls-25" d="M466.05,906.86a25.68,25.68,0,0,1-1.41-7.6,19.13,19.13,0,0,1,.3-3.92,24.05,24.05,0,0,1,1.07-3.78c1.78-4.92,4.69-9.24,5.81-14.09a31.38,31.38,0,0,0-.05-14.86c-1.2-4.87-3.41-9.68-4-14.82,1.18,5,3.72,9.48,5.19,14.5a30,30,0,0,1,.4,15.57,34.69,34.69,0,0,1-2.85,7.3c-1.17,2.3-2.38,4.54-3.35,6.85a20.34,20.34,0,0,0-1.75,7.26A28.57,28.57,0,0,0,466.05,906.86Z" transform="translate(-12.46 0)"/><path class="cls-25" d="M468.87,854.84s-1.42-4-9.12-6.85C459.75,848,462.61,858.81,468.87,854.84Z" transform="translate(-12.46 0)"/><path class="cls-25" d="M472.17,871.36s-.66-5.84-10.51-11.22C461.66,860.14,462,875.88,472.17,871.36Z" transform="translate(-12.46 0)"/><path class="cls-25" d="M468.22,846s.44-3.93,7.06-7.55C475.28,838.47,475.07,849.06,468.22,846Z" transform="translate(-12.46 0)"/><path class="cls-25" d="M473.87,877.73s.52-4.59,8.26-8.82C482.13,868.91,481.88,881.28,473.87,877.73Z" transform="translate(-12.46 0)"/><path class="cls-25" d="M474.1,864.43s-.72-5.14,6.64-10.89C480.74,853.54,483.92,867.22,474.1,864.43Z" transform="translate(-12.46 0)"/><path class="cls-25" d="M460.37,899.88a22.58,22.58,0,0,0-1.19-7.87,27.1,27.1,0,0,0-4-6.82,59,59,0,0,1-4.66-6.7,25.72,25.72,0,0,1-2.89-16.1c.39-2.71,1-5.33,1.3-7.95.69-5.24-.88-10.51-2.38-15.66a60.6,60.6,0,0,1,2.78,7.61,23.36,23.36,0,0,1,.86,8.16c-.17,2.75-.75,5.4-1,8a25.88,25.88,0,0,0,.21,7.81,25.31,25.31,0,0,0,2.51,7.37,69.32,69.32,0,0,0,4.34,6.7,25.84,25.84,0,0,1,3.71,7.31,20.88,20.88,0,0,1,.61,4.05A19,19,0,0,1,460.37,899.88Z" transform="translate(-12.46 0)"/><path class="cls-25" d="M449.92,857.62s.54-3.35,6.37-6.31C456.29,851.31,455.65,860.37,449.92,857.62Z" transform="translate(-12.46 0)"/><path class="cls-25" d="M449.81,871.37s-.38-4.82,6.82-10C456.63,861.38,458.83,874.26,449.81,871.37Z" transform="translate(-12.46 0)"/><path class="cls-25" d="M449.07,850.37s-1-3.18-6.95-5.61C442.12,844.76,444,853.39,449.07,850.37Z" transform="translate(-12.46 0)"/><path class="cls-25" d="M449.42,876.71s-1.14-3.71-8.13-6.56C441.29,870.15,443.44,880.24,449.42,876.71Z" transform="translate(-12.46 0)"/><path class="cls-25" d="M447.15,865.86s-.22-4.25-7.13-8.37C440,857.49,439.57,868.92,447.15,865.86Z" transform="translate(-12.46 0)"/><path class="cls-25" d="M363.9,907.09a27.07,27.07,0,0,0,.5-9.56,28.64,28.64,0,0,0-3.24-8.93,59,59,0,0,1-4.1-8.89,29.49,29.49,0,0,1-1.36-9.82,33.31,33.31,0,0,1,1.82-9.72c1.07-3.1,2.33-6.07,3.28-9.1a29,29,0,0,0,1.31-9.41,92.14,92.14,0,0,0-.72-9.64,70.15,70.15,0,0,1,1.51,9.61,29.39,29.39,0,0,1-.9,9.78c-.81,3.19-2.07,6.19-3,9.24a32.43,32.43,0,0,0-1.66,9.29,28.49,28.49,0,0,0,1.2,9.31,70,70,0,0,0,3.76,8.81,29.17,29.17,0,0,1,2.9,9.38,25.66,25.66,0,0,1-1.28,9.65Z" transform="translate(-12.46 0)"/><path class="cls-25" d="M361.08,855.07s1.42-4,9.12-6.86C370.2,848.21,367.34,859,361.08,855.07Z" transform="translate(-12.46 0)"/><path class="cls-25" d="M357.78,871.58s.66-5.84,10.51-11.22C368.29,860.36,368,876.1,357.78,871.58Z" transform="translate(-12.46 0)"/><path class="cls-25" d="M361.73,846.24s-.44-3.92-7.06-7.54C354.67,838.7,354.88,849.28,361.73,846.24Z" transform="translate(-12.46 0)"/><path class="cls-25" d="M356.08,878s-.52-4.6-8.26-8.82C347.82,869.14,348.07,881.51,356.08,878Z" transform="translate(-12.46 0)"/><path class="cls-25" d="M355.85,864.65s.72-5.14-6.64-10.89C349.21,853.76,346,867.45,355.85,864.65Z" transform="translate(-12.46 0)"/><path class="cls-25" d="M369.58,900.1a19.54,19.54,0,0,1-.18-4.05A21,21,0,0,1,370,892a25.65,25.65,0,0,1,3.71-7.3,70.57,70.57,0,0,0,4.34-6.7,25.47,25.47,0,0,0,2.51-7.38,25.82,25.82,0,0,0,.21-7.8c-.29-2.63-.87-5.28-1-8a23.33,23.33,0,0,1,.86-8.16,61.33,61.33,0,0,1,2.78-7.62c-1.5,5.15-3.07,10.43-2.38,15.66.31,2.63.91,5.24,1.3,8a26.5,26.5,0,0,1-.13,8.29,26.08,26.08,0,0,1-2.76,7.81,59.16,59.16,0,0,1-4.66,6.71,27,27,0,0,0-4,6.81A22.65,22.65,0,0,0,369.58,900.1Z" transform="translate(-12.46 0)"/><path class="cls-25" d="M380,854.8s-.54-3.35-6.37-6.31C373.66,848.49,374.3,857.55,380,854.8Z" transform="translate(-12.46 0)"/><path class="cls-25" d="M380.14,871.59s.38-4.82-6.82-10C373.32,861.61,371.12,874.48,380.14,871.59Z" transform="translate(-12.46 0)"/><path class="cls-25" d="M380.53,876.93s1.14-3.71,8.13-6.55C388.66,870.38,386.51,880.46,380.53,876.93Z" transform="translate(-12.46 0)"/><path class="cls-25" d="M382.8,866.08s.22-4.25,7.13-8.36C389.93,857.72,390.38,869.14,382.8,866.08Z" transform="translate(-12.46 0)"/><path class="cls-25" d="M414.76,903.63a21.7,21.7,0,0,0-1.69-7,26.17,26.17,0,0,0-4-5.93,57.47,57.47,0,0,1-4.53-5.82,25.13,25.13,0,0,1-3-6.89,25.68,25.68,0,0,1-.78-7.45c.13-2.48.44-4.89.51-7.27.19-4.75-1.55-9.4-3.19-14a57.45,57.45,0,0,1,3,6.67,22.48,22.48,0,0,1,1.42,7.29c.08,2.49-.21,4.93-.24,7.31a25.08,25.08,0,0,0,3.53,13.49c1.18,2,2.78,3.87,4.22,5.85a24.53,24.53,0,0,1,3.72,6.41,20.09,20.09,0,0,1,.81,3.62A17.35,17.35,0,0,1,414.76,903.63Z" transform="translate(-12.46 0)"/><path class="cls-25" d="M402.48,866.1s.2-3,5-5.93C407.44,860.17,407.6,868.34,402.48,866.1Z" transform="translate(-12.46 0)"/><path class="cls-25" d="M403.47,878.46s-.7-4.32,5-9.26C408.52,869.2,411.42,880.68,403.47,878.46Z" transform="translate(-12.46 0)"/><path class="cls-25" d="M401.18,859.62s-1.08-2.81-6.39-4.74C394.79,854.88,397,862.55,401.18,859.62Z" transform="translate(-12.46 0)"/><path class="cls-25" d="M400.76,873.62s-.52-3.81-6.76-7.22C394,866.4,394.51,876.68,400.76,873.62Z" transform="translate(-12.46 0)"/><path class="cls-25" d="M430.09,912.72a28.67,28.67,0,0,0,.45-9.54,29.73,29.73,0,0,0-3.1-9,59.45,59.45,0,0,1-3.93-8.94,30.87,30.87,0,0,1-1.28-9.79,35,35,0,0,1,1.74-9.7c1-3.1,2.23-6.08,3.14-9.12a30.39,30.39,0,0,0,1.25-9.4c0-3.2-.37-6.41-.67-9.62a75,75,0,0,1,1.46,9.59,31.14,31.14,0,0,1-.83,9.75c-.77,3.19-2,6.21-2.88,9.26a33.83,33.83,0,0,0-1.59,9.29,29.88,29.88,0,0,0,1.13,9.31,72,72,0,0,0,3.59,8.85,30,30,0,0,1,2.75,9.39,24.9,24.9,0,0,1-.18,4.89A25.56,25.56,0,0,1,430.09,912.72Z" transform="translate(-12.46 0)"/><path class="cls-25" d="M427.39,860.7s1.36-4,8.69-6.86C436.08,853.84,433.36,864.67,427.39,860.7Z" transform="translate(-12.46 0)"/><path class="cls-25" d="M424.25,877.22s.63-5.84,10-11.22C434.26,866,434,881.74,424.25,877.22Z" transform="translate(-12.46 0)"/><path class="cls-25" d="M428,853.4s-.42-3.93-6.73-7.55C421.28,845.85,421.49,856.44,428,853.4Z" transform="translate(-12.46 0)"/><path class="cls-25" d="M422.42,870.28s.68-5.13-6.34-10.89C416.08,859.39,413.06,873.08,422.42,870.28Z" transform="translate(-12.46 0)"/><polygon class="cls-26" points="341.72 927.44 483.92 927.44 493.86 884.26 331.79 884.26 341.72 927.44"/></g><g id="Flower-garden-1"><path class="cls-25" d="M171.83,902.06a20.85,20.85,0,0,0-1.76-7,26.35,26.35,0,0,0-4.13-5.88,58.07,58.07,0,0,1-4.71-5.74,25,25,0,0,1-3.16-6.86,24.43,24.43,0,0,1-.85-7.51c.12-2.5.45-4.92.52-7.31.2-4.78-1.64-9.44-3.37-14a56.53,56.53,0,0,1,3.16,6.67,21.42,21.42,0,0,1,1.48,7.33c.08,2.51-.23,5-.26,7.36a24,24,0,0,0,3.77,13.48,72.2,72.2,0,0,0,4.39,5.78,24.35,24.35,0,0,1,3.89,6.37,19.37,19.37,0,0,1,.87,3.63A17.58,17.58,0,0,1,171.83,902.06Z" transform="translate(-12.46 0)"/><path class="cls-25" d="M158.94,864.54s.21-3,5.2-5.94C164.14,858.6,164.32,866.77,158.94,864.54Z" transform="translate(-12.46 0)"/><path class="cls-25" d="M160,876.89s-.74-4.31,5.3-9.25C165.28,867.64,168.33,879.11,160,876.89Z" transform="translate(-12.46 0)"/><path class="cls-25" d="M157.58,858.06s-1.14-2.81-6.71-4.75C150.87,853.31,153.23,861,157.58,858.06Z" transform="translate(-12.46 0)"/><path class="cls-25" d="M157.14,872.05s-.55-3.81-7.1-7.22C150,864.83,150.58,875.11,157.14,872.05Z" transform="translate(-12.46 0)"/><path class="cls-25" d="M187.91,911.15a27.05,27.05,0,0,0,.49-9.56,28.31,28.31,0,0,0-3.23-8.92,59.62,59.62,0,0,1-4.1-8.9,29.42,29.42,0,0,1-1.36-9.82,33.43,33.43,0,0,1,1.82-9.72c1.07-3.09,2.32-6.06,3.28-9.1a29,29,0,0,0,1.31-9.4,95.13,95.13,0,0,0-.72-9.65,72.12,72.12,0,0,1,1.51,9.62,29.33,29.33,0,0,1-.9,9.77c-.81,3.19-2.07,6.2-3,9.24a32.49,32.49,0,0,0-1.66,9.29,28.51,28.51,0,0,0,1.2,9.32,71.27,71.27,0,0,0,3.76,8.81,29.28,29.28,0,0,1,2.9,9.37,25.11,25.11,0,0,1-.18,4.91A23.15,23.15,0,0,1,187.91,911.15Z" transform="translate(-12.46 0)"/><path class="cls-25" d="M185.08,859.13s1.43-4,9.12-6.85C194.2,852.28,191.35,863.1,185.08,859.13Z" transform="translate(-12.46 0)"/><path class="cls-25" d="M181.79,875.65s.66-5.84,10.51-11.22C192.3,864.43,192,880.17,181.79,875.65Z" transform="translate(-12.46 0)"/><path class="cls-25" d="M185.74,850.31s-.44-3.93-7.07-7.55C178.67,842.76,178.89,853.35,185.74,850.31Z" transform="translate(-12.46 0)"/><path class="cls-25" d="M180.09,882s-.52-4.59-8.26-8.82C171.83,873.2,172.08,885.57,180.09,882Z" transform="translate(-12.46 0)"/><path class="cls-25" d="M179.86,868.72s.72-5.14-6.64-10.89C173.22,857.83,170,871.51,179.86,868.72Z" transform="translate(-12.46 0)"/><path class="cls-25" d="M193.59,904.17a19,19,0,0,1-.18-4.06,20.14,20.14,0,0,1,.61-4.05,25.84,25.84,0,0,1,3.71-7.31,69.32,69.32,0,0,0,4.34-6.7,25.31,25.31,0,0,0,2.51-7.37,25.88,25.88,0,0,0,.21-7.81c-.29-2.63-.87-5.28-1-8a23.59,23.59,0,0,1,.85-8.16,62.26,62.26,0,0,1,2.79-7.61c-1.5,5.15-3.08,10.42-2.38,15.66.31,2.62.91,5.24,1.3,7.95a26.74,26.74,0,0,1-.13,8.28,26.24,26.24,0,0,1-2.76,7.82,59,59,0,0,1-4.66,6.7,27.1,27.1,0,0,0-4,6.82A22.58,22.58,0,0,0,193.59,904.17Z" transform="translate(-12.46 0)"/><path class="cls-25" d="M204,861.91s-.54-3.35-6.37-6.31C197.67,855.6,198.31,864.66,204,861.91Z" transform="translate(-12.46 0)"/><path class="cls-25" d="M204.15,875.66s.38-4.82-6.82-10C197.33,865.67,195.13,878.55,204.15,875.66Z" transform="translate(-12.46 0)"/><path class="cls-25" d="M204.89,854.66s1-3.18,7-5.61C211.84,849.05,210,857.68,204.89,854.66Z" transform="translate(-12.46 0)"/><path class="cls-25" d="M206.81,870.15s.22-4.25,7.13-8.37C213.94,861.78,214.39,873.21,206.81,870.15Z" transform="translate(-12.46 0)"/><path class="cls-25" d="M291.58,908.33a23.15,23.15,0,0,1-1.1-4.74,25.11,25.11,0,0,1-.18-4.91,29.28,29.28,0,0,1,2.9-9.37A71.27,71.27,0,0,0,297,880.5a28.51,28.51,0,0,0,1.2-9.32,32.49,32.49,0,0,0-1.66-9.29c-.95-3-2.21-6-3-9.24a29.33,29.33,0,0,1-.9-9.77,72.12,72.12,0,0,1,1.51-9.62,95.13,95.13,0,0,0-.72,9.65,29,29,0,0,0,1.31,9.4c1,3,2.21,6,3.28,9.1a33.43,33.43,0,0,1,1.82,9.72,29.42,29.42,0,0,1-1.36,9.82,59.62,59.62,0,0,1-4.1,8.9,28.31,28.31,0,0,0-3.23,8.92A27.05,27.05,0,0,0,291.58,908.33Z" transform="translate(-12.46 0)"/><path class="cls-25" d="M294.41,856.31s-1.43-4-9.12-6.85C285.29,849.46,288.14,860.28,294.41,856.31Z" transform="translate(-12.46 0)"/><path class="cls-25" d="M297.7,872.83S297,867,287.19,861.61C287.19,861.61,287.52,877.35,297.7,872.83Z" transform="translate(-12.46 0)"/><path class="cls-25" d="M293.75,847.49s.44-3.93,7.07-7.55C300.82,839.94,300.6,850.53,293.75,847.49Z" transform="translate(-12.46 0)"/><path class="cls-25" d="M299.4,879.2s.52-4.59,8.26-8.82C307.66,870.38,307.41,882.76,299.4,879.2Z" transform="translate(-12.46 0)"/><path class="cls-25" d="M299.63,865.9s-.72-5.14,6.64-10.89C306.27,855,309.45,868.69,299.63,865.9Z" transform="translate(-12.46 0)"/><path class="cls-25" d="M285.9,901.35a23.68,23.68,0,0,0-.78-6.29,18.66,18.66,0,0,0-2.56-5.64c-2.25-3.51-5.26-6.65-7.16-10.69a25.23,25.23,0,0,1-2.28-12.82c.38-4.37,1.88-8.38,2.1-12.66.41,4.29-.69,8.59-.83,12.73A26.47,26.47,0,0,0,276.87,878c1.7,3.75,4.63,6.93,6.77,10.73a17.82,17.82,0,0,1,2.26,6.14A21.07,21.07,0,0,1,285.9,901.35Z" transform="translate(-12.46 0)"/><path class="cls-25" d="M275.34,872.84s-.38-4.82,6.82-10C282.16,862.85,284.36,875.73,275.34,872.84Z" transform="translate(-12.46 0)"/><path class="cls-25" d="M275,878.18s-1.14-3.71-8.13-6.56C266.82,871.62,269,881.71,275,878.18Z" transform="translate(-12.46 0)"/><path class="cls-25" d="M272.63,867.57s-.17-3.31-5.56-6.52C267.07,861.05,266.72,870,272.63,867.57Z" transform="translate(-12.46 0)"/><path class="cls-25" d="M238.74,900.31a16.28,16.28,0,0,1,.16-3.69,18.45,18.45,0,0,1,.87-3.63,24.38,24.38,0,0,1,3.88-6.38,69.94,69.94,0,0,0,4.4-5.77,24.09,24.09,0,0,0,2.89-6.47,23.69,23.69,0,0,0,.88-7c0-2.4-.34-4.85-.26-7.36a21.29,21.29,0,0,1,1.48-7.33A57.29,57.29,0,0,1,256.2,846c-1.73,4.57-3.57,9.22-3.38,14,.07,2.39.41,4.81.53,7.3a23.71,23.71,0,0,1-4,14.37,59.31,59.31,0,0,1-4.7,5.75,26,26,0,0,0-4.13,5.87A20.61,20.61,0,0,0,238.74,900.31Z" transform="translate(-12.46 0)"/><path class="cls-25" d="M251.63,862.78s-.21-3-5.2-5.93C246.43,856.85,246.25,865,251.63,862.78Z" transform="translate(-12.46 0)"/><path class="cls-25" d="M250.58,875.14s.74-4.32-5.3-9.26C245.28,865.88,242.24,877.36,250.58,875.14Z" transform="translate(-12.46 0)"/><path class="cls-25" d="M253,856.3s1.14-2.81,6.71-4.75C259.7,851.55,257.34,859.23,253,856.3Z" transform="translate(-12.46 0)"/><path class="cls-25" d="M250.5,880s1.33-3.29,7.84-5.55C258.34,874.4,255.58,883.37,250.5,880Z" transform="translate(-12.46 0)"/><path class="cls-25" d="M253.43,870.3s.55-3.81,7.1-7.22C260.53,863.08,260,873.36,253.43,870.3Z" transform="translate(-12.46 0)"/><path class="cls-25" d="M222.65,909.4a24.07,24.07,0,0,1-1.09-4.75,23.52,23.52,0,0,1-.18-4.9,29.17,29.17,0,0,1,2.9-9.38,70,70,0,0,0,3.76-8.81,28.76,28.76,0,0,0,1.2-9.31,32.43,32.43,0,0,0-1.66-9.29c-1-3.05-2.21-6.05-3-9.24a29.39,29.39,0,0,1-.9-9.78,70.15,70.15,0,0,1,1.51-9.61,92.14,92.14,0,0,0-.72,9.64,28.72,28.72,0,0,0,1.31,9.41c1,3,2.21,6,3.28,9.1a33.31,33.31,0,0,1,1.82,9.72A29.49,29.49,0,0,1,229.5,882a59,59,0,0,1-4.1,8.89,28.64,28.64,0,0,0-3.24,8.93A27.3,27.3,0,0,0,222.65,909.4Z" transform="translate(-12.46 0)"/><path class="cls-25" d="M225.48,857.38s-1.43-4-9.12-6.86C216.36,850.52,219.22,861.35,225.48,857.38Z" transform="translate(-12.46 0)"/><path class="cls-25" d="M228.78,873.89s-.66-5.84-10.51-11.22C218.27,862.67,218.6,878.41,228.78,873.89Z" transform="translate(-12.46 0)"/><path class="cls-25" d="M224.83,848.55s.44-3.92,7.06-7.54C231.89,841,231.68,851.59,224.83,848.55Z" transform="translate(-12.46 0)"/><path class="cls-25" d="M230.48,880.27s.52-4.6,8.26-8.82C238.74,871.45,238.49,883.82,230.48,880.27Z" transform="translate(-12.46 0)"/><path class="cls-25" d="M230.7,867s-.71-5.14,6.65-10.89C237.35,856.07,240.53,869.76,230.7,867Z" transform="translate(-12.46 0)"/><polygon class="cls-26" points="287.31 928.69 145.1 928.69 135.17 885.51 297.24 885.51 287.31 928.69"/></g><g id="Singing-lady"><polygon class="cls-27" points="180.5 830.11 179.55 850.61 182.28 852.56 186.76 829.15 182.28 827.93 180.5 830.11"/><path class="cls-28" d="M206.44,800.37h-2s-1.88,2.61-7.75,3.91c0,0-3.39.37-2.67,3.6l.71,3.23s.51,10.4-.81,14.63-1.86,5.53-1.86,5.53,4.27-3.25,7.21.81S205,814.36,205,814.36Z" transform="translate(-12.46 0)"/><path class="cls-29" d="M215.66,795.05v12.83L203,811.31s3.56-19.14,1.47-21.5S215.66,795.05,215.66,795.05Z" transform="translate(-12.46 0)"/><path class="cls-30" d="M204.4,800.37l2,7.33s9.22-5.43,9.22-6.87c0,0,1.49,2.16,8.6.56a1.73,1.73,0,0,1,1.93,1c.7,1.37,7.81,12.26,9.13,15.54,0,0,3.72,8.26,4.08,9.72,0,0-4.28-2.44-7.66.65,0,0-8.12-10.73-8.34-12.52,0,0,.23,12.36-1.5,18,0,0-13.68,4.39-24,0-3-1.3-1.33-6.54-.85-8.71a22.32,22.32,0,0,0,.92-5.1c0-2.09-1.57-3.68-2-5.69a6.17,6.17,0,0,1,2.3-6.49C203.77,803.63,204.4,800.37,204.4,800.37Z" transform="translate(-12.46 0)"/><path class="cls-27" d="M223.31,776.32c.33,7.33.07,20.75-5.28,20.91s-11.32-2.41-11.32-2.41-8.87-8.57-4-18.5S223,769.36,223.31,776.32Z" transform="translate(-12.46 0)"/><path class="cls-31" d="M217.58,775s-3,15.89-16.31,25.31-12.82-12.47-12.82-12.47,1.07-18.2,19.77-22.11a22.53,22.53,0,0,1,20.42,5.66c5,4.75,8.07,11.8,6.65,18.46-1.5,7.08-10.39,7.09-13.74,4.26C221.55,794.13,226.75,778.43,217.58,775Z" transform="translate(-12.46 0)"/><path class="cls-27" d="M208.74,876.92c.37-3.3,1.27,8.56-1.53,22.92-1.12,5.73-2,24.88-2,24.88h-6.14l-1.82-16.1c-1.81-16.09-2.51-31.7-2.51-31.7Z" transform="translate(-12.46 0)"/><path class="cls-27" d="M218.79,879.85l7.75,44.87h6.68c0-9.77.83-19.56.06-29.32-.11-1.37-2.92-17.31-3.27-17.26Z" transform="translate(-12.46 0)"/><path class="cls-15" d="M197,833.27s-8,33.52-6.44,55.63c0,0,4,2.27,15.85,0s10.87,2.71,24.41,1.08c2-.23,8.54-1.85,8.54-1.85-1.33-9.22-5.08-17.74-6.62-27-1.16-7-2.28-14.31-6.09-20.56a73,73,0,0,0-4.78-6.75S205.55,837.93,197,833.27Z" transform="translate(-12.46 0)"/><path class="cls-27" d="M239.4,827.69l-11.87,14.45h-5.77l-3,2.38s-3.83-.25-3.9-1.71,3.9-3.9,3.9-3.9l7.41-1,5.54-9.59S235.12,823.55,239.4,827.69Z" transform="translate(-12.46 0)"/><path class="cls-32" d="M205.15,923.38l2.51,8.29-10.06.11-8.59.08c-2.44,0-4.27.43-4.06-2.41,4.26-1.93,9.84-4,14.07-6C199,923.46,202.53,925.34,205.15,923.38Z" transform="translate(-12.46 0)"/><path class="cls-32" d="M226.31,924.3l-2.82,11.16a.77.77,0,0,0,.1.61l3,4.73a.93.93,0,0,0,1.3.23l7.28-5.23a.76.76,0,0,0,.32-.79l-2.12-10.71a.88.88,0,0,0-1.06-.62,12,12,0,0,1-5,.05A.86.86,0,0,0,226.31,924.3Z" transform="translate(-12.46 0)"/><path class="cls-33" d="M249.78,931.3" transform="translate(-12.46 0)"/><path class="cls-33" d="M249.78,810.64" transform="translate(-12.46 0)"/><rect x="236.18" y="810.64" width="2.26" height="120.65"/><path d="M239.16,930.76c8.84,2.63,15,1.53,20.79,0l-10.17-6.89Z" transform="translate(-12.46 0)"/><path d="M249.43,932.92A36.13,36.13,0,0,1,239,931.3l-1.17-.34,12-7.77L261.3,931l-1.2.32A40.47,40.47,0,0,1,249.43,932.92Zm-8.92-2.36a33.83,33.83,0,0,0,18.09,0l-8.83-6Z" transform="translate(-12.46 0)"/><line x1="242.59" y1="817.93" x2="233.08" y2="805.79"/><rect x="248.6" y="804.15" width="3.39" height="15.42" transform="translate(-459.79 326.99) rotate(-38.06)"/><circle class="cls-34" cx="231.95" cy="804.15" r="3.53"/><circle cx="245.34" cy="772.25" r="2.02"/><polygon points="246.45 772.04 244.5 761.4 251.87 760.04 252.03 760.88 245.48 762.08 247.29 771.89 246.45 772.04"/><circle cx="251.85" cy="771.05" r="2.02"/><polygon points="253.04 770.83 251.16 760.6 251.99 760.45 253.87 770.68 253.04 770.83"/><rect x="257.81" y="762.94" width="6.69" height="0.85" transform="translate(-146.2 59.81) rotate(-10.42)"/><circle cx="232.6" cy="773.26" r="2.02"/><path d="M246.64,773.26a.42.42,0,0,1-.41-.31l-2.7-10.05a.43.43,0,0,1,.3-.52.42.42,0,0,1,.52.3l2.7,10.05a.43.43,0,0,1-.3.52Z" transform="translate(-12.46 0)"/><circle cx="232.68" cy="790.64" r="2.02"/><path d="M246.71,791.54a.3.3,0,0,1-.13,0,.42.42,0,0,1-.28-.53l3.47-11.21,1.76,5.42a.43.43,0,0,1-.81.26l-.93-2.87-2.68,8.65A.41.41,0,0,1,246.71,791.54Z" transform="translate(-12.46 0)"/><circle cx="248.26" cy="750.18" r="2.02"/><path d="M262.32,750.22a.43.43,0,0,1-.42-.32l-2.73-11.42,4.28,3.77a.41.41,0,0,1,0,.59.41.41,0,0,1-.59,0l-2.27-2,2.11,8.81a.43.43,0,0,1-.32.51Z" transform="translate(-12.46 0)"/></g><g id="Baby"><circle class="cls-16" cx="576.61" cy="804.38" r="2.02"/><path class="cls-16" d="M590.65,804.38a.43.43,0,0,1-.41-.32l-2.7-10a.43.43,0,0,1,.3-.52.42.42,0,0,1,.52.3l2.7,10a.42.42,0,0,1-.3.52Z" transform="translate(-12.46 0)"/><circle class="cls-16" cx="577.99" cy="821.75" r="2.02"/><path class="cls-16" d="M592,822.66l-.13,0a.43.43,0,0,1-.28-.53l3.47-11.22,1.76,5.42a.44.44,0,0,1-.27.54.43.43,0,0,1-.54-.28l-.93-2.87-2.68,8.66A.43.43,0,0,1,592,822.66Z" transform="translate(-12.46 0)"/><circle class="cls-16" cx="590.98" cy="792.97" r="2.02"/><path class="cls-16" d="M605,793a.42.42,0,0,1-.41-.33l-2.74-11.42,4.28,3.77a.43.43,0,0,1-.56.64l-2.27-2,2.11,8.81a.41.41,0,0,1-.31.51Z" transform="translate(-12.46 0)"/><path class="cls-35" d="M589.53,849s-4.08,5-11.89-1.23c-7.64-6.12-4.59-14.29-.56-16.75s13.7-3.13,17.35,5.84c1.57.39,1.85,3.2,2.38,5.41S589.53,849,589.53,849Z" transform="translate(-12.46 0)"/><path class="cls-36" d="M627.15,843.49c.52,4.33-6.44,8.34-14.86,10.24,5.68-10.91-3.84-19.21-6-20.91.93-.12,1.92-.23,3-.34C620,831.41,626.33,836.62,627.15,843.49Z" transform="translate(-12.46 0)"/><path class="cls-37" d="M599.81,832l0,.11h-.09Z" transform="translate(-12.46 0)"/><path class="cls-36" d="M594,839.42s-1.35-5.87,3.58-5.81c3.11,0,2.59,2.21,2.59,2.21l-4.47,2.51Z" transform="translate(-12.46 0)"/><path class="cls-37" d="M612.72,854l-.29.06a44.23,44.23,0,0,1-15.19.79c-6.83-1-12.74-2.79-17.28-5.45,0,0,15.48-7.9,17.39-16a75.44,75.44,0,0,0,8.84-.91l.34,0C608.77,834.22,618.56,842.76,612.72,854Z" transform="translate(-12.46 0)"/><path class="cls-38" d="M611.37,839.51a11.83,11.83,0,0,1,3.13,4.11,11,11,0,0,1,.83,2.73,8.58,8.58,0,0,1,.07,1.53,6.67,6.67,0,0,1-.17,1.59l-.14.82-.24.8a8,8,0,0,1-.59,1.62,6.85,6.85,0,0,1-1,1.4,6.35,6.35,0,0,1-1.33.9,5.79,5.79,0,0,1-.73.32c-.25.06-.5.13-.76.17a8.82,8.82,0,0,1-1.54.14,6.87,6.87,0,0,1-3.15-1.12l-.23-.69a15.27,15.27,0,0,1,1.11-2.84c.15-.39.3-.71.45-1a5,5,0,0,0,.42-.78,1.38,1.38,0,0,1,.45-.55,1.11,1.11,0,0,1,.53-.34,3.25,3.25,0,0,0,.65-.31c.1-.06.22-.12.33-.2a3.2,3.2,0,0,0,.22-.27,2.12,2.12,0,0,0,.42-.62,3.43,3.43,0,0,0,.34-.75,6.8,6.8,0,0,0,.45-1.84,15.49,15.49,0,0,0-.16-4.42Z" transform="translate(-12.46 0)"/><path class="cls-38" d="M605.11,833.83a5.89,5.89,0,0,1,2.36,3.21,8.36,8.36,0,0,1,.3,3.74,8.08,8.08,0,0,1-.51,1.74,8.23,8.23,0,0,1-1,1.5c-.79.89-1.65,1.68-2.46,2.43a24.39,24.39,0,0,1-2.51,2.09c-.88.61-1.81,1.1-2.7,1.63s-1.88.88-2.83,1.25-1.93.65-2.9.93l-.37-.63q1-1.14,2-2.19l1.81-2.19c.54-.77,1.11-1.48,1.58-2.25a17.63,17.63,0,0,0,1.32-2.23,8.67,8.67,0,0,0,.76-2.36,4.13,4.13,0,0,1,.34-1.08,3.58,3.58,0,0,1,.53-.95c.86-1.24,1.93-2.35,3.58-4.44Z" transform="translate(-12.46 0)"/></g><g id="Wheelchair"><path class="cls-39" d="M372.54,511.79c3.26,0,6.38,1.71,8.79,4.81a18.88,18.88,0,0,1,2.94,5.64,22.87,22.87,0,0,1,1.11,7.09,22.58,22.58,0,0,1-1.09,7.1,18.56,18.56,0,0,1-2.92,5.65c-2.4,3.11-5.51,4.83-8.77,4.84s-6.38-1.7-8.79-4.81a18.6,18.6,0,0,1-2.94-5.63,22.6,22.6,0,0,1-1.12-7.1,22.88,22.88,0,0,1,1.09-7.1,18.61,18.61,0,0,1,2.92-5.64c2.4-3.12,5.52-4.84,8.78-4.85m0-3.34c-8.92,0-16.14,9.39-16.12,20.93s7.27,20.9,16.19,20.89,16.15-9.39,16.13-20.94-7.27-20.9-16.2-20.88Z" transform="translate(-12.46 0)"/><path class="cls-39" d="M374.41,542.8c0,4.12,2.6,7.46,5.78,7.45s5.77-3.35,5.76-7.47a8.1,8.1,0,0,0-2.79-6.37l0,0a5.23,5.23,0,0,0-1.56-.83l-.22-.06a4.25,4.25,0,0,0-1.18-.16,4.45,4.45,0,0,0-1.16.15,5.48,5.48,0,0,0-.1.87c0,.14,0,.28,0,.42s0,.52,0,.79h0v.1a.74.74,0,0,1-.74.75h-.39a.74.74,0,0,1-.74-.74,2.62,2.62,0,0,1,0-.28c0-.09,0-.18,0-.27s0-.37,0-.58A8.23,8.23,0,0,0,374.41,542.8Zm3.35,0a5.41,5.41,0,0,1,1-3.23,1.61,1.61,0,0,1,2.87,0,5.37,5.37,0,0,1,1,3.23,5.3,5.3,0,0,1-1,3.23,2,2,0,0,1-1.43.89,2,2,0,0,1-1.44-.89A5.34,5.34,0,0,1,377.76,542.8Z" transform="translate(-12.46 0)"/><path class="cls-39" d="M394.27,542.77c0,4.12,2.6,7.46,5.78,7.45s5.76-3.35,5.76-7.47a8.15,8.15,0,0,0-2.72-6.32l0,0a5.2,5.2,0,0,0-1.58-.86l-.3-.09a4.32,4.32,0,0,0-1.13-.14,4.62,4.62,0,0,0-1,.11,3.43,3.43,0,0,0-.17.88c0,.22,0,.46,0,.71s0,.53,0,.81v.13a.73.73,0,0,1-.71.72h-.46A.71.71,0,0,1,397,538v-.67c0-.28,0-.58.05-.88l-.05,0A8.16,8.16,0,0,0,394.27,542.77Zm3.35,0a5.32,5.32,0,0,1,1-3.23,1.6,1.6,0,0,1,2.87,0,5.34,5.34,0,0,1,1,3.22,5.41,5.41,0,0,1-1,3.23,1.61,1.61,0,0,1-2.87,0A5.35,5.35,0,0,1,397.62,542.76Z" transform="translate(-12.46 0)"/><path class="cls-40" d="M362.14,478.88v.68a.73.73,0,0,0,.66.79H370l1,30.11v.05l1.9-.08-.05-1.58-.95-29.45h0a1.22,1.22,0,0,0-1.1-1.31H362.8A.73.73,0,0,0,362.14,478.88Z" transform="translate(-12.46 0)"/><rect class="cls-41" x="381.16" y="491.19" width="1.9" height="21.67" transform="translate(871.01 119.05) rotate(89.9)"/><rect class="cls-41" x="399.05" y="505.72" width="1.9" height="27.75" transform="translate(-13.36 0.69) rotate(-0.1)"/><polygon class="cls-41" points="358.49 508.22 358.52 530.05 360.42 530.05 360.38 509.54 360.33 508.22 358.49 508.22"/><path class="cls-41" d="M399,505.72h1.87a4.1,4.1,0,0,0-1.23-3.07c-1.83-1.76-6.67-1.58-6.73-1.58V503c.1,0,4.17-.16,5.43,1.05A2.26,2.26,0,0,1,399,505.72Z" transform="translate(-12.46 0)"/><path class="cls-41" d="M399.07,533v.51H401V533a3.41,3.41,0,0,0-1-.13A3.11,3.11,0,0,0,399.07,533Z" transform="translate(-12.46 0)"/><path class="cls-41" d="M397,538a.71.71,0,0,0,.71.71h.46a.73.73,0,0,0,.71-.72v-.13c0-.28,0-.55,0-.81h0c0-.25,0-.49,0-.71a3.43,3.43,0,0,1,.17-.88,1,1,0,0,1,1-.71,1.19,1.19,0,0,1,1.14.74l.3.09a5.2,5.2,0,0,1,1.58.86c-.14-1.43-.61-3-2.07-3.44v.52h-1.9V533c-1.46.46-1.92,2-2.06,3.44,0,.3,0,.6-.05.88v.09h0Z" transform="translate(-12.46 0)"/><ellipse class="cls-40" cx="372.57" cy="529.64" rx="2.56" ry="3.32" transform="translate(-13.38 0.64) rotate(-0.1)"/><polygon class="cls-42" points="338.51 485.94 339.17 518.41 387.27 518.33 387.26 513.83 360.09 513.87 359.14 485.9 338.51 485.94"/><path class="cls-41" d="M342.2,478.58v.68a.74.74,0,0,0,.67.79h7.18l1,30.11v.05l1.89-.09-.05-1.57-.95-29.45h0a1.21,1.21,0,0,0-1.1-1.31h-7.95A.74.74,0,0,0,342.2,478.58Z" transform="translate(-12.46 0)"/><polygon class="cls-41" points="338.55 507.97 338.59 529.8 340.48 529.8 340.45 509.29 340.4 507.97 338.55 507.97"/><path class="cls-41" d="M380.07,524.22v1.88c.74,0,2.95,0,3.82.65s2.88,5.32,2.88,5.43l1.77,5.84c.32,1,.77,2.26,1.26,3.36a7.29,7.29,0,0,0,1.21,2c1.3,1.24,2.57,1.74,5.15,1.74l.16-2c-.74,0-3-.25-3.87-.93s-2.31-5.24-2.43-5.6l-1.38-4.45c0-.06-2-5.58-3.4-6.73S381.32,524.22,380.07,524.22Z" transform="translate(-12.46 0)"/><path class="cls-40" d="M379.14,532.71v.52H381v-.51a3,3,0,0,0-.94-.14A3.06,3.06,0,0,0,379.14,532.71Z" transform="translate(-12.46 0)"/><path class="cls-41" d="M377,537.39a2.62,2.62,0,0,0,0,.28.74.74,0,0,0,.74.74h.39a.74.74,0,0,0,.74-.75v-.1h0c0-.26,0-.52,0-.78h0c0-.14,0-.28,0-.42a5.48,5.48,0,0,1,.1-.87c.14-.64.44-1,1.08-1a1.31,1.31,0,0,1,1.26,1l.22.06a5.23,5.23,0,0,1,1.56.83c-.12-1.5-.55-3.19-2.1-3.67v.51h-1.89v-.52c-1.59.5-2,2.29-2.09,3.81l0,0c0,.21,0,.4,0,.58h0C377,537.21,377,537.3,377,537.39Z" transform="translate(-12.46 0)"/><ellipse class="cls-41" cx="352.63" cy="529.39" rx="2.56" ry="3.32" transform="translate(-13.38 0.61) rotate(-0.1)"/><rect class="cls-41" x="361.27" y="518.54" width="1.9" height="21.67" transform="translate(878.51 166.24) rotate(89.9)"/><rect class="cls-41" x="389.1" y="519.36" width="1.9" height="19.94" transform="translate(906.24 138.37) rotate(89.9)"/><rect class="cls-41" x="374.29" y="494.97" width="1.9" height="47.75" transform="translate(880.98 142.71) rotate(89.9)"/><path class="cls-35" d="M378.74,485.29c.38.57.59,6.94.59,6.94l2.92,7.49a89.31,89.31,0,0,0,6.16,8.81c2.31,3.51-2.5,1.21-2.8,1.41s-6.13-3.3-9.75-8.71-3-12.42-3-12.42l1.28-4.52Z" transform="translate(-12.46 0)"/><path class="cls-35" d="M371.64,476.33l-1.8,2.64-6.64.85-2.19-2.7,2.37-1.84v-1.75s-5.56-1.26-4.31-12.39c-.34-2.22,3.23-3.31,5-3,4.59.82,7,1.12,7.41,4.41.24,1.78,3.83,9-2.74,11.31,0,1.06,0,1.44,0,1.44Z" transform="translate(-12.46 0)"/><polygon class="cls-43" points="384.19 539.35 388.68 539.34 392.45 539.44 394 540.44 388.76 541.97 381.45 543.86 379.34 539.8 381.97 538.21 384.19 539.35"/><polygon class="cls-43" points="397.74 536.96 402.18 537.65 405.89 538.34 407.27 539.58 401.85 540.26 394.33 540.99 392.88 536.64 395.73 535.48 397.74 536.96"/><path class="cls-44" d="M363.5,515.27c3.83,0,13.12-.21,13.12-.21l5.08,3.18,9.95,22.65,5.9-1.82L390,516.23l-1.32-1.53,8.53.8,6.75,22.69,6.38-1.53L402,510.77s-15.49-3.68-19.11-3.68c-7.24,0-5.62-1.42-5.62-1.42l-3.36-.46a10.17,10.17,0,0,1,.2-1.57l-16.37,0v8.9S357.31,515.28,363.5,515.27Z" transform="translate(-12.46 0)"/><path class="cls-39" d="M352.6,511.83c3.26,0,6.38,1.7,8.79,4.81a18.49,18.49,0,0,1,2.94,5.63,22.6,22.6,0,0,1,1.12,7.1,22.88,22.88,0,0,1-1.09,7.1,18.72,18.72,0,0,1-2.92,5.64c-2.4,3.12-5.52,4.84-8.78,4.84s-6.38-1.7-8.79-4.81a18.71,18.71,0,0,1-2.94-5.63,22.89,22.89,0,0,1-1.11-7.1,22.63,22.63,0,0,1,1.09-7.1,18.62,18.62,0,0,1,2.92-5.64c2.4-3.12,5.51-4.84,8.77-4.84m0-3.35c-8.93,0-16.15,9.39-16.13,20.94s7.27,20.9,16.2,20.88,16.14-9.39,16.12-20.94-7.27-20.89-16.19-20.88Z" transform="translate(-12.46 0)"/><path class="cls-35" d="M353.16,486.08l-8,6.3s4.51,6.93,5.95,14.22a34.5,34.5,0,0,0,4.63,3l1.85,3.36-2,1.72-5.28-1.45s-1.61-3.81-2.2-4.73c-.43-.67-7.79-17.73-7.79-17.73l10.25-10.08Z" transform="translate(-12.46 0)"/><path class="cls-3" d="M355.83,486c-.35,3.43,1.23,19.49,1.94,21.14l21.48,0s-2-16.17-2.4-19.13c.7-.61,2.29-1.24,2.63-1.58.15-.89,0-7-3.24-10.42l-5.77-.35c-.62,3.16-6.39,3.83-7.5-.17-2.79.42-2.79.42-4.55.73a91.8,91.8,0,0,0-9.72,4.65c.44,1.07,3.16,5.71,3.74,6.53A10.53,10.53,0,0,1,355.83,486Z" transform="translate(-12.46 0)"/><path class="cls-45" d="M366.5,457.16l.21,0-.16-.11Z" transform="translate(-12.46 0)"/><path class="cls-45" d="M359.31,468.31h0v0Z" transform="translate(-12.46 0)"/><path class="cls-46" d="M371.21,498.15l-2.7-9.75s-2,2.17-2,1.91l-2-7.38-.32,2.47,2,7.38c.07.26,2-1.91,2-1.91l2.7,9.74Z" transform="translate(-12.46 0)"/><rect class="cls-41" x="379.11" y="505.47" width="1.9" height="27.75" transform="translate(-13.36 0.66) rotate(-0.1)"/><path class="cls-41" d="M379.1,505.47H381a4.11,4.11,0,0,0-1.24-3.07c-1.83-1.76-6.66-1.58-6.73-1.58v1.88c.1,0,4.18-.16,5.43,1.05A2.24,2.24,0,0,1,379.1,505.47Z" transform="translate(-12.46 0)"/><rect class="cls-41" x="361.23" y="490.94" width="1.9" height="21.67" transform="translate(850.87 138.74) rotate(89.9)"/><path class="cls-47" d="M396,546l21.81-2.41c.4,0,.9-.59,1.12-1.22l1.29-3.81c.21-.63.06-1.11-.34-1.06l-21.82,2.41c-.4,0-.9.59-1.11,1.23l-1.29,3.8C395.44,545.56,395.59,546,396,546Z" transform="translate(-12.46 0)"/><path class="cls-44" d="M359.37,468.66a11.53,11.53,0,0,0,.94-3.93c.1-2.14,2.2-1.89,3.4-1.68a8.16,8.16,0,0,0,4.09-.14c1.36-.5,3.72,2.33,4.25,3.43s.19-.63.56-3,.62-3.09,0-4a14.83,14.83,0,0,1-1.25-2.36c-.47-.94-.89-.57-1.57,0s-.16-1-.53-1.47-.1-.84-2.46.63.32-.57-1.94-.1-1.2-.15-4.18,2.16-5.66.11-4.29,4.2A23.53,23.53,0,0,0,359.37,468.66Z" transform="translate(-12.46 0)"/></g><g id="Flowerpot-5"><path class="cls-25" d="M636,679.1a16.61,16.61,0,0,1-.57-4.67,18.29,18.29,0,0,1,.94-4.65,41.68,41.68,0,0,0,1.28-4.43,19.68,19.68,0,0,0,.38-4.53,21.61,21.61,0,0,0-.58-4.52c-.31-1.5-.76-3-1-4.58a20.29,20.29,0,0,1-.22-4.73c.14-1.57.36-3.12.65-4.65-.13,3.11-.34,6.25.38,9.23.35,1.49.8,3,1.19,4.5a22.75,22.75,0,0,1,.66,4.73,20.07,20.07,0,0,1-.46,4.76,32.39,32.39,0,0,1-1.5,4.49,18.09,18.09,0,0,0-1.19,4.42A18.89,18.89,0,0,0,636,679.1Z" transform="translate(-12.46 0)"/><path class="cls-25" d="M637,653.63a6,6,0,0,0-3.17-3.36S634.85,655.57,637,653.63Z" transform="translate(-12.46 0)"/><path class="cls-25" d="M638.16,661.71s-.22-2.86-3.64-5.49C634.52,656.22,634.63,663.93,638.16,661.71Z" transform="translate(-12.46 0)"/><path class="cls-25" d="M636.79,649.3a5.79,5.79,0,0,1,2.45-3.69S639.17,650.79,636.79,649.3Z" transform="translate(-12.46 0)"/><path class="cls-25" d="M638.75,664.84a6.73,6.73,0,0,1,2.87-4.32S641.53,666.58,638.75,664.84Z" transform="translate(-12.46 0)"/><path class="cls-25" d="M638.83,658.32s-.25-2.52,2.31-5.33C641.14,653,642.24,659.69,638.83,658.32Z" transform="translate(-12.46 0)"/><polygon class="cls-26" points="618.23 682.42 613.84 666.57 636.42 666.05 633.11 682.42 618.23 682.42"/></g><g id="Flowerpot-1"><path class="cls-25" d="M688,907.82a32.58,32.58,0,0,0-.94-14c-.68-2.23-1.53-4.43-2.34-6.67a40.26,40.26,0,0,1-1.93-7,38.48,38.48,0,0,1,.34-14.43c1-4.72,2.82-9.1,3.7-13.78-.25,4.77-1.69,9.41-2.45,14a42.44,42.44,0,0,0,0,13.91c.69,4.59,2.74,8.9,3.89,13.6a24.61,24.61,0,0,1,.79,7.2A32.49,32.49,0,0,1,688,907.82Z" transform="translate(-12.46 0)"/><path class="cls-25" d="M683.87,874.28s.44-5.52,7-10.6C690.91,863.68,690.69,878.55,683.87,874.28Z" transform="translate(-12.46 0)"/><path class="cls-25" d="M682.73,880.3s-.34-4.34-5.53-8.34C677.2,872,677.37,883.65,682.73,880.3Z" transform="translate(-12.46 0)"/><path class="cls-25" d="M682.58,867.73s.48-4.86-4.45-10.29C678.13,857.44,676,870.37,682.58,867.73Z" transform="translate(-12.46 0)"/><polygon class="cls-26" points="657.36 914.23 648.9 883.64 692.47 882.65 686.07 914.23 657.36 914.23"/><path class="cls-30" d="M685.27,859.44s-5.07-2.86.56-10S691.1,854.58,685.27,859.44Z" transform="translate(-12.46 0)"/><path class="cls-48" d="M689,847.42s.43,4-3.75,12A11.06,11.06,0,0,0,689,847.42Z" transform="translate(-12.46 0)"/></g><g id="Bird-1"><ellipse class="cls-26" cx="1068.26" cy="563.09" rx="5.82" ry="7.09" transform="translate(-150.95 518.08) rotate(-25.66)"/><path class="cls-49" d="M1058.5,563.86c2.33-3.37,4.12-3.65,4.12-3.65l2.51,2.1s-4-.26-6.45,1.72A.13.13,0,0,1,1058.5,563.86Z" transform="translate(-12.46 0)"/><polygon class="cls-26" points="1054.05 556.37 1064.44 553.06 1055.16 557.88 1062.34 555.3 1055.88 558.66 1060.98 556.89 1057.18 558.86 1060.01 558.22 1056.38 560.1 1054.43 559.57 1052.79 557.02 1054.05 556.37"/><path class="cls-26" d="M1068.78,560.31l-1.94-.54a.2.2,0,0,1-.12-.08l-1.64-2.56a.19.19,0,0,1,0-.16.22.22,0,0,1,.11-.14l1.26-.65h0l10.39-3.31a.21.21,0,0,1,.25.12.21.21,0,0,1-.09.27l-6.53,3.38,4.26-1.52a.2.2,0,0,1,.26.11.2.2,0,0,1-.09.27l-3.9,2,2.38-.82a.21.21,0,0,1,.16.38l-2.35,1.23,1.23-.29a.22.22,0,0,1,.25.14.21.21,0,0,1-.1.25l-3.63,1.89a.22.22,0,0,1-.11,0Zm.91-1.24a.21.21,0,0,1-.24-.14.19.19,0,0,1,.1-.25l1.24-.65-2.38.83a.22.22,0,0,1-.26-.12.21.21,0,0,1,.1-.27l3.7-1.92-4.26,1.53a.22.22,0,0,1-.26-.12.21.21,0,0,1,.09-.27l7.11-3.69-8,2.56-1,.54,1.48,2.29,1.79.49,2.1-1.09Z" transform="translate(-12.46 0)"/><polygon class="cls-26" points="1059.55 560 1090.32 575.1 1071.24 572.28 1058.06 564.85 1059.55 560"/><path class="cls-26" d="M1102.75,575.3l-19.08-2.81-.07,0L1070.42,565a.2.2,0,0,1-.1-.24l1.49-4.85a.3.3,0,0,1,.12-.13.23.23,0,0,1,.18,0l30.77,15.09a.21.21,0,0,1,.11.25.23.23,0,0,1-.21.15Zm-32-10.55,13,7.33,17.72,2.61-29.35-14.39Z" transform="translate(-12.46 0)"/><path class="cls-49" d="M1070.39,583.72l3.84.1a.47.47,0,0,0,.38-.16l2.81-3a.49.49,0,0,0,.12-.46l-1.2-5a.5.5,0,1,0-1,.24l1.13,4.68-2.47,2.63-3.61-.1a.51.51,0,0,0-.52.49A.52.52,0,0,0,1070.39,583.72Z" transform="translate(-12.46 0)"/><path class="cls-49" d="M1074.23,583.82a.5.5,0,0,0,.47-.29.49.49,0,0,0-.24-.66l-3.11-1.46a.51.51,0,0,0-.67.25.5.5,0,0,0,.25.66l3.1,1.45A.49.49,0,0,0,1074.23,583.82Z" transform="translate(-12.46 0)"/><path class="cls-49" d="M1068.09,583l3.84.1a.5.5,0,0,0,.38-.15l2.81-3a.49.49,0,0,0,.12-.46l-1.2-4.94a.5.5,0,0,0-1,.23l1.13,4.68-2.47,2.64-3.61-.1a.49.49,0,0,0-.51.48A.5.5,0,0,0,1068.09,583Z" transform="translate(-12.46 0)"/><path class="cls-49" d="M1071.93,583.08a.52.52,0,0,0,.47-.29.5.5,0,0,0-.24-.67l-3.11-1.45a.5.5,0,0,0-.67.24.52.52,0,0,0,.25.67l3.1,1.45A.73.73,0,0,0,1071.93,583.08Z" transform="translate(-12.46 0)"/><ellipse class="cls-26" cx="1074.62" cy="569.73" rx="7.21" ry="13.24" transform="matrix(0.27, -0.96, 0.96, 0.27, 221.54, 1448.8)"/></g><path class="cls-50" d="M176.85,585.54a33.27,33.27,0,0,0,.83-4.59,10.61,10.61,0,0,0,0-3c-.43-2.42-2.65-4.2-4.83-5.06-2.95-1.17-7.35-1.91-9.73.73a7.31,7.31,0,0,0-1.66,5.89,50.13,50.13,0,0,0,1.19,6Z" transform="translate(-12.46 0)"/><path class="cls-51" d="M162.48,584.86a25.92,25.92,0,0,1-2.31-11.53c.28-6.34,11.9-4.51,11.9-4.51s10.49,3.59,5.25,14.57l-.95-6.68-12.63.88Z" transform="translate(-12.46 0)"/><polyline class="cls-18" points="176.69 610.45 176.69 594.07 137.69 594.07 137.69 626.96 137.72 650.85"/><rect class="cls-24" x="132.75" y="584.8" width="48.49" height="13.34"/><rect class="cls-19" x="137.69" y="598.15" width="39" height="2.62"/><g id="Beige-building-right"><polygon class="cls-20" points="969.6 522.19 716.84 796.8 969.6 796.8 969.6 796.81 1222.4 796.81 990.04 544.36 969.6 522.19"/><path class="cls-17" d="M1219.41,834.67,1240,798.76H1218l.32,35.54C1218.35,835,1219.09,835.22,1219.41,834.67Z" transform="translate(-12.46 0)"/><path class="cls-17" d="M744.76,834.66l-20.55-35.91h21.94l-.33,35.54C745.82,835,745.07,835.21,744.76,834.66Z" transform="translate(-12.46 0)"/><rect class="cls-18" x="730.28" y="790.31" width="239.36" height="233.68"/><path class="cls-19" d="M851.18,846.36h8.54a45.77,45.77,0,0,1,45.77,45.77v119.71a0,0,0,0,1,0,0H805.41a0,0,0,0,1,0,0V892.13a45.77,45.77,0,0,1,45.77-45.77Z"/><path class="cls-52" d="M851.07,850.29h7.79A41.74,41.74,0,0,1,900.6,892v111.13a0,0,0,0,1,0,0H809.33a0,0,0,0,1,0,0V892A41.74,41.74,0,0,1,851.07,850.29Z"/><line class="cls-53" x1="809.66" y1="894.57" x2="900.6" y2="894.57"/><path class="cls-24" d="M699.64,780.3H969.79a0,0,0,0,1,0,0v20.43a0,0,0,0,1,0,0H718.29a18.65,18.65,0,0,1-18.65-18.65V780.3A0,0,0,0,1,699.64,780.3Z"/><rect class="cls-19" x="730.28" y="800.79" width="239.17" height="4.3"/><rect class="cls-18" x="982.06" y="790.32" width="239.36" height="233.68" transform="translate(2191.02 1814.32) rotate(-180)"/><path class="cls-24" d="M998.89,780.31h253.17a0,0,0,0,1,0,0v20.43a0,0,0,0,1,0,0H980.24a0,0,0,0,1,0,0V799A18.65,18.65,0,0,1,998.89,780.31Z" transform="translate(2219.84 1581.06) rotate(-180)"/><rect class="cls-19" x="964.82" y="800.8" width="244.14" height="4.29"/><polyline class="cls-18" points="1040.78 627.49 1040.78 598.31 1110.27 598.31 1110.27 656.91 1110.22 699.5"/><rect class="cls-24" x="1032.65" y="581.8" width="86.41" height="23.78"/><rect class="cls-19" x="1040.78" y="605.57" width="69.49" height="4.67"/><path class="cls-19" d="M1082.52,846.36h8.54a45.77,45.77,0,0,1,45.77,45.77v119.71a0,0,0,0,1,0,0H1036.75a0,0,0,0,1,0,0V892.13a45.77,45.77,0,0,1,45.77-45.77Z"/><path class="cls-52" d="M1082.41,850.29h7.79A41.74,41.74,0,0,1,1131.94,892v111.13a0,0,0,0,1,0,0h-91.27a0,0,0,0,1,0,0V892a41.74,41.74,0,0,1,41.74-41.74Z"/><line class="cls-53" x1="1041" y1="894.57" x2="1131.94" y2="894.57"/></g><g id="Boy_on_edge" data-name="Boy on edge"><polygon class="cls-54" points="836.89 799.69 838.27 805.7 842.9 805.98 842.35 799.69 836.89 799.69"/><polygon class="cls-54" points="818.56 799.69 819.94 805.7 824.58 805.98 824.02 799.69 818.56 799.69"/><path class="cls-55" d="M841,763.23v3.83l-14.75,14.47L831.12,803h6.34L837,784.1l9.71-3.83s14.69-4.2,14.69-4.7-2-11.17-2-11.17Z" transform="translate(-12.46 0)"/><path class="cls-55" d="M859.32,763.23l-6.85,3.83-8.67,13,5.61,23h6.34l-1.3-21,13.23-4.64s.81-9.35.81-9.85a23.61,23.61,0,0,0-1-3.14Z" transform="translate(-12.46 0)"/><path class="cls-54" d="M844,749.05l-8.63,8.09,1.56,11.14,4.9,2,2.22,2.71-1.71,1.78L837,774.2s-2-3.14-2.74-3.87c-.5-.53-7.75-13.07-7.75-13.07l15.1-14.79Z" transform="translate(-12.46 0)"/><path class="cls-54" d="M865.52,748.08l10.11,9.54-3.57,10.07-5.23,2.12-2.37,2.89,1.83,1.91L872,774s2.18-3.36,2.92-4.14c.54-.56,8.28-12.68,8.28-12.68l-14.46-14.72Z" transform="translate(-12.46 0)"/><path class="cls-15" d="M868.13,751.69c.51,6.06.64,16.6.64,16.6H839.48s2-18.34,2.2-19.93c-1-1.08-2.19-4.43-2.19-4.43L845,737.5l7-1.17,7.73-.51,6.66,3,5.06,6.05-2.27,7.61Z" transform="translate(-12.46 0)"/><path class="cls-56" d="M831.28,805.32l-4.76,7.94c-1.19,2-.59,4,.21,3.81s13.77-6.53,13.77-6.53l-2.75-5.8s-2,1.11-2.45.45a5.85,5.85,0,0,1-.67-2.16Z" transform="translate(-12.46 0)"/><path class="cls-57" d="M859.24,729.05v2.35c0,1.08-.56,2.76.11,3.71a3.58,3.58,0,0,0,.71.69l1.68,1.36c-1,.45-1.91,1.5-3,1.84l-6.33,1.83c-.27.08-1.76-1.37-2-1.55-.68-.54-1.37-1.08-2.05-1.6.59-.56,1.22-1.08,1.82-1.61a2.47,2.47,0,0,0,.53-.59c.32-.58.08-1.9.08-2.58s0-1.34,0-2Z" transform="translate(-12.46 0)"/><path class="cls-56" d="M848.93,804.5l-5.71,7.28c-1.43,1.82-1.08,3.9-.27,3.8s14.48-4.75,14.48-4.75l-2-6.1s-2.09.85-2.49.14a6,6,0,0,1-.4-2.23Z" transform="translate(-12.46 0)"/><path class="cls-54" d="M859.27,732.86s8.68-2,6.71-19.36c.51-3.48-5.06-5.17-7.84-4.67-7.17,1.29-10.87,1.76-11.56,6.92-.37,2.77-6,14,4.31,17.66A18.49,18.49,0,0,0,859.27,732.86Z" transform="translate(-12.46 0)"/><path class="cls-58" d="M844.73,719.08c.35-.05,2.58-.68,3-1.48s.68-1.39,1-2.09a.34.34,0,0,1,.19-.18L852,714c.2-.09.36,0,.52.11.93.39,1.84.81,2.76,1.21.62.27,1.23.54,1.84.79a2.31,2.31,0,0,0,.74.09l3.48.22c.35,0,.7.06,1,.07a.34.34,0,0,1,.28.14l2.06,2.49a.56.56,0,0,1,.15.41c0,1.23.34-.55.32.68,0,.46-.47,3.92-.44,4.38.1,0,.13-.06.18-.11l.55-.65a.22.22,0,0,1,.35-.05c.26.18.54.35.82.52s.25.23.39.33c-.14-.58.41-4.17.42-4.76s0-1,.06-1.54l.12-2c0-.5,0-1,.07-1.48l.06-1.14a.35.35,0,0,0,0-.2c-.32-.57-.63-1.15-.94-1.72s-.6-1.13-.9-1.69l-1-1.81c-.07-.12-.14-.15-.23,0a7.6,7.6,0,0,1-.64.63.23.23,0,0,1-.33,0l-1.2-.87-.85-.6a.19.19,0,0,0-.3,0,4.83,4.83,0,0,0-.43.58.23.23,0,0,1-.36.1l-1.52-1c-.74-.5-1.48-1-2.23-1.47l-1.52-1c-.17-.12-.27-.09-.38.08-.27.39-.55.77-.81,1.17a.19.19,0,0,1-.28.07l-1.47-.72-.57-.24s-.11,0-.16,0,0,.1,0,.16c.17.55.25,1.14.39,1.71,0,.16,0,.25-.19.19a14.9,14.9,0,0,0-1.59-.42l-2-.49-.1,0c-.08,0-.18,0-.24,0s0,.16,0,.24l.91,2.2c.09.21-.05.37-.13.53-.65,1.27-1.32,2.53-2,3.8-.3.58-.58,1.17-.88,1.75S845,718.61,844.73,719.08Z" transform="translate(-12.46 0)"/></g><g id="Girl_on_edge" data-name="Girl on edge"><polygon class="cls-12" points="913.58 795.16 911.44 800.79 907.02 799.36 909.82 793.7 913.58 795.16"/><polygon class="cls-12" points="939.33 784.35 942.36 789.73 939.12 793.05 935.29 788.03 939.33 784.35"/><path class="cls-3" d="M916.25,765.82l6.85,3.84,15.73,11.19-12.67,16.39h-6.34l8.36-14.41L907.89,780s-.81-9.34-.81-9.84a23.81,23.81,0,0,1,1-3.15Z" transform="translate(-12.46 0)"/><path class="cls-12" d="M911.23,751.65l-8.62,8.09,1.56,11.13,4.89,2,2.23,2.72-1.72,1.78-5.35-.56s-2-3.15-2.73-3.88c-.51-.53-7.76-13.06-7.76-13.06l15.11-14.79Z" transform="translate(-12.46 0)"/><path class="cls-12" d="M931.89,741l13.91,5.14,8-7.12v-5.64l1.78-3.3,2.46,1,1.6,5.51s-2.28,3.29-2.72,4.27c-.32.71-8.6,12.47-8.6,12.47l-18.83-8Z" transform="translate(-12.46 0)"/><path class="cls-59" d="M934.32,757.43c.51,6.06,1.69,13.46,1.69,13.46H906.72l3.65-13s-.49-9.26-.41-10a41.09,41.09,0,0,1-3.24-5.48l5.54-3.29,7-1.42,7.73-.51,6.66,3.2,5.06,2.92-3.32,3.42Z" transform="translate(-12.46 0)"/><path class="cls-3" d="M912.94,770.89l9.51-3.94,20.65.77L954,786.88l-4.69,4.27-12.37-14.32-9.76,3.7S911,784,910.64,783.67s-2.75-3.69-2.75-3.69Z" transform="translate(-12.46 0)"/><path class="cls-60" d="M955.4,788.69l8.86,2.67c2.22.67,3.13,2.57,2.41,3s-14.58,4.43-14.58,4.43l-1.87-6.13s2.2-.5,2.12-1.32a6,6,0,0,0-1-2Z" transform="translate(-12.46 0)"/><path class="cls-60" d="M926.68,800.31l3.68,8.49c.92,2.12.06,4.05-.7,3.75s-12.8-8.28-12.8-8.28l3.49-5.39s1.79,1.36,2.36.77a6,6,0,0,0,.95-2.06Z" transform="translate(-12.46 0)"/><path class="cls-61" d="M919.27,732.15a6.52,6.52,0,0,1,.59,4c-.29,1.44-1.58,2.16-2.63,3.1l4,3.15,6.33-1.82a14.15,14.15,0,0,0,2.79-1.83,7.86,7.86,0,0,0-1.58-1.46,3,3,0,0,1-.75-.84c-.47-.95,0-3.22,0-4.3v-2.83" transform="translate(-12.46 0)"/><path class="cls-12" d="M917.72,733.13c-2.68-4.83-4.18-12.72-3.91-14.79.69-5.15,4.39-5.63,11.56-6.91,2.79-.5,8.36,1.19,7.84,4.66-.34,2.33.39,5.15.18,7.61a17.78,17.78,0,0,1-2.29,7.79c-1.25,2-3.55,4.2-6,4.46s-5.35-1.53-7.36-2.82" transform="translate(-12.46 0)"/><path class="cls-10" d="M931.67,710.42c2.83,1.16,3.89,3.37,3.91,6.19a13.72,13.72,0,0,1-2.34,8.26A5.09,5.09,0,0,1,932.1,726c-.08-.67-.12-1.33-.23-2a12.72,12.72,0,0,0-4.19-8.07c-.45-.38-1-.69-1.42-1.05s-.75-.26-1,.22c-1.09,1.81-2.24,3.58-3.31,5.4a43.23,43.23,0,0,0-3.88,8.57,11.92,11.92,0,0,0-.56,4.82,2,2,0,0,1-.25-.12,21.15,21.15,0,0,1-6.07-7.74,13,13,0,0,1-.11-10.11,13.7,13.7,0,0,1,5-6.63,8.83,8.83,0,0,1,7.9-1.41l.27,0c-.08-.4-.18-.74-.22-1.09a3.49,3.49,0,0,1,2.81-3.86,5.65,5.65,0,0,1,5.94,2.22,3.56,3.56,0,0,1-.65,4.83Z" transform="translate(-12.46 0)"/></g><g id="Boombox"><path class="cls-15" d="M802.34,780h-65.2v-.53c0-14.32-.65-25.93,13.68-25.93h37.84c14.32,0,13.68,11.61,13.68,25.93Z" transform="translate(-12.46 0)"/><path class="cls-62" d="M784.82,753.55l-.73-6.42c0-3.15-1.82-5.46-5-5.46H760.59c-3.14,0-5.2,2.31-5.2,5.46l-.74,6.42H758v-4a5.69,5.69,0,0,1,5.69-5.69H776a5.7,5.7,0,0,1,5.7,5.69v4Z" transform="translate(-12.46 0)"/><circle class="cls-62" cx="737.78" cy="767.14" r="10.68"/><circle class="cls-62" cx="776.51" cy="767.14" r="10.68"/><line class="cls-63" x1="749.02" y1="761.4" x2="765.27" y2="761.4"/><rect class="cls-30" x="749.02" y="756.29" width="16.25" height="2.37"/><circle class="cls-30" cx="762.17" cy="765.42" r="1.11"/><circle class="cls-30" cx="757.15" cy="765.42" r="1.11"/><circle class="cls-30" cx="752.14" cy="765.42" r="1.11"/><path class="cls-62" d="M762.78,772.56a10.69,10.69,0,0,1-4.45,5.27h22.35s-3.71-1.82-4.71-5a4.33,4.33,0,0,0-4.15-2.93h-5.13A4.21,4.21,0,0,0,762.78,772.56Z" transform="translate(-12.46 0)"/><circle cx="713.28" cy="737.87" r="2.48"/><path d="M727.68,738a.5.5,0,0,1-.47-.42L724.86,725a.52.52,0,0,1,.41-.61.53.53,0,0,1,.61.42l2.35,12.6a.52.52,0,0,1-.41.61Z" transform="translate(-12.46 0)"/><circle cx="726.54" cy="746.44" r="2.48"/><path d="M740.92,747.57l-.16,0a.53.53,0,0,1-.34-.65l4.36-13.79,2.13,6.69a.53.53,0,0,1-.34.65.51.51,0,0,1-.66-.34l-1.13-3.54-3.36,10.64A.52.52,0,0,1,740.92,747.57Z" transform="translate(-12.46 0)"/><circle cx="719.86" cy="764.82" r="2.48"/><path d="M734.27,764.57a.53.53,0,0,1-.57-.32l-5.47-13.38,5.91,3.78a.52.52,0,0,1-.56.88l-3.13-2,4.22,10.33a.52.52,0,0,1-.28.68Z" transform="translate(-12.46 0)"/></g><polygon class="cls-64" points="1007.26 798.01 1012.6 801.43 1016.2 798.31 1011.27 794.08 1007.26 798.01"/><polygon class="cls-64" points="966.76 800.72 968.18 806.89 972.94 807.18 972.37 800.72 966.76 800.72"/><path class="cls-5" d="M989.49,763.27v3.94l-15.15,14.86,5,22.07h6.51l-.5-19.43,10-3.93s15.09-4.32,15.09-4.83-2.06-11.48-2.06-11.48Z" transform="translate(-12.46 0)"/><path class="cls-5" d="M1000.86,764.08l-2.27,7.73,3,15.76,20.62,12.84,4.65-4.55-16-14.48,6.39-12.91s-6.12-7.44-6.48-7.81a25.44,25.44,0,0,0-3-1.59Z" transform="translate(-12.46 0)"/><path class="cls-64" d="M991.29,740.7l-8.45,8.73-11.41-1.79-2-5.06-2.75-2.33L964.86,742l.49,5.5s3.2,2.15,3.93,2.87c.54.52,13.29,8.18,13.29,8.18L998,743.27Z" transform="translate(-12.46 0)"/><path class="cls-64" d="M1018,742.69,1028.8,752l9.9-4.71,1.62-5.57L1043,739l2.14,1.67v5.9s-3.19,2.58-3.91,3.42c-.52.61-12.08,9.8-12.08,9.8l-16.56-13.21Z" transform="translate(-12.46 0)"/><path class="cls-3" d="M1017.33,751.43c.53,6.22.66,17,.66,17H987.91s2.1-18.84,2.26-20.47c-1-1.1-2.26-4.55-2.26-4.55l5.69-6.6,7.23-2.53,7.94-.52,6.84,4.36,5.19,6.22-2.33,7.82Z" transform="translate(-12.46 0)"/><path class="cls-43" d="M979.49,806.5l-4.89,8.15c-1.22,2-.6,4.12.21,3.91s14.14-6.7,14.14-6.7l-2.82-6s-2,1.13-2.51.46a6,6,0,0,1-.7-2.23Z" transform="translate(-12.46 0)"/><path class="cls-43" d="M1022.87,801.84l1,9.45c.26,2.36,2,3.64,2.53,3s7.21-13.88,7.21-13.88l-5.84-3s-.92,2.12-1.73,1.89a6.26,6.26,0,0,1-1.89-1.36Z" transform="translate(-12.46 0)"/><path class="cls-65" d="M999.42,725.69c0,2.4.13,4.86,0,7.26-.1,1.24-1.59,2-2.46,2.81l4.15,3.24,6.5-1.88,3-1.88a17.28,17.28,0,0,1-2.07-1.7c-1.21-1.47-.51-4.84-.51-6.64" transform="translate(-12.46 0)"/><path class="cls-64" d="M1008.24,732.11a11.4,11.4,0,0,0,6.08-7.07c1.36-4.1,1.28-8.61.8-12.84.53-3.57-5.19-5.3-8-4.79-7.36,1.32-11.16,1.81-11.87,7.1-.49,3.67-2.27,6.88-1.83,10.72.6,5.2,5.71,8,10.56,7.83A11.53,11.53,0,0,0,1008.24,732.11Z" transform="translate(-12.46 0)"/><path class="cls-43" d="M1013.43,727.13s18.72-4.67,6.68-14.25c-4-3.19-6.81-8.84-10.49-11.19-7.36-4.71-14.53-3.84-16.06,3.09-2.3,10.4,2.18,4.76.41,13.85C1007.9,703.91,1013.43,727.13,1013.43,727.13Z" transform="translate(-12.46 0)"/><path class="cls-66" d="M1100.17,938.38a18.81,18.81,0,0,0-17.6,14.2c-4.55,16.17-.22,39.81-.22,39.81l2.34,5.58,29.86.87S1133.89,940.47,1100.17,938.38Z" transform="translate(-12.46 0)"/><polygon class="cls-59" points="1068.58 1000.5 1073.16 978.54 1104.5 979.19 1110.55 1000.5 1068.58 1000.5"/><polygon class="cls-11" points="1082.87 978.98 1083.13 969.12 1094.63 969.36 1094.79 979.23 1088.98 992.04 1082.87 978.98"/><path class="cls-12" d="M1089.84,953.75a54.8,54.8,0,0,0,2.89,13.16c1.39,3.52,3.51,5.44,6.48,7.77,2.53,2,6.36-2.56,8-4.28,3.89-4.11,5.27-8.54,6-14a15.17,15.17,0,0,0,.11-4.41c-.56-3.54-3.71-6.2-6.84-7.52-4.22-1.78-10.55-3-14.08.78A10.75,10.75,0,0,0,1089.84,953.75Z" transform="translate(-12.46 0)"/><path class="cls-66" d="M1102.65,946s-11.08,8.66-15,27.59c-1.43,6.9,1.62-34.07,4.45-33S1101.84,939.22,1102.65,946Z" transform="translate(-12.46 0)"/><path class="cls-66" d="M1114.25,960s-10.88-11.17-16.48-15.84c-4.13-3.43,9.33-1.4,9.33-1.4l8.24,7.13Z" transform="translate(-12.46 0)"/><rect class="cls-67" x="1044.84" y="900.31" width="82.93" height="100.2"/><g id="Bird-2"><ellipse class="cls-15" cx="248.36" cy="663.19" rx="6.77" ry="5.56" transform="translate(-469.44 599.9) rotate(-64.34)"/><path class="cls-62" d="M257.68,663.93c-2.23-3.22-3.94-3.48-3.94-3.48l-2.39,2s3.82-.25,6.15,1.64A.12.12,0,0,0,257.68,663.93Z" transform="translate(-12.46 0)"/><polygon class="cls-15" points="237.56 656.77 227.64 653.61 236.5 658.22 229.65 655.76 235.81 658.96 230.94 657.27 234.57 659.15 231.87 658.54 235.34 660.34 237.19 659.83 238.76 657.39 237.56 656.77"/><path class="cls-15" d="M247.81,660.54l-.1,0-3.47-1.8a.2.2,0,0,1-.09-.25.2.2,0,0,1,.23-.13l1.18.27-2.25-1.16a.21.21,0,0,1-.09-.26.2.2,0,0,1,.25-.11l2.27.79L242,655.93a.18.18,0,0,1-.09-.25.19.19,0,0,1,.25-.11l4.06,1.46L240,653.79a.2.2,0,0,1,.15-.37l9.93,3.16h0l1.2.63a.17.17,0,0,1,.1.12.18.18,0,0,1,0,.16l-1.57,2.44a.27.27,0,0,1-.12.09l-1.85.5Zm-2-1.46,2,1,1.7-.47,1.41-2.19-1-.52-7.68-2.44,6.79,3.53a.21.21,0,0,1,.09.26.2.2,0,0,1-.25.1L244.84,657l3.53,1.83a.21.21,0,0,1,.09.26.21.21,0,0,1-.25.11l-2.27-.79,1.19.62a.18.18,0,0,1,.09.24.19.19,0,0,1-.23.13Z" transform="translate(-12.46 0)"/><polygon class="cls-15" points="232.31 660.25 202.92 674.66 221.14 671.97 233.73 664.87 232.31 660.25"/><path class="cls-15" d="M215.39,674.86a.2.2,0,0,1-.1-.38l29.39-14.41a.19.19,0,0,1,.28.12l1.43,4.62a.2.2,0,0,1-.1.24l-12.58,7.09-.07,0-18.23,2.69Zm29.26-14.33-28,13.74,16.92-2.49,12.42-7Z" transform="translate(-12.46 0)"/><path class="cls-62" d="M246.32,682.89l-3.66.1a.48.48,0,0,1-.37-.15L239.61,680a.48.48,0,0,1-.12-.44l1.15-4.72a.47.47,0,0,1,.58-.35.48.48,0,0,1,.35.58l-1.09,4.46,2.36,2.52,3.45-.1a.48.48,0,1,1,0,1Z" transform="translate(-12.46 0)"/><path class="cls-62" d="M242.66,683a.46.46,0,0,1-.45-.27.48.48,0,0,1,.23-.64l3-1.39a.48.48,0,0,1,.4.87l-3,1.39A.39.39,0,0,1,242.66,683Z" transform="translate(-12.46 0)"/><path class="cls-62" d="M248.52,682.18l-3.67.1a.48.48,0,0,1-.36-.15l-2.69-2.86a.48.48,0,0,1-.11-.44l1.14-4.72a.49.49,0,0,1,.58-.36.47.47,0,0,1,.35.58l-1.08,4.47,2.36,2.52,3.45-.1a.48.48,0,0,1,0,1Z" transform="translate(-12.46 0)"/><path class="cls-62" d="M244.85,682.28a.49.49,0,0,1-.45-.28.47.47,0,0,1,.23-.63l3-1.39a.48.48,0,1,1,.41.87l-3,1.39A.65.65,0,0,1,244.85,682.28Z" transform="translate(-12.46 0)"/><ellipse class="cls-15" cx="242.28" cy="669.53" rx="12.65" ry="6.89" transform="translate(-185.49 91.18) rotate(-15.79)"/></g><g id="Grey-building-left"><rect class="cls-56" x="49.66" y="922.42" width="684.51" height="101.58"/><rect class="cls-55" x="21.51" y="914.62" width="740.41" height="46.56"/><path class="cls-20" d="M748,1008.67l26.37-47.49H746.24l.42,47C746.66,1009.07,747.62,1009.41,748,1008.67Z" transform="translate(-12.46 0)"/><rect class="cls-56" x="556.66" y="865.56" width="64.93" height="49.06"/><rect class="cls-55" x="550.44" y="851.29" width="76.64" height="21.54"/><rect class="cls-20" x="598.84" y="843.28" width="5.49" height="64.93" transform="translate(-286.62 1477.33) rotate(-90)"/><rect class="cls-20" x="399.07" y="624.23" width="10.62" height="684.51" transform="translate(-574.57 1370.87) rotate(-90)"/><path class="cls-20" d="M60.34,1008.67,34,961.18H62.12l-.41,47C61.7,1009.07,60.75,1009.41,60.34,1008.67Z" transform="translate(-12.46 0)"/></g><path class="cls-68" d="M71.1,53.76" transform="translate(-12.46 0)"/><path class="cls-3" d="M90.94,151.69a301.53,301.53,0,0,0,23.71,25.92C123,186,131.85,194,141,201.81a464.43,464.43,0,0,0,59.63,42.92,430.5,430.5,0,0,0,68.13,33.7c12,4.64,24.31,8.88,36.86,12.54s25.39,6.65,38.38,9.1a392.52,392.52,0,0,0,39.42,5.48c13.25,1.19,26.57,2,39.92,1.94s26.69-.44,40-1.65c6.65-.45,13.24-1.35,19.85-2.06,6.57-.95,13.18-1.75,19.7-2.93,52.4-8.58,102.52-25,149.34-45.67,11.91-5.06,23.08-10.54,35-16.08s23.93-11,36.23-16.17a635.31,635.31,0,0,1,76.61-26.67c13.31-3.53,26.8-6.77,40.6-9.22a402.29,402.29,0,0,1,41.9-5.59,313.53,313.53,0,0,1,85.15,4c27.82,5.27,54.26,14.82,77,27.9A245.9,245.9,0,0,1,1103.35,260a274.48,274.48,0,0,1,39.73,56.42c10.44,19.76,18.61,40.2,23.51,61.07a241.32,241.32,0,0,0-13-30.08,308.06,308.06,0,0,0-16.39-29,292.34,292.34,0,0,0-43-53.19A244.9,244.9,0,0,0,1036,222.93a240.53,240.53,0,0,0-72.37-23.87,277.61,277.61,0,0,0-39.18-3.51,313.22,313.22,0,0,0-39.56,1.5,371.92,371.92,0,0,0-39.12,5.85c-12.93,2.5-25.64,5.77-38.21,9.32a655.12,655.12,0,0,0-73.21,26.11q-17.76,7.5-35,15.85c-11.55,5.44-23.53,11.39-35.65,16.62-48.6,21.11-101,38.18-156.4,46.71-55.26,8.4-113.52,8.12-167.92-3.88a417.36,417.36,0,0,1-146.07-62.12A428.23,428.23,0,0,1,136.11,205C119,188.3,103.44,170.6,90.94,151.69Z" transform="translate(-12.46 0)"/><path class="cls-69" d="M215.39,61.65c22.07,0,44.06,3.94,65.72,7.45,36.21,5.87,72.22,14,106.61,26.19,34,12,68.59,28.44,92.72,54.41,25.27,27.2,34.75,70.26,17.13,103.38-5.16,9.71-14,16.41-24.4,20.93-8.37,3.64-17.24,7.49-26.23,9.62a109.48,109.48,0,0,1-59.15-2.34c-36.39-11.92-65.64-38.64-89.45-65.93C274,187.49,253.79,156.58,236,124.78c-6.22-11.13-11.94-22.5-17.51-33.92-1.36-2.8-11.58-29-14.79-28.82C207.62,61.77,211.51,61.65,215.39,61.65Z" transform="translate(-12.46 0)"/><path class="cls-70" d="M218.53,90.86S248.7,79.16,278,87.75s22.31-3.29,22.31-3.29,11.26-15.52,34,7S368,88.79,368,88.79,275.28,57.26,203.74,62C203.74,62,214.05,81.77,218.53,90.86Z" transform="translate(-12.46 0)"/><path class="cls-70" d="M238.41,129s11.37,2.93,20-10.5c7.72-12,27.81,10.64,32.22,15.86,5.19,6.16,16.87,38,27.23,29.28,11.29-9.54,31.64-30.09,35.94,18.22.94,10.51,3.36,25.89-2.17,35.85-1,1.87-2.91,3.39-3.88,5.13-5.5,9.87-5.91,22.08-7.16,33C340.6,255.79,296.83,231.46,238.41,129Z" transform="translate(-12.46 0)"/><path class="cls-70" d="M485.65,220.39c1.25,1.6,4.61,1.28,6.37,1.88a20,20,0,0,1,6.5,3.51c2.4,2,7.07,7.46,6.57,10.72,4.1-27.26,3-51.54-12.83-74.81-11.78-17.29-23.76-31.19-60.88-47.64,4.33-.18,7.23,16.59,7.93,19.23a113,113,0,0,0,3.15,11.43c5.49,14.42,13.79,26.12,9.3,42.08a6.52,6.52,0,0,1-.83,2,7.52,7.52,0,0,1-1.39,1.37c-2.27,1.9-9.49,6.31-8,10.27,1.56,4.17,11.1,3.13,14.44,2.95,6.4-.35,12.82-.7,19.24-.77,3.12,0,8.82-.42,11.12,2.18C490.17,209.13,482.07,215.81,485.65,220.39Z" transform="translate(-12.46 0)"/><path class="cls-70" d="M471.41,281.56c7.85-5.16,14.87-9.49,21-14.55a73.55,73.55,0,0,0,8.53-8c2.85-2.82,4.92-6,7.87-9.42a18.24,18.24,0,0,1-1.42,12A28.55,28.55,0,0,1,499.07,272a43.59,43.59,0,0,1-12.66,7A41.32,41.32,0,0,1,471.41,281.56Z" transform="translate(-12.46 0)"/><path class="cls-3" d="M484.35,289.52c7.85-5.16,14.87-9.5,21-14.55a75.41,75.41,0,0,0,8.54-8c2.84-2.82,4.92-6,7.86-9.42a18.2,18.2,0,0,1-1.41,12A28.52,28.52,0,0,1,512,279.94a43.57,43.57,0,0,1-12.66,7A41,41,0,0,1,484.35,289.52Z" transform="translate(-12.46 0)"/><path class="cls-70" d="M506.77,291.76c5.37-4.4,10.22-7.47,14.71-10.83,2.29-1.64,4.35-3.35,6.52-5.16s4.1-3.86,6.85-6.17a11.46,11.46,0,0,1-.57,9,20,20,0,0,1-6.46,7.56,31,31,0,0,1-9.72,4.68A27.83,27.83,0,0,1,506.77,291.76Z" transform="translate(-12.46 0)"/><path class="cls-3" d="M956.29,197.55s-76.3-13-224.52,115C731.77,312.54,1002.63,312.16,956.29,197.55Z" transform="translate(-12.46 0)"/><path class="cls-70" d="M946.83,207.33s-51.3,66.47-198.26,98.75" transform="translate(-12.46 0)"/><path class="cls-3" d="M1117,279.9s-35.7-21.07-19.37-119.08C1097.63,160.82,1198.31,252.93,1117,279.9Z" transform="translate(-12.46 0)"/><path class="cls-70" d="M1116.64,272.09s24.79-39.69-15-90.48" transform="translate(-12.46 0)"/><path class="cls-3" d="M327.4,312.68s-51.13-28.81-213.81,28.76C113.59,341.44,314.33,409.2,327.4,312.68Z" transform="translate(-12.46 0)"/><path class="cls-70" d="M320.18,319.4s-72.29,29.37-184.29,22.22" transform="translate(-12.46 0)"/><path class="cls-70" d="M190.94,244.55a260.29,260.29,0,0,0,26,15.46c9,4.82,18.24,9.3,27.74,13.44A425.94,425.94,0,0,0,304,294.37,460.85,460.85,0,0,0,431.42,311a470.72,470.72,0,0,0,64.34-5.08c10.66-1.35,21.08-3.57,31.57-5.53l15.49-3.63c2.58-.62,5.18-1.19,7.73-1.86l7.61-2.15c20.45-5.4,40.08-12.49,59.47-19.87,19.31-7.75,38.42-15.93,57.53-24.22,38.37-16.33,77-33,118.53-45.43,20.78-6,42.07-11.44,64.15-14.44,2.74-.41,5.47-.88,8.23-1.24l8.34-.8c5.57-.43,11.09-1.26,16.71-1.36l16.81-.43c5.6-.14,11.2.39,16.8.55l8.39.38c2.78.22,5.54.63,8.32.94l16.59,2a265.08,265.08,0,0,1,32.26,7.23,240.17,240.17,0,0,1,58,25.45,249.78,249.78,0,0,1,46,36.79,237.67,237.67,0,0,1,34.19,43.42c-21.48-29.38-49.33-56.32-84.37-76-34.8-19.82-77.09-30.91-120-31.82-21.41-1-42.89.94-63.91,4.15s-41.59,8.57-61.68,14.67c-40.21,12.35-78.32,28.86-116.56,45.34-19.17,8.22-38.47,16.39-58.11,24.17l-15,5.56-7.51,2.78-7.68,2.51L578.25,298c-5.19,1.54-10.49,2.87-15.72,4.31l-7.88,2.13c-2.65.66-5.34,1.21-8,1.83l-16,3.55c-10.86,1.9-21.64,4.06-32.68,5.33a448.2,448.2,0,0,1-66.49,4.19C342.32,318.81,254.43,291.3,190.94,244.55Z" transform="translate(-12.46 0)"/><path class="cls-3" d="M809.76,194.35s-34.6-54.2-208-80.23C601.78,114.12,692.74,243,809.76,194.35Z" transform="translate(-12.46 0)"/><path class="cls-70" d="M794.23,191.56s-90.86-6.27-179.85-71.17" transform="translate(-12.46 0)"/><path class="cls-3" d="M666.31,267.76s-42.39,4.5-87.73,92.09C578.58,359.85,717.81,319.92,666.31,267.76Z" transform="translate(-12.46 0)"/><path class="cls-70" d="M666.8,273.7s-17.88,40.78-77.16,78.11" transform="translate(-12.46 0)"/></svg>